<?xml version="1.0" encoding="utf-8"?>
<!-- Generator: Adobe Illustrator 16.0.0, SVG Export Plug-In . SVG Version: 6.00 Build 0)  -->
<!DOCTYPE svg PUBLIC "-//W3C//DTD SVG 1.1//EN" "http://www.w3.org/Graphics/SVG/1.1/DTD/svg11.dtd">
<svg version="1.1" id="Layer_1" xmlns="http://www.w3.org/2000/svg" xmlns:xlink="http://www.w3.org/1999/xlink" x="0px" y="0px"
	 width="325.339px" height="55.765px" viewBox="0 0 325.339 55.765" enable-background="new 0 0 325.339 55.765"
	 xml:space="preserve">
<g>
	<defs>
		<rect id="SVGID_1_" width="325.339" height="55.765"/>
	</defs>
	<clipPath id="SVGID_2_">
		<use xlink:href="#SVGID_1_"  overflow="visible"/>
	</clipPath>
	<path clip-path="url(#SVGID_2_)" fill-rule="evenodd" clip-rule="evenodd" fill="#FFFFFF" d="M0,27.883C0,12.308,12.503,0,28.007,0
		c15.255,0,27.758,12.308,27.758,27.883c0,15.322-12.503,27.882-27.758,27.882C12.503,55.765,0,43.206,0,27.883 M51.765,31.148
		L51.765,31.148l-0.5-2.763l-1.501-2.261l-0.75-0.251l1-4.522V21.1c0.501-2.26-1.25-4.27-3.501-4.27h-2h-8.252h-4.752h-3.501
		l-0.25-0.754l1.25-0.251l0.251-0.502h-1.751l0.75-0.754l-0.75-0.502l-0.75,1.005l-1.25-0.251l0.5-1.257l1.25-0.502l-0.25-1.005
		l0.5-0.251l1.25,0.251l0.25,1.507l1.001,1.257l0.5-0.503l1-0.251l-0.5-1.005h1.25l0.25,1.005l1.751,0.251l1.25-1.256l0.25-2.261
		l-2,0.754l1,1.005l-1.25,0.753l-1.251-1.256l-1.25,0.503l-0.5-1.256l2.501-1.507l2.5-0.754l4.502,1.758l3.751,0.252l0.5-0.754
		l0.75,0.502c-0.5-0.502-1-1.004-1.5-1.507l-0.751,0.754h-1.5l-0.5-0.754l1-0.754l1.501,0.754
		c-4.252-3.516-9.503-5.777-15.255-5.777c-5.751,0-11.003,2.009-15.004,5.275l1.75-0.754l3.001-0.754l3.501-0.502l4.001-0.502
		l2.751,0.502l-1.75,0.754v0.753l-1.501,0.503l-0.75,0.753l-2,0.503l-1.001,0.502l-1.75,0.503l-1.251,1.758l-1.5,0.251l-0.75-1.507
		l1-2.512h-2.751l-1,0.754l-1.5,0.251c-0.251,0.251-0.501,0.502-0.751,1.005l2.251-0.503l1,0.503l-1,2.009l-1.5-0.251l0.5-1.256
		l-1.251-0.251l-1.75,2.009l-1.251,1.256c-0.25,0.252-0.5,0.754-0.5,1.005l0.751,0.502l1.5-1.255l-0.5-0.503l1.5-1.005l1.751,0.251
		l0.75,2.01l-0.75,0.753l0.5,0.503h-0.25h-1.251v-0.503l-0.5,0.252h-1.25l-0.5,2.763l-0.5-0.754l-0.751,1.256l-2,2.01l0.5,1.005
		L4.25,24.366l0.501,1.758L4,26.375l-0.25-0.251v1.256v-0.251L4,26.878l1.251,1.005l-0.75,0.502L3.75,27.883
		c0,0.753,0,1.506,0.25,2.009v0.251v0.251c0,0.503,0,1.005,0.25,1.508h0.251l1.25-0.754l0.5,0.251l-0.5,3.015
		c-0.25,0.754,0,1.508,0.25,2.01l-0.75-0.754c0,0.503,0.25,1.005,0.5,1.257h0.25c0.75,1.255,2.001,2.009,3.251,2.009h7.002
		l0.25,1.005l-1.5,1.507l0.25,1.508l-0.501,2.01l-1.25,0.502v1.005l-0.25,0.502c4.001,3.015,9.253,5.024,14.754,5.024
		C40.012,51.998,50.014,42.955,51.765,31.148 M34.759,49.234l-2-5.274l1-3.267l-1.251-1.758h9.503l0.5-3.014l1.001-4.522l0.75,1.256
		l2.501-1.507l-1.001,3.266l-3.001,3.517v4.271l-2.5,1.759l0.5,1.507l-1,0.754l-0.751,1.758L34.759,49.234z M43.012,45.466
		l-0.75-0.754l1.001-1.004v-1.508l2.25-1.759l0.25,1.256l-1.5,2.513L43.012,45.466z M9.252,35.167l3.251-14.82h4.251v0.251
		l0.25-0.251l3.501,7.284l5.252-5.777l1.5-1.507h4.251l-3.001,14.82h-4.251l1.501-7.284l-6.752,7.033l-3.751-7.285l-1.501,7.536
		H9.252z M34.759,35.167l2.251-11.052h-4.502l0.751-3.768h13.253l-0.75,3.768h-4.501l-2.251,11.052H34.759z M45.013,30.646l-1-1.508
		l0.25-1.255h4.251l0.25,0.251L45.013,30.646z M5.501,29.389l-0.5-0.502l0.75-0.753l1,0.753L5.501,29.389z M5.751,19.593l0.75-0.502
		l-0.75-0.754c-0.25,0.251-0.25,0.503-0.5,1.005L5.751,19.593z M9.002,13.313h-0.25H9.002z M24.256,11.555l-1.5-0.502l0.5-1.005
		l1,0.251l1.751-0.251l0.25,0.753L24.256,11.555z"/>
	<path clip-path="url(#SVGID_2_)" fill-rule="evenodd" clip-rule="evenodd" fill="#FFFFFF" d="M131.536,28.884
		c1.251-1.749,2.251-3.498,2.251-5.747c0-2.499-1-4.498-2.251-5.997c-1.5-1.499-3.501-1.999-5.751-1.999
		c-2.001,0-4.001,0.75-5.502,1.999c-1.5,1.749-2.25,3.498-2.25,5.997c0,2.249,0.75,4.248,2.25,5.747
		c1.501,1.499,3.501,2.249,5.502,2.249C128.035,31.133,129.786,30.134,131.536,28.884 M159.543,28.884
		c1.251-1.749,2.251-3.498,2.251-5.747c0-2.499-1-4.498-2.251-5.997c-1.5-1.749-3.251-2.499-5.251-2.499
		c-2.001,0-3.751,0.75-5.501,2.499c-1.25,1.499-2,3.498-2,5.997c0,2.249,0.75,4.248,2,5.747c1.75,1.25,3.5,2.249,5.501,2.249
		C156.542,31.133,158.043,30.134,159.543,28.884 M197.555,35.631V3.147l5.251,0.999v31.485H197.555z M173.047,33.132
		c-1.5-1.999-2.251-4.248-2.251-7.496V10.394h5.002v13.743c0,4.498,1.75,6.747,5.251,6.747c1.751,0,3.251-0.749,4.752-1.749
		c1-1.249,2-2.999,2-5.247V10.394h5.002v24.738h-5.002v-4.498c-1,1.5-2,2.749-3.501,3.499c-1.5,0.999-3.001,1.499-4.501,1.499
		C176.798,35.631,174.797,34.881,173.047,33.132 M145.04,32.133c-2.251-2.249-3.251-5.248-3.251-9.246c0-3.748,1-6.996,3.501-9.245
		c2.501-2.249,5.251-3.499,8.502-3.499c3.501,0,6.001,1.5,8.002,4.248V2.647l5.25,1.25v31.234h-5.25v-3.748
		c-2.001,2.749-4.752,4.248-8.252,4.248C150.041,35.631,147.291,34.381,145.04,32.133 M116.782,32.133
		c-2.501-2.499-3.751-5.748-3.751-8.996c0-3.748,1.25-6.747,3.751-8.996c2.251-2.498,5.502-3.998,9.003-3.998
		c3.751,0,7.002,1.25,9.252,3.998c2.501,2.249,3.751,5.498,3.751,8.996s-1.25,6.497-3.751,8.996
		c-2.25,2.248-5.501,3.748-9.252,3.748C122.284,35.631,119.033,34.381,116.782,32.133 M73.77,35.631V3.147h8.753l9.752,20.24
		l9.753-20.24h8.752v32.484h-5.751V10.144L93.776,32.882h-3.001L79.272,10.144v25.488H73.77z"/>
	<path clip-path="url(#SVGID_2_)" fill-rule="evenodd" clip-rule="evenodd" fill="#FFFFFF" d="M317.837,16.14
		c-1.251-0.999-3.001-1.499-4.752-1.499c-2,0-3.501,0.5-5.251,1.749c-1.5,1.25-2.001,2.749-2.001,4.748h14.004
		C319.837,19.139,319.337,17.39,317.837,16.14 M289.829,28.884c1.25-1.749,2-3.498,2-5.747c0-2.499-0.75-4.498-2-5.997
		c-1.5-1.749-3.25-2.499-5.251-2.499c-2,0-3.751,0.75-5.501,2.499c-1.251,1.499-2.251,3.498-2.251,5.997
		c0,2.249,1,4.248,2.251,5.747c1.5,1.25,3.251,2.249,5.501,2.249C286.579,31.133,288.329,30.134,289.829,28.884 M262.072,29.884
		c1.25-1,1.751-2.249,1.751-3.749v-2.248h-5.752c-3.751,0-5.502,1.249-5.502,3.498c0,1.249,0.25,2.249,1.251,2.749
		c1,0.749,2.25,0.999,4.001,0.999C259.321,31.133,260.822,30.883,262.072,29.884 M304.083,32.133
		c-2.251-2.249-3.501-5.248-3.501-9.246s1.25-6.996,3.751-9.495c2.501-2.249,5.502-3.249,8.752-3.249c3.501,0,6.252,1,8.753,2.999
		c2.251,1.999,3.501,4.748,3.501,8.246v3.748h-19.506c0.25,1.749,1.001,2.998,2.501,4.248c1.501,1.249,3.251,1.749,5.252,1.749
		c3,0,5.251-0.999,7.002-2.999l3,2.999c-2.75,2.999-6.251,4.248-10.503,4.248C309.584,35.631,306.584,34.381,304.083,32.133
		 M275.326,32.133c-2.501-2.249-3.501-5.248-3.501-9.246s1.25-6.996,3.751-9.245c2.25-2.499,5.251-3.499,8.502-3.499
		s6.001,1.5,8.001,4.248V2.647l5.252,1.25v31.234h-5.252v-3.748c-2,2.749-4.75,4.248-8.251,4.248S277.576,34.381,275.326,32.133
		 M249.819,33.382c-1.751-1.249-2.751-3.248-2.751-5.747s1-4.248,2.751-5.498c1.75-0.999,4.001-1.749,7.002-1.749h7.002v-0.999
		c0-3.249-2.001-4.998-5.502-4.998c-2.251,0-4.501,0.75-7.252,2.749l-2.251-3.248c3.001-2.499,6.252-3.749,10.003-3.749
		c3.001,0,5.252,1,7.252,2.249c1.751,1.5,2.751,3.748,2.751,6.997v15.992h-4.751v-3.248c-2.001,2.248-4.752,3.498-8.253,3.498
		C253.57,35.631,251.569,35.131,249.819,33.382 M233.064,35.631V10.894h5.251v4.998c0.751-1.75,2.001-2.749,3.501-3.749
		c1.251-0.999,3.001-1.749,4.502-1.749v5.248h-0.25c-2.501,0-4.502,0.749-5.752,2.498c-1.25,1.999-2.001,3.998-2.001,6.997v10.495
		H233.064z M216.81,35.631V8.145h-10.253V2.897h26.508v5.247h-10.253v27.237h-6.002V35.631z"/>
	<path clip-path="url(#SVGID_2_)" fill-rule="evenodd" clip-rule="evenodd" fill="#FFFFFF" d="M98.62,52.378
		c-0.901-0.929-1.351-2.211-1.351-3.841c0-1.673,0.417-2.989,1.254-3.947c0.834-0.957,1.984-1.437,3.443-1.437
		c1.356,0,2.425,0.411,3.21,1.232c0.788,0.822,1.179,1.951,1.179,3.392v1.177h-6.839c0.03,0.995,0.299,1.759,0.806,2.294
		c0.509,0.533,1.223,0.801,2.145,0.801c0.606,0,1.17-0.057,1.694-0.172c0.522-0.113,1.085-0.304,1.684-0.57v1.771
		c-0.532,0.253-1.071,0.432-1.615,0.537c-0.545,0.104-1.166,0.158-1.866,0.158C100.768,53.773,99.52,53.309,98.62,52.378
		 M132.442,52.378c-0.898-0.929-1.349-2.211-1.349-3.841c0-1.673,0.417-2.989,1.252-3.947c0.836-0.957,1.984-1.437,3.444-1.437
		c1.355,0,2.425,0.411,3.212,1.232c0.785,0.822,1.178,1.951,1.178,3.392v1.177h-6.84c0.031,0.995,0.3,1.759,0.807,2.294
		c0.507,0.533,1.222,0.801,2.144,0.801c0.607,0,1.171-0.057,1.693-0.172c0.524-0.113,1.085-0.304,1.685-0.57v1.771
		c-0.532,0.253-1.07,0.432-1.615,0.537c-0.545,0.104-1.167,0.158-1.865,0.158C134.591,53.773,133.342,53.309,132.442,52.378
		 M143.394,52.378c-0.899-0.929-1.349-2.211-1.349-3.841c0-1.673,0.417-2.989,1.252-3.947c0.835-0.957,1.983-1.437,3.443-1.437
		c1.355,0,2.427,0.411,3.212,1.232c0.785,0.822,1.179,1.951,1.179,3.392v1.177h-6.841c0.031,0.995,0.301,1.759,0.807,2.294
		c0.508,0.533,1.223,0.801,2.144,0.801c0.607,0,1.172-0.057,1.693-0.172c0.524-0.113,1.085-0.304,1.685-0.57v1.771
		c-0.531,0.253-1.07,0.432-1.614,0.537c-0.544,0.104-1.166,0.158-1.866,0.158C145.544,53.773,144.295,53.309,143.394,52.378
		 M154.072,52.383c-0.717-0.927-1.076-2.227-1.076-3.901c0-1.681,0.363-2.987,1.091-3.924c0.726-0.937,1.733-1.404,3.02-1.404
		c1.349,0,2.377,0.497,3.081,1.492h0.112c-0.106-0.734-0.158-1.315-0.158-1.741V39.17h2.19v14.417h-1.707l-0.381-1.344h-0.102
		c-0.699,1.02-1.723,1.529-3.071,1.529C155.789,53.773,154.79,53.31,154.072,52.383 M167.131,53.124
		c-0.738-0.431-1.303-1.052-1.7-1.862c-0.396-0.809-0.593-1.748-0.593-2.815c0-1.663,0.427-2.96,1.28-3.894
		c0.854-0.932,2.056-1.398,3.61-1.398c1.484,0,2.659,0.478,3.526,1.433c0.866,0.954,1.299,2.24,1.299,3.859
		c0,1.673-0.43,2.979-1.289,3.919c-0.859,0.938-2.058,1.408-3.592,1.408C168.714,53.773,167.867,53.556,167.131,53.124
		 M211.281,53.124c-0.736-0.431-1.305-1.052-1.699-1.862c-0.396-0.809-0.595-1.748-0.595-2.815c0-1.663,0.429-2.96,1.281-3.894
		c0.854-0.932,2.058-1.398,3.61-1.398c1.485,0,2.661,0.478,3.527,1.433c0.866,0.954,1.299,2.24,1.299,3.859
		c0,1.673-0.43,2.979-1.289,3.919c-0.861,0.938-2.058,1.408-3.592,1.408C212.865,53.773,212.016,53.556,211.281,53.124
		 M243.902,52.958c-0.567-0.543-0.851-1.312-0.851-2.307c0-1.058,0.394-1.854,1.18-2.393c0.785-0.536,1.983-0.83,3.591-0.88
		l1.772-0.055v-0.547c0-0.654-0.152-1.145-0.46-1.468c-0.306-0.324-0.779-0.486-1.423-0.486c-0.527,0-1.031,0.077-1.513,0.231
		c-0.483,0.154-0.946,0.336-1.394,0.546l-0.706-1.557c0.56-0.29,1.167-0.511,1.83-0.663c0.661-0.15,1.286-0.227,1.874-0.227
		c1.307,0,2.29,0.284,2.956,0.853s0.998,1.462,0.998,2.679v6.902h-1.559l-0.438-1.427h-0.074c-0.494,0.624-0.993,1.049-1.492,1.273
		c-0.503,0.227-1.146,0.339-1.933,0.339C245.256,53.773,244.467,53.501,243.902,52.958 M255.266,52.383
		c-0.717-0.927-1.075-2.227-1.075-3.901c0-1.681,0.363-2.987,1.091-3.924c0.726-0.937,1.732-1.404,3.02-1.404
		c1.35,0,2.377,0.497,3.081,1.492h0.113c-0.107-0.734-0.158-1.315-0.158-1.741V39.17h2.189v14.417h-1.707l-0.382-1.344h-0.101
		c-0.7,1.02-1.724,1.529-3.072,1.529C256.983,53.773,255.984,53.31,255.266,52.383 M267.382,52.378
		c-0.899-0.929-1.35-2.211-1.35-3.841c0-1.673,0.417-2.989,1.254-3.947c0.834-0.957,1.98-1.437,3.44-1.437
		c1.356,0,2.428,0.411,3.213,1.232c0.784,0.822,1.179,1.951,1.179,3.392v1.177h-6.841c0.03,0.995,0.301,1.759,0.808,2.294
		c0.507,0.533,1.222,0.801,2.144,0.801c0.607,0,1.172-0.057,1.694-0.172c0.523-0.113,1.084-0.304,1.686-0.57v1.771
		c-0.532,0.253-1.071,0.432-1.616,0.537c-0.544,0.104-1.165,0.158-1.865,0.158C269.531,53.773,268.282,53.309,267.382,52.378
		 M77.761,53.587V41.941H73.77v-1.9h10.2v1.9h-3.99v11.646H77.761z M85.818,53.587V39.17H88v3.66c0,0.587-0.038,1.213-0.113,1.879
		h0.139c0.298-0.493,0.711-0.875,1.238-1.147c0.531-0.272,1.148-0.408,1.853-0.408c2.487,0,3.73,1.252,3.73,3.753v6.681h-2.189v-6.3
		c0-0.792-0.159-1.381-0.478-1.771c-0.318-0.389-0.824-0.584-1.518-0.584c-0.915,0-1.589,0.273-2.018,0.82
		C88.214,46.3,88,47.215,88,48.5v5.087H85.818z M114.003,53.587V40.041h7.657v1.872h-5.457v4.234h5.113v1.882h-5.113v5.559H114.003z
		 M123.887,53.587V43.338h1.708l0.287,1.808h0.113c0.34-0.61,0.784-1.097,1.332-1.454c0.547-0.359,1.137-0.538,1.767-0.538
		c0.44,0,0.802,0.031,1.086,0.094l-0.214,2.028c-0.309-0.074-0.63-0.111-0.964-0.111c-0.872,0-1.579,0.285-2.121,0.853
		c-0.541,0.568-0.813,1.307-0.813,2.215v5.355H123.887z M177.06,53.587V43.338h1.707l0.308,1.344h0.109
		c0.286-0.486,0.699-0.863,1.24-1.129c0.542-0.266,1.137-0.399,1.787-0.399c1.578,0,2.624,0.538,3.136,1.613h0.149
		c0.303-0.508,0.729-0.902,1.282-1.187c0.55-0.284,1.182-0.427,1.893-0.427c1.224,0,2.118,0.309,2.676,0.927
		c0.562,0.618,0.841,1.56,0.841,2.826v6.681h-2.181v-6.319c0-0.784-0.15-1.37-0.45-1.757c-0.3-0.386-0.765-0.578-1.396-0.578
		c-0.849,0-1.468,0.264-1.861,0.793c-0.393,0.527-0.589,1.338-0.589,2.431v5.431h-2.19v-6.319c0-0.784-0.147-1.37-0.445-1.757
		c-0.296-0.386-0.763-0.578-1.394-0.578c-0.84,0-1.459,0.273-1.85,0.82c-0.395,0.547-0.589,1.456-0.589,2.729v5.105H177.06z
		 M202.869,53.587V41.941h-3.989v-1.9h10.199v1.9h-3.991v11.646H202.869z M228.848,53.587V41.941h-3.99v-1.9h10.2v1.9h-3.99v11.646
		H228.848z M235.959,53.587V43.338h1.708l0.287,1.808h0.112c0.34-0.61,0.783-1.097,1.331-1.454c0.548-0.359,1.138-0.538,1.769-0.538
		c0.439,0,0.801,0.031,1.086,0.094l-0.214,2.028c-0.311-0.074-0.631-0.111-0.965-0.111c-0.872,0-1.58,0.285-2.121,0.853
		c-0.542,0.568-0.813,1.307-0.813,2.215v5.355H235.959z M248.857,51.442c0.48-0.441,0.72-1.062,0.72-1.856v-0.891l-1.318,0.055
		c-1.027,0.039-1.773,0.209-2.242,0.515c-0.467,0.307-0.699,0.774-0.699,1.405c0,0.456,0.136,0.811,0.407,1.06
		c0.273,0.251,0.682,0.376,1.226,0.376C247.743,52.105,248.379,51.883,248.857,51.442 M159.612,51.256
		c0.409-0.503,0.619-1.319,0.632-2.449V48.5c0-1.291-0.21-2.209-0.632-2.751c-0.42-0.544-1.078-0.816-1.976-0.816
		c-0.767,0-1.358,0.311-1.772,0.932c-0.415,0.621-0.623,1.506-0.623,2.655c0,1.136,0.202,2.003,0.604,2.599
		c0.402,0.596,1.006,0.895,1.809,0.893C158.551,52.013,159.206,51.761,159.612,51.256 M260.806,51.256
		c0.409-0.503,0.62-1.319,0.632-2.449V48.5c0-1.291-0.21-2.209-0.632-2.751c-0.42-0.544-1.078-0.816-1.975-0.816
		c-0.769,0-1.359,0.311-1.773,0.932c-0.415,0.621-0.622,1.506-0.622,2.655c0,1.136,0.201,2.003,0.604,2.599
		c0.401,0.596,1.006,0.895,1.808,0.893C259.746,52.013,260.4,51.761,260.806,51.256 M172.308,48.446
		c0-2.342-0.872-3.513-2.615-3.513c-0.916,0-1.58,0.304-1.991,0.908s-0.618,1.474-0.618,2.604c0,2.364,0.877,3.549,2.627,3.549
		C171.442,51.995,172.308,50.81,172.308,48.446 M216.46,48.446c0-2.342-0.872-3.513-2.619-3.513c-0.915,0-1.578,0.304-1.991,0.908
		c-0.41,0.604-0.615,1.474-0.615,2.604c0,2.364,0.875,3.549,2.627,3.549C215.593,51.995,216.46,50.81,216.46,48.446 M103.6,45.457
		c-0.396-0.436-0.941-0.653-1.634-0.653c-0.694,0-1.249,0.221-1.667,0.657c-0.417,0.439-0.667,1.079-0.747,1.918h4.66
		C104.2,46.534,103.995,45.892,103.6,45.457 M137.423,45.457c-0.397-0.436-0.942-0.653-1.634-0.653
		c-0.693,0-1.249,0.221-1.667,0.657c-0.417,0.439-0.665,1.079-0.746,1.918h4.658C138.022,46.534,137.819,45.892,137.423,45.457
		 M148.374,45.457c-0.397-0.436-0.942-0.653-1.634-0.653c-0.692,0-1.247,0.221-1.666,0.657c-0.418,0.439-0.666,1.079-0.747,1.918
		h4.66C148.973,46.534,148.77,45.892,148.374,45.457 M272.361,45.457c-0.396-0.436-0.939-0.653-1.635-0.653
		c-0.691,0-1.246,0.221-1.665,0.657c-0.418,0.439-0.667,1.079-0.746,1.918h4.658C272.963,46.534,272.757,45.892,272.361,45.457"/>
</g>
</svg>
