<?xml version="1.0" encoding="utf-8"?>
<!-- Generator: Adobe Illustrator 16.0.0, SVG Export Plug-In . SVG Version: 6.00 Build 0)  -->
<!DOCTYPE svg PUBLIC "-//W3C//DTD SVG 1.1//EN" "http://www.w3.org/Graphics/SVG/1.1/DTD/svg11.dtd">
<svg version="1.1" id="Layer_1" xmlns="http://www.w3.org/2000/svg" xmlns:xlink="http://www.w3.org/1999/xlink" x="0px" y="0px"
	 width="162.026px" height="162.026px" viewBox="0 0 162.026 162.026" enable-background="new 0 0 162.026 162.026"
	 xml:space="preserve">
<g>
	<linearGradient id="SVGID_1_" gradientUnits="userSpaceOnUse" x1="46.8291" y1="113.7104" x2="115.8291" y2="47.7104">
		<stop  offset="0" style="stop-color:#68CD52"/>
		<stop  offset="1" style="stop-color:#1A97D5"/>
	</linearGradient>
	<path fill="url(#SVGID_1_)" d="M162.025,87.682V74.345l-9.92-3.131c-0.362-2.644-0.857-5.246-1.501-7.791l8.009-6.612
		l-5.001-12.361L143.22,45.27c-1.52-2.633-3.19-5.166-5.021-7.575l4.813-9.251l-9.43-9.431l-9.252,4.813
		c-2.097-1.593-4.282-3.072-6.55-4.43l0.99-10.367l-12.277-5.206l-6.75,7.906c-2.909-0.787-5.891-1.392-8.933-1.809L87.682,0H74.345
		L71.214,9.92c-2.644,0.363-5.245,0.858-7.79,1.501l-6.612-8.009L44.45,8.414l0.819,10.393c-2.633,1.519-5.166,3.19-7.575,5.02
		l-9.25-4.813l-9.432,9.43l4.813,9.251c-1.592,2.097-3.071,4.282-4.43,6.55l-10.368-0.99L3.823,55.532l7.906,6.75
		c-0.787,2.909-1.392,5.891-1.809,8.933L0,74.344v13.337l9.919,3.13c0.363,2.645,0.858,5.246,1.501,7.791l-8.009,6.612l5.001,12.361
		l10.393-0.819c1.519,2.633,3.19,5.166,5.02,7.575l-4.813,9.251l9.431,9.43l9.251-4.812c2.097,1.593,4.283,3.072,6.551,4.43
		l-0.991,10.368l12.278,5.205l6.75-7.905c2.909,0.787,5.891,1.392,8.933,1.809l3.13,9.92h13.336l3.13-9.92
		c2.645-0.362,5.246-0.857,7.791-1.501l6.612,8.009l12.362-5.001l-0.819-10.394c2.633-1.519,5.166-3.19,7.575-5.02l9.251,4.812
		l9.43-9.429l-4.812-9.252c1.592-2.097,3.071-4.283,4.43-6.551l10.368,0.99l5.204-12.276l-7.905-6.75
		c0.787-2.909,1.392-5.891,1.809-8.933L162.025,87.682z M160.869,75.193v11.642l-8.603,2.715c0.334-2.802,0.525-5.646,0.525-8.536
		s-0.191-5.734-0.525-8.535L160.869,75.193z M146.506,98.028l2.476,2.113c-1.637,5.811-3.997,11.316-6.982,16.419l-3.247-0.311
		C142.178,110.657,144.815,104.532,146.506,98.028z M115.289,139.317l0.258,3.266c-5.147,2.898-10.686,5.177-16.523,6.718
		l-2.092-2.533C103.472,145.183,109.641,142.651,115.289,139.317z M63.998,146.507l-2.114,2.475
		c-5.81-1.637-11.316-3.997-16.418-6.982l0.31-3.247C51.369,142.178,57.494,144.816,63.998,146.507z M10.39,81.013
		c0-3.023,0.213-5.995,0.583-8.919l3.108-0.981c-0.477,3.233-0.731,6.537-0.731,9.9s0.255,6.667,0.731,9.9l-3.108-0.981
		C10.603,87.008,10.39,84.036,10.39,81.013z M15.519,63.998l-2.475-2.114c1.637-5.81,3.997-11.316,6.982-16.418l3.247,0.31
		C19.848,51.369,17.21,57.494,15.519,63.998z M46.736,22.709l-0.257-3.266c5.146-2.898,10.685-5.176,16.523-6.717l2.091,2.533
		C58.554,16.843,52.384,19.376,46.736,22.709z M98.027,15.52l2.114-2.475c5.81,1.637,11.315,3.997,16.418,6.982l-0.311,3.247
		C110.656,19.848,104.531,17.21,98.027,15.52z M139.316,46.737l3.266-0.257c2.898,5.146,5.177,10.685,6.718,16.522l-2.533,2.091
		C145.183,58.554,142.649,52.384,139.316,46.737z M146.634,81.013c0,36.184-29.438,65.621-65.621,65.621
		c-36.184,0-65.622-29.438-65.622-65.621c0-36.184,29.438-65.622,65.622-65.622C117.196,15.391,146.634,44.829,146.634,81.013z
		 M121.314,26.699l2.889-1.503c4.722,3.662,8.966,7.905,12.627,12.627l-1.503,2.889C131.365,35.386,126.641,30.661,121.314,26.699z
		 M81.013,13.35c-3.363,0-6.667,0.255-9.899,0.731l0.981-3.108c2.924-0.37,5.896-0.583,8.918-0.583s5.995,0.213,8.919,0.583
		l0.981,3.108C87.68,13.605,84.376,13.35,81.013,13.35z M26.698,40.711l-1.503-2.889c3.662-4.721,7.905-8.965,12.626-12.626
		l2.889,1.503C35.385,30.661,30.66,35.386,26.698,40.711z M22.708,115.29l-3.265,0.258c-2.898-5.147-5.177-10.686-6.718-16.523
		l2.533-2.092C16.842,103.472,19.375,109.641,22.708,115.29z M40.71,135.328l-2.889,1.503c-4.721-3.662-8.965-7.905-12.626-12.627
		l1.503-2.889C30.66,126.64,35.385,131.366,40.71,135.328z M81.013,148.676c3.363,0,6.667-0.255,9.9-0.731l-0.981,3.108
		c-2.924,0.37-5.896,0.583-8.919,0.583s-5.995-0.213-8.919-0.583l-0.98-3.108C74.346,148.421,77.65,148.676,81.013,148.676z
		 M135.328,121.314l1.503,2.89c-3.662,4.721-7.905,8.965-12.627,12.627l-2.889-1.504
		C126.641,131.365,131.366,126.64,135.328,121.314z M147.944,71.114l3.108,0.981c0.37,2.924,0.583,5.896,0.583,8.918
		s-0.213,5.995-0.583,8.92l-3.108,0.98c0.477-3.233,0.731-6.537,0.731-9.9C148.676,77.65,148.421,74.346,147.944,71.114z
		 M150.892,70.832l-3.155-0.996c-0.196-1.172-0.424-2.333-0.679-3.484l2.55-2.105C150.136,66.405,150.568,68.601,150.892,70.832z
		 M152.858,45.669l4.366,10.791l-6.952,5.738c-1.515-5.569-3.678-10.873-6.415-15.819L152.858,45.669z M141.943,45.37l-3.285,0.259
		c-0.813-1.32-1.68-2.603-2.578-3.86l1.533-2.947C139.178,40.916,140.615,43.107,141.943,45.37z M133.364,20.43l8.232,8.231
		l-4.181,8.036c-3.537-4.492-7.596-8.55-12.088-12.087L133.364,20.43z M123.204,24.413l-2.947,1.533
		c-0.953-0.681-1.925-1.338-2.913-1.97l0.316-3.312C119.569,21.828,121.419,23.079,123.204,24.413z M106.822,5.219l10.719,4.544
		l-0.86,9c-4.905-2.822-10.171-5.079-15.714-6.686L106.822,5.219z M98.918,12.696l-2.154,2.524c-1.507-0.36-3.03-0.673-4.573-0.93
		l-0.996-3.156C93.817,11.515,96.396,12.035,98.918,12.696z M75.192,1.157h11.642l2.715,8.603c-2.802-0.334-5.646-0.525-8.536-0.525
		s-5.734,0.191-8.535,0.525L75.192,1.157z M70.831,11.134l-0.996,3.156c-1.172,0.196-2.332,0.423-3.482,0.678l-2.105-2.551
		C66.405,11.89,68.6,11.458,70.831,11.134z M45.668,9.168L56.46,4.802l5.738,6.951c-5.57,1.515-10.874,3.678-15.82,6.415
		L45.668,9.168z M45.37,20.082l0.259,3.286c-1.32,0.813-2.603,1.679-3.861,2.578l-2.947-1.534
		C40.915,22.848,43.106,21.411,45.37,20.082z M20.43,28.662l8.232-8.232l8.035,4.18c-4.492,3.537-8.55,7.595-12.087,12.087
		L20.43,28.662z M24.412,38.822l1.533,2.947c-0.681,0.953-1.338,1.924-1.97,2.913l-3.312-0.316
		C21.827,42.457,23.078,40.607,24.412,38.822z M5.218,55.203l4.543-10.717l9.001,0.859c-2.822,4.906-5.079,10.171-6.686,15.714
		L5.218,55.203z M12.696,63.107l2.524,2.155c-0.36,1.506-0.672,3.03-0.93,4.572l-3.156,0.996
		C11.514,68.208,12.034,65.63,12.696,63.107z M1.157,86.833V75.192l8.602-2.715c-0.334,2.802-0.525,5.646-0.525,8.536
		s0.191,5.734,0.525,8.535L1.157,86.833z M11.134,91.195l3.156,0.995c0.196,1.173,0.423,2.333,0.678,3.484l-2.55,2.105
		C11.89,95.621,11.457,93.425,11.134,91.195z M9.167,116.357l-4.366-10.791l6.951-5.738c1.515,5.569,3.678,10.873,6.415,15.819
		L9.167,116.357z M20.082,116.656l3.286-0.259c0.813,1.319,1.679,2.603,2.578,3.86l-1.533,2.947
		C22.848,121.111,21.41,118.918,20.082,116.656z M28.661,141.596l-8.231-8.232l4.18-8.035c3.537,4.492,7.595,8.55,12.087,12.087
		L28.661,141.596z M38.821,137.614l2.947-1.534c0.954,0.682,1.925,1.339,2.914,1.972l-0.316,3.312
		C42.456,140.199,40.606,138.948,38.821,137.614z M55.202,156.808l-10.717-4.545l0.86-9c4.906,2.822,10.171,5.079,15.714,6.686
		L55.202,156.808z M63.107,149.331l2.155-2.524c1.506,0.36,3.03,0.673,4.573,0.931l0.996,3.155
		C68.208,150.511,65.629,149.992,63.107,149.331z M86.833,160.87H75.192l-2.715-8.603c2.801,0.334,5.646,0.525,8.536,0.525
		s5.734-0.191,8.536-0.525L86.833,160.87z M91.194,150.892l0.996-3.155c1.172-0.196,2.332-0.424,3.483-0.679l2.105,2.551
		C95.62,150.136,93.425,150.569,91.194,150.892z M116.357,152.859l-10.792,4.366l-5.739-6.951c5.57-1.515,10.874-3.679,15.821-6.416
		L116.357,152.859z M116.656,141.944l-0.26-3.285c1.32-0.813,2.604-1.68,3.861-2.579l2.947,1.533
		C121.111,139.178,118.919,140.615,116.656,141.944z M141.597,133.365l-8.232,8.231l-8.035-4.181
		c4.492-3.537,8.55-7.596,12.087-12.087L141.597,133.365z M137.613,123.204l-1.533-2.947c0.682-0.953,1.338-1.924,1.971-2.913
		l3.312,0.316C140.198,119.569,138.947,121.419,137.613,123.204z M156.808,106.823l-4.544,10.718l-9.001-0.859
		c2.822-4.906,5.079-10.171,6.687-15.714L156.808,106.823z M149.329,98.919l-2.523-2.155c0.36-1.506,0.673-3.03,0.931-4.573
		l3.155-0.996C150.511,93.819,149.991,96.397,149.329,98.919z"/>
	<linearGradient id="SVGID_2_" gradientUnits="userSpaceOnUse" x1="46.8291" y1="113.7104" x2="115.8291" y2="47.7104">
		<stop  offset="0" style="stop-color:#68CD52"/>
		<stop  offset="1" style="stop-color:#1A97D5"/>
	</linearGradient>
	<path fill="url(#SVGID_2_)" d="M81.013,27.816c-29.333,0-53.197,23.864-53.197,53.197S51.68,134.21,81.013,134.21
		s53.197-23.864,53.197-53.197S110.346,27.816,81.013,27.816z M81.013,133.21c-28.781,0-52.197-23.416-52.197-52.197
		c0-28.782,23.416-52.197,52.197-52.197s52.197,23.416,52.197,52.197C133.21,109.794,109.794,133.21,81.013,133.21z"/>
	<linearGradient id="SVGID_3_" gradientUnits="userSpaceOnUse" x1="46.8286" y1="113.7104" x2="115.8286" y2="47.7104">
		<stop  offset="0" style="stop-color:#68CD52"/>
		<stop  offset="1" style="stop-color:#1A97D5"/>
	</linearGradient>
	<path fill="url(#SVGID_3_)" d="M81.013,23.736c-31.583,0-57.277,25.694-57.277,57.277s25.694,57.277,57.277,57.277
		s57.277-25.694,57.277-57.277S112.596,23.736,81.013,23.736z M81.013,137.134c-30.945,0-56.121-25.176-56.121-56.121
		s25.176-56.121,56.121-56.121s56.121,25.176,56.121,56.121S111.958,137.134,81.013,137.134z"/>
	<linearGradient id="SVGID_4_" gradientUnits="userSpaceOnUse" x1="46.8291" y1="113.7104" x2="115.8291" y2="47.7104">
		<stop  offset="0" style="stop-color:#68CD52"/>
		<stop  offset="1" style="stop-color:#1A97D5"/>
	</linearGradient>
	<path fill="url(#SVGID_4_)" d="M81.013,30.786c-27.74,0-50.229,22.487-50.229,50.228c0,27.74,22.489,50.228,50.229,50.228
		c27.74,0,50.229-22.488,50.229-50.228C131.241,53.272,108.753,30.786,81.013,30.786z M86.513,85.226v39.064h-11V85.226H53.588
		l27.425-47.491l27.426,47.491H86.513z"/>
</g>
</svg>
