<?xml version="1.0" encoding="utf-8"?>
<!-- Generator: Adobe Illustrator 16.0.0, SVG Export Plug-In . SVG Version: 6.00 Build 0)  -->
<!DOCTYPE svg PUBLIC "-//W3C//DTD SVG 1.1//EN" "http://www.w3.org/Graphics/SVG/1.1/DTD/svg11.dtd">
<svg version="1.1" id="Layer_1" xmlns="http://www.w3.org/2000/svg" xmlns:xlink="http://www.w3.org/1999/xlink" x="0px" y="0px"
	 width="160.5px" height="160.5px" viewBox="0 0 160.5 160.5" enable-background="new 0 0 160.5 160.5" xml:space="preserve">
<g>
	<linearGradient id="SVGID_1_" gradientUnits="userSpaceOnUse" x1="71.1484" y1="93.5762" x2="99.1484" y2="52.5762">
		<stop  offset="0" style="stop-color:#68CD52"/>
		<stop  offset="1" style="stop-color:#1A97D5"/>
	</linearGradient>
	<path fill="url(#SVGID_1_)" d="M80.25,12.549c-37.33,0-67.701,30.371-67.701,67.701c0,37.33,30.371,67.701,67.701,67.701
		s67.701-30.371,67.701-67.701C147.951,42.919,117.58,12.549,80.25,12.549z M147.451,80.25c0,14.851-4.851,28.584-13.039,39.72
		L99.879,93.798l2.793-14.082h22.825c0,0.048-0.007,0.094-0.007,0.142c0,4.678,3.807,8.485,8.485,8.485s8.485-3.807,8.485-8.485
		c0-4.679-3.807-8.485-8.485-8.485c-4.462,0-8.122,3.464-8.453,7.843h-22.752l5.435-27.402c0-3.728-5.12-1.479-5.12-1.479
		l-8.535,3.349l5.403-9.62c0.039,0.024,0.076,0.052,0.116,0.075c1.287,0.739,2.746,1.129,4.221,1.129
		c3.034,0,5.855-1.632,7.365-4.259c2.289-3.983,0.97-9.059-2.919-11.448l4.548-7.797C133.662,33.319,147.451,55.198,147.451,80.25z
		 M79.724,113.433l0.138,0.001c4.403,0.073,7.925,3.716,7.851,8.118c-0.072,4.329-3.653,7.851-7.982,7.851l-0.136-0.001
		c-4.402-0.074-7.924-3.717-7.851-8.119C71.816,116.954,75.396,113.433,79.724,113.433z M37.301,53.378
		c1.963,0.834,3.483,2.383,4.281,4.361s0.777,4.148-0.057,6.112c-1.256,2.954-4.142,4.863-7.352,4.863
		c-1.074,0-2.125-0.215-3.122-0.639c-4.051-1.723-5.946-6.421-4.224-10.473c1.256-2.954,4.142-4.863,7.352-4.863
		C35.253,52.739,36.304,52.954,37.301,53.378z M41.984,64.046c0.887-2.086,0.909-4.392,0.061-6.494s-2.463-3.748-4.549-4.634
		c-0.043-0.019-0.087-0.03-0.131-0.048c9.305-14.623,25.17-23.35,42.493-23.35c5.881,0,11.636,1.008,17.113,2.988
		c-0.01,0.016-0.021,0.03-0.031,0.046c-1.129,1.965-1.426,4.253-0.834,6.441c0.535,1.981,1.744,3.66,3.425,4.798l-5.717,10.178
		L54.527,69.387L41.92,64.171C41.939,64.128,41.966,64.09,41.984,64.046z M108.275,29.858c3.818,2.194,5.14,7.084,2.946,10.902
		c-1.42,2.473-4.076,4.008-6.932,4.008c-1.388,0-2.761-0.368-3.972-1.063c-1.849-1.062-3.174-2.781-3.729-4.84
		c-0.557-2.059-0.277-4.212,0.785-6.062c1.421-2.473,4.076-4.009,6.931-4.009C105.692,28.795,107.065,29.163,108.275,29.858z
		 M125.99,79.858c0-4.403,3.582-7.985,7.985-7.985s7.985,3.582,7.985,7.985s-3.582,7.985-7.985,7.985S125.99,84.261,125.99,79.858z
		 M80.25,13.049c11.824,0,22.938,3.081,32.601,8.465l-4.549,7.8c-1.231-0.66-2.605-1.02-3.997-1.02c-2.84,0-5.48,1.443-7.046,3.783
		c-5.566-2.027-11.42-3.058-17.4-3.058c-17.531,0-33.586,8.849-42.976,23.672c-0.874-0.296-1.779-0.453-2.704-0.453
		c-3.411,0-6.477,2.028-7.812,5.167c-1.831,4.305,0.183,9.297,4.488,11.128c1.059,0.451,2.175,0.679,3.317,0.679
		c3.194,0,6.067-1.792,7.518-4.597l12.165,5.033l-13.053,5.122c0,0-2.946,1.009-2.714,2.87c0.232,1.861,2.638,2.714,2.638,2.714
		l15.666,5.275c0,0,1.605,5.262,3.129,10.239l-8.318,6.542l0,0l-24.214,18.747c-8.73-11.34-13.94-25.524-13.94-40.909
		C13.049,43.195,43.195,13.049,80.25,13.049z M80.25,147.451c-21.491,0-40.643-10.152-52.952-25.899l24.211-18.745l-0.198-0.256
		l0.201,0.255l8.167-6.423c1.035,3.378,2.006,6.535,2.377,7.708c0.927,2.945,1.675,3.015,1.675,3.015
		c0.87,0.376,1.659-0.221,1.659-0.221l10.122-9.234l4.096,3.141v12.147c-4.546,0.062-8.287,3.775-8.364,8.336
		c-0.078,4.678,3.665,8.548,8.342,8.627l0.145,0.001c4.6,0,8.405-3.742,8.482-8.343c0.077-4.598-3.539-8.406-8.105-8.61v-11.775
		l11.186,8.576c4.268,1.86,5.821-2.013,5.821-2.013l2.656-13.394l34.352,26.033C121.858,136.799,102.275,147.451,80.25,147.451z"/>
	<linearGradient id="SVGID_2_" gradientUnits="userSpaceOnUse" x1="71.1484" y1="93.5762" x2="99.1484" y2="52.5762">
		<stop  offset="0" style="stop-color:#68CD52"/>
		<stop  offset="1" style="stop-color:#1A97D5"/>
	</linearGradient>
	<path fill="url(#SVGID_2_)" d="M80.25,10.196c-38.627,0-70.053,31.426-70.053,70.054s31.426,70.054,70.053,70.054
		c38.628,0,70.054-31.426,70.054-70.054S118.878,10.196,80.25,10.196z M80.25,149.804c-38.352,0-69.553-31.202-69.553-69.554
		c0-38.353,31.202-69.554,69.553-69.554s69.554,31.202,69.554,69.554C149.804,118.602,118.602,149.804,80.25,149.804z"/>
	<linearGradient id="SVGID_3_" gradientUnits="userSpaceOnUse" x1="35.6406" y1="69.3267" x2="63.6406" y2="28.3267">
		<stop  offset="0" style="stop-color:#68CD52"/>
		<stop  offset="1" style="stop-color:#1A97D5"/>
	</linearGradient>
	<path fill="url(#SVGID_3_)" d="M3.722,104.475c1.532,4.844,3.54,9.566,5.969,14.036l0.439-0.238
		c-2.414-4.442-4.41-9.135-5.932-13.948L3.722,104.475z"/>
	<linearGradient id="SVGID_4_" gradientUnits="userSpaceOnUse" x1="5.2539" y1="48.5747" x2="33.2539" y2="7.5747">
		<stop  offset="0" style="stop-color:#68CD52"/>
		<stop  offset="1" style="stop-color:#1A97D5"/>
	</linearGradient>
	<path fill="url(#SVGID_4_)" d="M18.498,29.78l-0.387-0.316c-3.224,3.94-6.083,8.202-8.499,12.668l0.439,0.238
		C12.453,37.932,15.294,33.696,18.498,29.78z"/>
	<linearGradient id="SVGID_5_" gradientUnits="userSpaceOnUse" x1="9.124" y1="51.2178" x2="37.124" y2="10.2178">
		<stop  offset="0" style="stop-color:#68CD52"/>
		<stop  offset="1" style="stop-color:#1A97D5"/>
	</linearGradient>
	<path fill="url(#SVGID_5_)" d="M5.439,52.558L4.97,52.384c-1.764,4.765-3.078,9.726-3.903,14.745l0.493,0.081
		C2.381,62.222,3.686,57.292,5.439,52.558z"/>
	<linearGradient id="SVGID_6_" gradientUnits="userSpaceOnUse" x1="55.5371" y1="82.9141" x2="83.5371" y2="41.9141">
		<stop  offset="0" style="stop-color:#68CD52"/>
		<stop  offset="1" style="stop-color:#1A97D5"/>
	</linearGradient>
	<path fill="url(#SVGID_6_)" d="M16.139,127.691l-0.401,0.297c3.025,4.083,6.458,7.899,10.202,11.343l0.339-0.367
		C22.557,135.541,19.145,131.748,16.139,127.691z"/>
	<linearGradient id="SVGID_7_" gradientUnits="userSpaceOnUse" x1="19.5986" y1="58.3716" x2="47.5986" y2="17.3716">
		<stop  offset="0" style="stop-color:#68CD52"/>
		<stop  offset="1" style="stop-color:#1A97D5"/>
	</linearGradient>
	<path fill="url(#SVGID_7_)" d="M0.522,78.337l-0.5-0.012C0.007,78.965,0,79.606,0,80.25c0,4.46,0.369,8.932,1.096,13.291
		l0.493-0.082C0.867,89.127,0.5,84.683,0.5,80.25C0.5,79.61,0.507,78.973,0.522,78.337z"/>
	<linearGradient id="SVGID_8_" gradientUnits="userSpaceOnUse" x1="8.7422" y1="50.9575" x2="36.7422" y2="9.9575">
		<stop  offset="0" style="stop-color:#68CD52"/>
		<stop  offset="1" style="stop-color:#1A97D5"/>
	</linearGradient>
	<path fill="url(#SVGID_8_)" d="M38.223,12.46l-0.264-0.425c-4.314,2.68-8.397,5.79-12.136,9.242l0.339,0.367
		C29.878,18.213,33.936,15.124,38.223,12.46z"/>
	<linearGradient id="SVGID_9_" gradientUnits="userSpaceOnUse" x1="115.2285" y1="123.6797" x2="143.2285" y2="82.6797">
		<stop  offset="0" style="stop-color:#68CD52"/>
		<stop  offset="1" style="stop-color:#1A97D5"/>
	</linearGradient>
	<path fill="url(#SVGID_9_)" d="M159.698,68.863c-0.716-5.041-1.92-10.029-3.577-14.827l-0.473,0.163
		c1.647,4.768,2.843,9.725,3.556,14.734L159.698,68.863z"/>
	<linearGradient id="SVGID_10_" gradientUnits="userSpaceOnUse" x1="96.9951" y1="111.2275" x2="124.9951" y2="70.2275">
		<stop  offset="0" style="stop-color:#68CD52"/>
		<stop  offset="1" style="stop-color:#1A97D5"/>
	</linearGradient>
	<path fill="url(#SVGID_10_)" d="M151.708,43.69c-2.316-4.518-5.081-8.842-8.218-12.851l-0.395,0.308
		c3.117,3.984,5.865,8.281,8.167,12.771L151.708,43.69z"/>
	<linearGradient id="SVGID_11_" gradientUnits="userSpaceOnUse" x1="54.3633" y1="82.1133" x2="82.3633" y2="41.1133">
		<stop  offset="0" style="stop-color:#68CD52"/>
		<stop  offset="1" style="stop-color:#1A97D5"/>
	</linearGradient>
	<path fill="url(#SVGID_11_)" d="M114.195,7.511c-4.61-2.154-9.446-3.873-14.375-5.108l-0.121,0.485
		c4.897,1.228,9.703,2.935,14.285,5.076L114.195,7.511z"/>
	<linearGradient id="SVGID_12_" gradientUnits="userSpaceOnUse" x1="75.9551" y1="96.8594" x2="103.9551" y2="55.8594">
		<stop  offset="0" style="stop-color:#68CD52"/>
		<stop  offset="1" style="stop-color:#1A97D5"/>
	</linearGradient>
	<path fill="url(#SVGID_12_)" d="M135.959,22.487c-3.662-3.533-7.677-6.731-11.932-9.506l-0.273,0.419
		c4.229,2.757,8.218,5.936,11.857,9.446L135.959,22.487z"/>
	<linearGradient id="SVGID_13_" gradientUnits="userSpaceOnUse" x1="18.8467" y1="57.8579" x2="46.8467" y2="16.8579">
		<stop  offset="0" style="stop-color:#68CD52"/>
		<stop  offset="1" style="stop-color:#1A97D5"/>
	</linearGradient>
	<path fill="url(#SVGID_13_)" d="M62.492,2.484L62.38,1.997c-4.957,1.127-9.829,2.739-14.481,4.791l0.202,0.457
		C52.724,5.207,57.565,3.605,62.492,2.484z"/>
	<linearGradient id="SVGID_14_" gradientUnits="userSpaceOnUse" x1="34.6348" y1="68.6401" x2="62.6348" y2="27.6401">
		<stop  offset="0" style="stop-color:#68CD52"/>
		<stop  offset="1" style="stop-color:#1A97D5"/>
	</linearGradient>
	<path fill="url(#SVGID_14_)" d="M88.693,0.942l0.053-0.497c-5.031-0.531-10.22-0.584-15.251-0.164l0.042,0.498
		C78.536,0.361,83.693,0.416,88.693,0.942z"/>
	<linearGradient id="SVGID_15_" gradientUnits="userSpaceOnUse" x1="128.7109" y1="132.8867" x2="156.7109" y2="91.8867">
		<stop  offset="0" style="stop-color:#68CD52"/>
		<stop  offset="1" style="stop-color:#1A97D5"/>
	</linearGradient>
	<path fill="url(#SVGID_15_)" d="M160,80.081v0.169c0,5.073-0.479,10.15-1.425,15.09l0.49,0.094
		c0.952-4.97,1.435-10.078,1.435-15.184v-0.169H160z"/>
	<linearGradient id="SVGID_16_" gradientUnits="userSpaceOnUse" x1="135.9443" y1="137.8271" x2="163.9443" y2="96.8271">
		<stop  offset="0" style="stop-color:#68CD52"/>
		<stop  offset="1" style="stop-color:#1A97D5"/>
	</linearGradient>
	<path fill="url(#SVGID_16_)" d="M149.436,119.944l0.434,0.25c2.537-4.414,4.66-9.088,6.308-13.892l-0.473-0.162
		C154.066,110.914,151.957,115.559,149.436,119.944z"/>
	<linearGradient id="SVGID_17_" gradientUnits="userSpaceOnUse" x1="136.1074" y1="137.9385" x2="164.1074" y2="96.9385">
		<stop  offset="0" style="stop-color:#68CD52"/>
		<stop  offset="1" style="stop-color:#1A97D5"/>
	</linearGradient>
	<path fill="url(#SVGID_17_)" d="M132.792,140.246l0.33,0.377c3.822-3.351,7.346-7.083,10.471-11.094l-0.395-0.307
		C140.093,133.208,136.592,136.917,132.792,140.246z"/>
	<linearGradient id="SVGID_18_" gradientUnits="userSpaceOnUse" x1="77.1631" y1="97.6836" x2="105.1631" y2="56.6836">
		<stop  offset="0" style="stop-color:#68CD52"/>
		<stop  offset="1" style="stop-color:#1A97D5"/>
	</linearGradient>
	<path fill="url(#SVGID_18_)" d="M34.73,146.351c4.191,2.892,8.674,5.391,13.323,7.43l0.201-0.457
		c-4.621-2.026-9.075-4.511-13.24-7.385L34.73,146.351z"/>
	<linearGradient id="SVGID_19_" gradientUnits="userSpaceOnUse" x1="116.1162" y1="124.2861" x2="144.1162" y2="83.2861">
		<stop  offset="0" style="stop-color:#68CD52"/>
		<stop  offset="1" style="stop-color:#1A97D5"/>
	</linearGradient>
	<path fill="url(#SVGID_19_)" d="M84.886,159.866l0.029,0.5c5.09-0.292,10.162-1.069,15.075-2.312l-0.123-0.484
		C94.985,158.805,89.944,159.577,84.886,159.866z"/>
	<linearGradient id="SVGID_20_" gradientUnits="userSpaceOnUse" x1="98.1016" y1="111.9834" x2="126.1016" y2="70.9834">
		<stop  offset="0" style="stop-color:#68CD52"/>
		<stop  offset="1" style="stop-color:#1A97D5"/>
	</linearGradient>
	<path fill="url(#SVGID_20_)" d="M58.654,157.562c4.883,1.361,9.936,2.261,15.016,2.673l0.04-0.498
		c-5.049-0.409-10.069-1.304-14.921-2.657L58.654,157.562z"/>
	<linearGradient id="SVGID_21_" gradientUnits="userSpaceOnUse" x1="129.2637" y1="133.2646" x2="157.2637" y2="92.2646">
		<stop  offset="0" style="stop-color:#68CD52"/>
		<stop  offset="1" style="stop-color:#1A97D5"/>
	</linearGradient>
	<path fill="url(#SVGID_21_)" d="M110.481,154.07l0.189,0.463c4.699-1.927,9.24-4.317,13.497-7.106l-0.273-0.418
		C119.663,149.78,115.15,152.156,110.481,154.07z"/>
	<linearGradient id="SVGID_22_" gradientUnits="userSpaceOnUse" x1="107.6035" y1="118.4727" x2="135.6035" y2="77.4727">
		<stop  offset="0" style="stop-color:#68CD52"/>
		<stop  offset="1" style="stop-color:#1A97D5"/>
	</linearGradient>
	<path fill="url(#SVGID_22_)" d="M133.976,86.696c3.771,0,6.839-3.067,6.839-6.838c0-3.771-3.068-6.838-6.839-6.838
		s-6.839,3.067-6.839,6.838C127.137,83.629,130.205,86.696,133.976,86.696z M133.976,73.52c3.495,0,6.339,2.843,6.339,6.338
		s-2.844,6.338-6.339,6.338s-6.339-2.844-6.339-6.338S130.48,73.52,133.976,73.52z"/>
	<linearGradient id="SVGID_23_" gradientUnits="userSpaceOnUse" x1="67.3027" y1="90.9502" x2="95.3027" y2="49.9502">
		<stop  offset="0" style="stop-color:#68CD52"/>
		<stop  offset="1" style="stop-color:#1A97D5"/>
	</linearGradient>
	<path fill="url(#SVGID_23_)" d="M98.368,33.375c-1.878,3.269-0.746,7.458,2.522,9.336c1.037,0.595,2.213,0.91,3.401,0.91
		c2.443,0,4.718-1.315,5.936-3.432c1.878-3.271,0.746-7.458-2.523-9.336c-1.036-0.595-2.212-0.91-3.4-0.91
		C101.858,29.943,99.584,31.258,98.368,33.375z M109.794,39.94c-1.128,1.962-3.236,3.181-5.502,3.181
		c-1.102,0-2.191-0.292-3.151-0.844c-3.031-1.741-4.08-5.623-2.339-8.653c1.127-1.962,3.235-3.181,5.502-3.181
		c1.101,0,2.191,0.292,3.151,0.843C110.485,33.026,111.534,36.909,109.794,39.94z"/>
	<linearGradient id="SVGID_24_" gradientUnits="userSpaceOnUse" x1="30.6357" y1="65.9087" x2="58.6357" y2="24.9087">
		<stop  offset="0" style="stop-color:#68CD52"/>
		<stop  offset="1" style="stop-color:#1A97D5"/>
	</linearGradient>
	<path fill="url(#SVGID_24_)" d="M27.883,58.051c-1.474,3.47,0.148,7.493,3.617,8.969c0.854,0.363,1.752,0.547,2.672,0.547
		c2.749,0,5.221-1.635,6.296-4.165c0.715-1.681,0.732-3.539,0.049-5.233c-0.683-1.694-1.985-3.021-3.667-3.735
		c-0.854-0.363-1.753-0.547-2.673-0.547C31.43,53.886,28.958,55.521,27.883,58.051z M40.054,58.356
		c0.633,1.57,0.617,3.292-0.045,4.851c-0.997,2.345-3.288,3.86-5.836,3.86c-0.852,0-1.686-0.17-2.477-0.507
		c-3.215-1.368-4.719-5.097-3.353-8.313c0.997-2.345,3.288-3.86,5.836-3.86c0.853,0,1.686,0.171,2.478,0.507
		C38.214,55.556,39.421,56.786,40.054,58.356z"/>
	<linearGradient id="SVGID_25_" gradientUnits="userSpaceOnUse" x1="89.9639" y1="106.4258" x2="117.9639" y2="65.4258">
		<stop  offset="0" style="stop-color:#68CD52"/>
		<stop  offset="1" style="stop-color:#1A97D5"/>
	</linearGradient>
	<path fill="url(#SVGID_25_)" d="M79.613,128.255l0.116,0.001c3.708,0,6.774-3.017,6.836-6.725c0.063-3.769-2.951-6.888-6.721-6.951
		l-0.118-0.001c-3.707,0-6.773,3.016-6.835,6.724C72.828,125.072,75.843,128.191,79.613,128.255z M79.726,115.079l0.109,0.001
		c3.495,0.059,6.29,2.949,6.23,6.443c-0.058,3.437-2.899,6.232-6.336,6.232l-0.107-0.001c-3.495-0.059-6.29-2.95-6.231-6.444
		C73.448,117.875,76.291,115.079,79.726,115.079z"/>
	<linearGradient id="SVGID_26_" gradientUnits="userSpaceOnUse" x1="67.3027" y1="90.9502" x2="95.3027" y2="49.9502">
		<stop  offset="0" style="stop-color:#68CD52"/>
		<stop  offset="1" style="stop-color:#1A97D5"/>
	</linearGradient>
	<circle fill="url(#SVGID_26_)" cx="104.298" cy="36.781" r="5.824"/>
</g>
</svg>
