<?xml version="1.0" encoding="utf-8"?>
<!-- Generator: Adobe Illustrator 16.0.0, SVG Export Plug-In . SVG Version: 6.00 Build 0)  -->
<!DOCTYPE svg PUBLIC "-//W3C//DTD SVG 1.1//EN" "http://www.w3.org/Graphics/SVG/1.1/DTD/svg11.dtd">
<svg version="1.1" id="Layer_1" xmlns="http://www.w3.org/2000/svg" xmlns:xlink="http://www.w3.org/1999/xlink" x="0px" y="0px"
	 width="160.5px" height="160.5px" viewBox="0 0 160.5 160.5" enable-background="new 0 0 160.5 160.5" xml:space="preserve">
<linearGradient id="SVGID_1_" gradientUnits="userSpaceOnUse" x1="356.6797" y1="-301.0479" x2="384.6799" y2="-260.0475" gradientTransform="matrix(1 0 0 -1 -288.5 -209.5)">
	<stop  offset="0" style="stop-color:#68CD52"/>
	<stop  offset="1" style="stop-color:#1A97D5"/>
</linearGradient>
<path fill="url(#SVGID_1_)" d="M102.77,79.216l5.436-27.402c0-3.728-5.12-1.479-5.12-1.479L41.078,74.662
	c0,0-3.222,1.117-2.99,2.979c0.232,1.861,2.638,2.714,2.638,2.714l15.666,5.275c0,0,5.293,17.289,5.664,18.462
	c0.927,2.945,1.675,3.015,1.675,3.015c0.87,0.377,1.659-0.221,1.659-0.221l10.122-9.234l4.596,3.524l11.186,8.576
	c4.269,1.86,5.821-2.013,5.821-2.013l2.764-13.94L102.77,79.216z"/>
</svg>
