<?xml version="1.0" encoding="utf-8"?>
<!-- Generator: Adobe Illustrator 16.0.0, SVG Export Plug-In . SVG Version: 6.00 Build 0)  -->
<!DOCTYPE svg PUBLIC "-//W3C//DTD SVG 1.1//EN" "http://www.w3.org/Graphics/SVG/1.1/DTD/svg11.dtd">
<svg version="1.1" id="Layer_1" xmlns="http://www.w3.org/2000/svg" xmlns:xlink="http://www.w3.org/1999/xlink" x="0px" y="0px"
	 width="160.5px" height="160.5px" viewBox="0 0 160.5 160.5" enable-background="new 0 0 160.5 160.5" xml:space="preserve">
<g>
	
		<linearGradient id="SVGID_1_" gradientUnits="userSpaceOnUse" x1="359.6484" y1="-303.0767" x2="387.6487" y2="-262.0764" gradientTransform="matrix(1 0 0 -1 -288.5 -209.5)">
		<stop  offset="0" style="stop-color:#68CD52"/>
		<stop  offset="1" style="stop-color:#1A97D5"/>
	</linearGradient>
	<path fill="url(#SVGID_1_)" d="M80.25,12.549c-37.33,0-67.701,30.371-67.701,67.701s30.371,67.701,67.701,67.701
		s67.701-30.371,67.701-67.701C147.951,42.919,117.58,12.549,80.25,12.549z M80.618,77.917l19.335-33.853
		c0.039,0.024,0.076,0.052,0.115,0.075c1.287,0.739,2.746,1.129,4.222,1.129c3.034,0,5.854-1.632,7.364-4.259
		c2.289-3.983,0.971-9.059-2.918-11.448l4.548-7.797c20.378,11.555,34.167,33.434,34.167,58.486
		c0,14.852-4.852,28.584-13.039,39.721L81.69,79.978l1.56-0.12l42.247-0.142c0,0.048-0.007,0.094-0.007,0.142
		c0,4.678,3.807,8.485,8.484,8.485s8.485-3.807,8.485-8.485c0-4.679-3.808-8.485-8.485-8.485c-4.461,0-8.121,3.464-8.453,7.843
		l-42.174,0.142 M79.724,113.434h0.138c4.404,0.073,7.925,3.717,7.851,8.118c-0.072,4.329-3.652,7.851-7.982,7.851h-0.136
		c-4.402-0.074-7.924-3.717-7.851-8.119C71.816,116.954,75.396,113.434,79.724,113.434z M37.301,53.378
		c1.963,0.834,3.483,2.383,4.281,4.361c0.798,1.978,0.777,4.148-0.057,6.112c-1.256,2.954-4.142,4.863-7.352,4.863
		c-1.074,0-2.125-0.215-3.122-0.639c-4.051-1.723-5.946-6.421-4.224-10.473c1.256-2.954,4.142-4.863,7.352-4.863
		C35.253,52.739,36.304,52.954,37.301,53.378z M76.588,78.195L41.92,64.171c0.019-0.043,0.046-0.081,0.064-0.125
		c0.887-2.086,0.909-4.392,0.061-6.494c-0.848-2.102-2.463-3.748-4.549-4.634c-0.043-0.019-0.087-0.03-0.131-0.048
		c9.305-14.623,25.17-23.35,42.493-23.35c5.88,0,11.636,1.008,17.113,2.988c-0.01,0.016-0.021,0.03-0.031,0.046
		c-1.129,1.965-1.426,4.253-0.834,6.441c0.535,1.981,1.744,3.66,3.426,4.798L79.883,78.204 M108.275,29.858
		c3.817,2.194,5.14,7.084,2.945,10.902c-1.42,2.473-4.076,4.008-6.932,4.008c-1.389,0-2.762-0.368-3.973-1.063
		c-1.849-1.062-3.174-2.781-3.729-4.84c-0.557-2.059-0.277-4.212,0.785-6.062c1.421-2.473,4.076-4.009,6.932-4.009
		C105.691,28.795,107.064,29.163,108.275,29.858z M125.99,79.858c0-4.403,3.582-7.985,7.984-7.985c4.403,0,7.985,3.582,7.985,7.985
		s-3.582,7.985-7.985,7.985C129.572,87.843,125.99,84.261,125.99,79.858z M79.649,80.735L51.203,102.41l0,0l-24.214,18.747
		c-8.73-11.341-13.94-25.524-13.94-40.909c0-37.053,30.146-67.199,67.201-67.199c11.824,0,22.938,3.081,32.602,8.465l-4.55,7.8
		c-1.231-0.66-2.604-1.02-3.997-1.02c-2.84,0-5.479,1.443-7.046,3.783c-5.565-2.027-11.42-3.058-17.4-3.058
		c-17.531,0-33.586,8.849-42.976,23.672c-0.874-0.296-1.779-0.453-2.704-0.453c-3.411,0-6.477,2.028-7.812,5.167
		c-1.831,4.305,0.183,9.297,4.488,11.128c1.059,0.451,2.175,0.679,3.317,0.679c3.194,0,6.067-1.792,7.518-4.597l34.227,13.84
		 M56.392,85.629 M81.583,80.523l52.54,39.854c-12.266,16.422-31.848,27.074-53.873,27.074c-21.491,0-40.643-10.152-52.952-25.899
		l24.211-18.745l-0.198-0.256l0.201,0.256L79.807,81.25 M79.562,79.867l0.045,33.072c-4.546,0.062-8.287,3.774-8.364,8.336
		c-0.078,4.678,3.665,8.548,8.342,8.627h0.145c4.6,0,8.406-3.741,8.482-8.342c0.077-4.599-3.539-8.406-8.105-8.61l-0.045-32.7"/>
	
		<linearGradient id="SVGID_2_" gradientUnits="userSpaceOnUse" x1="359.6484" y1="-303.0767" x2="387.6486" y2="-262.0764" gradientTransform="matrix(1 0 0 -1 -288.5 -209.5)">
		<stop  offset="0" style="stop-color:#68CD52"/>
		<stop  offset="1" style="stop-color:#1A97D5"/>
	</linearGradient>
	<path fill="url(#SVGID_2_)" d="M80.25,10.196c-38.627,0-70.053,31.426-70.053,70.054s31.426,70.055,70.053,70.055
		c38.628,0,70.055-31.427,70.055-70.055S118.878,10.196,80.25,10.196z M80.25,149.805c-38.352,0-69.553-31.203-69.553-69.555
		c0-38.353,31.202-69.554,69.553-69.554c38.352,0,69.555,31.202,69.555,69.554C149.805,118.602,118.602,149.805,80.25,149.805z"/>
	
		<linearGradient id="SVGID_3_" gradientUnits="userSpaceOnUse" x1="324.1406" y1="-278.8252" x2="352.1406" y2="-237.8252" gradientTransform="matrix(1 0 0 -1 -288.5 -209.5)">
		<stop  offset="0" style="stop-color:#68CD52"/>
		<stop  offset="1" style="stop-color:#1A97D5"/>
	</linearGradient>
	<path fill="url(#SVGID_3_)" d="M3.722,104.475c1.532,4.844,3.54,9.566,5.969,14.036l0.439-0.237
		c-2.414-4.442-4.41-9.135-5.932-13.948L3.722,104.475z"/>
	
		<linearGradient id="SVGID_4_" gradientUnits="userSpaceOnUse" x1="293.7549" y1="-258.0723" x2="321.7531" y2="-217.0749" gradientTransform="matrix(1 0 0 -1 -288.5 -209.5)">
		<stop  offset="0" style="stop-color:#68CD52"/>
		<stop  offset="1" style="stop-color:#1A97D5"/>
	</linearGradient>
	<path fill="url(#SVGID_4_)" d="M18.498,29.78l-0.387-0.316c-3.224,3.94-6.083,8.202-8.499,12.668l0.439,0.238
		C12.453,37.932,15.294,33.696,18.498,29.78z"/>
	
		<linearGradient id="SVGID_5_" gradientUnits="userSpaceOnUse" x1="297.624" y1="-260.7168" x2="325.6221" y2="-219.7196" gradientTransform="matrix(1 0 0 -1 -288.5 -209.5)">
		<stop  offset="0" style="stop-color:#68CD52"/>
		<stop  offset="1" style="stop-color:#1A97D5"/>
	</linearGradient>
	<path fill="url(#SVGID_5_)" d="M5.439,52.558L4.97,52.384c-1.764,4.765-3.078,9.726-3.903,14.745L1.56,67.21
		C2.381,62.222,3.686,57.292,5.439,52.558z"/>
	
		<linearGradient id="SVGID_6_" gradientUnits="userSpaceOnUse" x1="344.0371" y1="-292.4141" x2="372.0371" y2="-251.4141" gradientTransform="matrix(1 0 0 -1 -288.5 -209.5)">
		<stop  offset="0" style="stop-color:#68CD52"/>
		<stop  offset="1" style="stop-color:#1A97D5"/>
	</linearGradient>
	<path fill="url(#SVGID_6_)" d="M16.139,127.691l-0.401,0.297c3.025,4.082,6.458,7.898,10.202,11.343l0.339-0.367
		C22.557,135.541,19.145,131.748,16.139,127.691z"/>
	
		<linearGradient id="SVGID_7_" gradientUnits="userSpaceOnUse" x1="308.0996" y1="-267.8691" x2="336.1018" y2="-226.8659" gradientTransform="matrix(1 0 0 -1 -288.5 -209.5)">
		<stop  offset="0" style="stop-color:#68CD52"/>
		<stop  offset="1" style="stop-color:#1A97D5"/>
	</linearGradient>
	<path fill="url(#SVGID_7_)" d="M0.522,78.337l-0.5-0.012C0.007,78.965,0,79.606,0,80.25c0,4.46,0.369,8.932,1.096,13.291
		l0.493-0.082C0.867,89.127,0.5,84.684,0.5,80.25C0.5,79.61,0.507,78.973,0.522,78.337z"/>
	
		<linearGradient id="SVGID_8_" gradientUnits="userSpaceOnUse" x1="297.2422" y1="-260.457" x2="325.2422" y2="-219.457" gradientTransform="matrix(1 0 0 -1 -288.5 -209.5)">
		<stop  offset="0" style="stop-color:#68CD52"/>
		<stop  offset="1" style="stop-color:#1A97D5"/>
	</linearGradient>
	<path fill="url(#SVGID_8_)" d="M38.223,12.46l-0.264-0.425c-4.314,2.68-8.397,5.79-12.136,9.242l0.339,0.367
		C29.878,18.213,33.936,15.124,38.223,12.46z"/>
	
		<linearGradient id="SVGID_9_" gradientUnits="userSpaceOnUse" x1="403.7256" y1="-333.1851" x2="431.7282" y2="-292.1813" gradientTransform="matrix(1 0 0 -1 -288.5 -209.5)">
		<stop  offset="0" style="stop-color:#68CD52"/>
		<stop  offset="1" style="stop-color:#1A97D5"/>
	</linearGradient>
	<path fill="url(#SVGID_9_)" d="M159.698,68.863c-0.716-5.041-1.921-10.029-3.577-14.827l-0.473,0.163
		c1.646,4.768,2.843,9.725,3.556,14.734L159.698,68.863z"/>
	
		<linearGradient id="SVGID_10_" gradientUnits="userSpaceOnUse" x1="385.4961" y1="-320.7261" x2="413.4961" y2="-279.7261" gradientTransform="matrix(1 0 0 -1 -288.5 -209.5)">
		<stop  offset="0" style="stop-color:#68CD52"/>
		<stop  offset="1" style="stop-color:#1A97D5"/>
	</linearGradient>
	<path fill="url(#SVGID_10_)" d="M151.708,43.69c-2.315-4.518-5.081-8.842-8.218-12.851l-0.395,0.308
		c3.116,3.984,5.864,8.281,8.166,12.771L151.708,43.69z"/>
	
		<linearGradient id="SVGID_11_" gradientUnits="userSpaceOnUse" x1="342.8643" y1="-291.6128" x2="370.8643" y2="-250.6128" gradientTransform="matrix(1 0 0 -1 -288.5 -209.5)">
		<stop  offset="0" style="stop-color:#68CD52"/>
		<stop  offset="1" style="stop-color:#1A97D5"/>
	</linearGradient>
	<path fill="url(#SVGID_11_)" d="M114.195,7.511c-4.61-2.154-9.446-3.873-14.375-5.108l-0.121,0.485
		c4.896,1.228,9.703,2.935,14.285,5.076L114.195,7.511z"/>
	
		<linearGradient id="SVGID_12_" gradientUnits="userSpaceOnUse" x1="364.4561" y1="-306.3584" x2="392.4561" y2="-265.3584" gradientTransform="matrix(1 0 0 -1 -288.5 -209.5)">
		<stop  offset="0" style="stop-color:#68CD52"/>
		<stop  offset="1" style="stop-color:#1A97D5"/>
	</linearGradient>
	<path fill="url(#SVGID_12_)" d="M135.959,22.487c-3.662-3.533-7.677-6.731-11.932-9.506l-0.273,0.419
		c4.229,2.757,8.219,5.936,11.857,9.446L135.959,22.487z"/>
	
		<linearGradient id="SVGID_13_" gradientUnits="userSpaceOnUse" x1="307.3477" y1="-267.3579" x2="335.3477" y2="-226.3579" gradientTransform="matrix(1 0 0 -1 -288.5 -209.5)">
		<stop  offset="0" style="stop-color:#68CD52"/>
		<stop  offset="1" style="stop-color:#1A97D5"/>
	</linearGradient>
	<path fill="url(#SVGID_13_)" d="M62.492,2.484L62.38,1.997c-4.957,1.127-9.829,2.739-14.481,4.791l0.202,0.457
		C52.724,5.207,57.565,3.605,62.492,2.484z"/>
	
		<linearGradient id="SVGID_14_" gradientUnits="userSpaceOnUse" x1="323.1406" y1="-278.1313" x2="351.1375" y2="-237.1359" gradientTransform="matrix(1 0 0 -1 -288.5 -209.5)">
		<stop  offset="0" style="stop-color:#68CD52"/>
		<stop  offset="1" style="stop-color:#1A97D5"/>
	</linearGradient>
	<path fill="url(#SVGID_14_)" d="M88.693,0.942l0.053-0.497c-5.031-0.531-10.22-0.584-15.251-0.164l0.042,0.498
		C78.536,0.361,83.693,0.416,88.693,0.942z"/>
	
		<linearGradient id="SVGID_15_" gradientUnits="userSpaceOnUse" x1="417.2109" y1="-342.3867" x2="445.2109" y2="-301.3867" gradientTransform="matrix(1 0 0 -1 -288.5 -209.5)">
		<stop  offset="0" style="stop-color:#68CD52"/>
		<stop  offset="1" style="stop-color:#1A97D5"/>
	</linearGradient>
	<path fill="url(#SVGID_15_)" d="M160,80.081v0.169c0,5.073-0.479,10.15-1.425,15.09l0.489,0.094
		c0.953-4.97,1.436-10.078,1.436-15.184v-0.169H160z"/>
	
		<linearGradient id="SVGID_16_" gradientUnits="userSpaceOnUse" x1="424.4453" y1="-347.3281" x2="452.4471" y2="-306.3255" gradientTransform="matrix(1 0 0 -1 -288.5 -209.5)">
		<stop  offset="0" style="stop-color:#68CD52"/>
		<stop  offset="1" style="stop-color:#1A97D5"/>
	</linearGradient>
	<path fill="url(#SVGID_16_)" d="M149.436,119.943l0.435,0.25c2.537-4.414,4.659-9.088,6.308-13.892l-0.473-0.161
		C154.066,110.914,151.957,115.559,149.436,119.943z"/>
	
		<linearGradient id="SVGID_17_" gradientUnits="userSpaceOnUse" x1="424.6094" y1="-347.4385" x2="452.6094" y2="-306.4385" gradientTransform="matrix(1 0 0 -1 -288.5 -209.5)">
		<stop  offset="0" style="stop-color:#68CD52"/>
		<stop  offset="1" style="stop-color:#1A97D5"/>
	</linearGradient>
	<path fill="url(#SVGID_17_)" d="M132.792,140.246l0.33,0.377c3.821-3.352,7.346-7.083,10.471-11.094l-0.395-0.307
		C140.093,133.208,136.592,136.917,132.792,140.246z"/>
	
		<linearGradient id="SVGID_18_" gradientUnits="userSpaceOnUse" x1="365.6641" y1="-307.1836" x2="393.6641" y2="-266.1836" gradientTransform="matrix(1 0 0 -1 -288.5 -209.5)">
		<stop  offset="0" style="stop-color:#68CD52"/>
		<stop  offset="1" style="stop-color:#1A97D5"/>
	</linearGradient>
	<path fill="url(#SVGID_18_)" d="M34.73,146.352c4.191,2.892,8.674,5.391,13.323,7.43l0.201-0.457
		c-4.621-2.026-9.075-4.512-13.24-7.385L34.73,146.352z"/>
	
		<linearGradient id="SVGID_19_" gradientUnits="userSpaceOnUse" x1="404.6152" y1="-333.7891" x2="432.6127" y2="-292.7928" gradientTransform="matrix(1 0 0 -1 -288.5 -209.5)">
		<stop  offset="0" style="stop-color:#68CD52"/>
		<stop  offset="1" style="stop-color:#1A97D5"/>
	</linearGradient>
	<path fill="url(#SVGID_19_)" d="M84.887,159.866l0.028,0.5c5.09-0.292,10.162-1.069,15.075-2.312l-0.123-0.484
		C94.984,158.805,89.943,159.577,84.887,159.866z"/>
	
		<linearGradient id="SVGID_20_" gradientUnits="userSpaceOnUse" x1="386.6084" y1="-321.4766" x2="414.6125" y2="-280.4706" gradientTransform="matrix(1 0 0 -1 -288.5 -209.5)">
		<stop  offset="0" style="stop-color:#68CD52"/>
		<stop  offset="1" style="stop-color:#1A97D5"/>
	</linearGradient>
	<path fill="url(#SVGID_20_)" d="M58.654,157.562c4.883,1.36,9.936,2.261,15.016,2.672l0.04-0.498
		c-5.049-0.408-10.069-1.303-14.921-2.656L58.654,157.562z"/>
	
		<linearGradient id="SVGID_21_" gradientUnits="userSpaceOnUse" x1="417.7646" y1="-342.7617" x2="445.7667" y2="-301.7588" gradientTransform="matrix(1 0 0 -1 -288.5 -209.5)">
		<stop  offset="0" style="stop-color:#68CD52"/>
		<stop  offset="1" style="stop-color:#1A97D5"/>
	</linearGradient>
	<path fill="url(#SVGID_21_)" d="M110.48,154.07l0.189,0.463c4.699-1.928,9.24-4.317,13.497-7.106l-0.272-0.418
		C119.663,149.779,115.15,152.156,110.48,154.07z"/>
	
		<linearGradient id="SVGID_22_" gradientUnits="userSpaceOnUse" x1="396.1035" y1="-327.9736" x2="424.1035" y2="-286.9736" gradientTransform="matrix(1 0 0 -1 -288.5 -209.5)">
		<stop  offset="0" style="stop-color:#68CD52"/>
		<stop  offset="1" style="stop-color:#1A97D5"/>
	</linearGradient>
	<path fill="url(#SVGID_22_)" d="M133.977,86.695c3.771,0,6.838-3.066,6.838-6.837s-3.067-6.838-6.838-6.838
		c-3.771,0-6.84,3.067-6.84,6.838S130.205,86.695,133.977,86.695z M133.977,73.52c3.494,0,6.338,2.843,6.338,6.338
		c0,3.496-2.844,6.337-6.338,6.337c-3.496,0-6.34-2.844-6.34-6.337S130.48,73.52,133.977,73.52z"/>
	
		<linearGradient id="SVGID_23_" gradientUnits="userSpaceOnUse" x1="355.8008" y1="-300.4536" x2="383.8028" y2="-259.4507" gradientTransform="matrix(1 0 0 -1 -288.5 -209.5)">
		<stop  offset="0" style="stop-color:#68CD52"/>
		<stop  offset="1" style="stop-color:#1A97D5"/>
	</linearGradient>
	<path fill="url(#SVGID_23_)" d="M98.368,33.375c-1.878,3.269-0.746,7.458,2.522,9.336c1.036,0.595,2.213,0.91,3.4,0.91
		c2.443,0,4.718-1.315,5.936-3.432c1.879-3.271,0.746-7.458-2.522-9.336c-1.036-0.595-2.212-0.91-3.399-0.91
		C101.857,29.943,99.584,31.258,98.368,33.375z M109.794,39.94c-1.128,1.962-3.235,3.181-5.502,3.181
		c-1.103,0-2.19-0.292-3.151-0.844c-3.031-1.741-4.08-5.623-2.339-8.653c1.128-1.962,3.235-3.181,5.503-3.181
		c1.1,0,2.19,0.292,3.15,0.843C110.484,33.026,111.534,36.909,109.794,39.94z"/>
	
		<linearGradient id="SVGID_24_" gradientUnits="userSpaceOnUse" x1="319.1357" y1="-275.4082" x2="347.1337" y2="-234.4111" gradientTransform="matrix(1 0 0 -1 -288.5 -209.5)">
		<stop  offset="0" style="stop-color:#68CD52"/>
		<stop  offset="1" style="stop-color:#1A97D5"/>
	</linearGradient>
	<path fill="url(#SVGID_24_)" d="M27.883,58.051c-1.474,3.47,0.148,7.493,3.617,8.969c0.854,0.363,1.752,0.547,2.672,0.547
		c2.749,0,5.221-1.635,6.296-4.165c0.715-1.681,0.732-3.539,0.049-5.233s-1.985-3.021-3.667-3.735
		c-0.854-0.363-1.753-0.547-2.673-0.547C31.43,53.886,28.958,55.521,27.883,58.051z M40.054,58.356
		c0.633,1.57,0.617,3.292-0.045,4.851c-0.997,2.345-3.288,3.86-5.836,3.86c-0.852,0-1.686-0.17-2.477-0.507
		c-3.215-1.368-4.719-5.097-3.353-8.313c0.997-2.345,3.288-3.86,5.836-3.86c0.853,0,1.686,0.171,2.478,0.507
		C38.214,55.556,39.421,56.786,40.054,58.356z"/>
	
		<linearGradient id="SVGID_25_" gradientUnits="userSpaceOnUse" x1="378.4658" y1="-315.9248" x2="406.4658" y2="-274.9248" gradientTransform="matrix(1 0 0 -1 -288.5 -209.5)">
		<stop  offset="0" style="stop-color:#68CD52"/>
		<stop  offset="1" style="stop-color:#1A97D5"/>
	</linearGradient>
	<path fill="url(#SVGID_25_)" d="M79.613,128.255l0.116,0.001c3.708,0,6.774-3.017,6.835-6.725c0.063-3.77-2.951-6.889-6.721-6.951
		l-0.118-0.001c-3.707,0-6.773,3.017-6.835,6.724C72.828,125.072,75.843,128.191,79.613,128.255z M79.726,115.079l0.109,0.001
		c3.495,0.059,6.29,2.949,6.229,6.443c-0.058,3.437-2.898,6.231-6.335,6.231l-0.107-0.001c-3.495-0.059-6.29-2.949-6.231-6.443
		C73.448,117.875,76.291,115.079,79.726,115.079z"/>
	
		<linearGradient id="SVGID_26_" gradientUnits="userSpaceOnUse" x1="355.7969" y1="-300.46" x2="383.8016" y2="-259.4531" gradientTransform="matrix(1 0 0 -1 -288.5 -209.5)">
		<stop  offset="0" style="stop-color:#68CD52"/>
		<stop  offset="1" style="stop-color:#1A97D5"/>
	</linearGradient>
	<circle fill="url(#SVGID_26_)" cx="104.298" cy="36.781" r="5.824"/>
</g>
</svg>
