<?xml version="1.0" encoding="utf-8"?>
<!-- Generator: Adobe Illustrator 16.0.0, SVG Export Plug-In . SVG Version: 6.00 Build 0)  -->
<!DOCTYPE svg PUBLIC "-//W3C//DTD SVG 1.1//EN" "http://www.w3.org/Graphics/SVG/1.1/DTD/svg11.dtd">
<svg version="1.1" id="Layer_1" xmlns="http://www.w3.org/2000/svg" xmlns:xlink="http://www.w3.org/1999/xlink" x="0px" y="0px"
	 width="120px" height="120px" viewBox="0 0 120 120" enable-background="new 0 0 120 120" xml:space="preserve">
<g>
	<path fill="#FFFFFF" d="M60,4.314c-30.53,0-55.368,24.906-55.368,55.52c0,30.614,24.838,55.521,55.368,55.521
		c30.529,0,55.367-24.906,55.367-55.521C115.367,29.22,90.529,4.314,60,4.314z M60,114.116c-29.849,0-54.132-24.352-54.132-54.282
		C5.868,29.904,30.151,5.553,60,5.553c29.848,0,54.132,24.351,54.132,54.281C114.132,89.765,89.848,114.116,60,114.116z"/>
	<path fill="#FFFFFF" d="M17.069,19.597l-0.902-0.846C11.01,24.28,6.988,30.636,4.214,37.641l1.148,0.458
		C8.08,31.237,12.018,25.013,17.069,19.597z"/>
	<path fill="#FFFFFF" d="M87.699,6.45C81.023,2.96,73.835,0.79,66.336,0l-0.128,1.232c7.344,0.773,14.382,2.898,20.92,6.316
		L87.699,6.45z"/>
	<path fill="#FFFFFF" d="M9.811,90.502l-1.055,0.646c3.923,6.442,8.954,12.028,14.953,16.604l0.748-0.986
		C18.581,102.283,13.653,96.812,9.811,90.502z"/>
	<path fill="#FFFFFF" d="M113.142,34.647l1.117-0.53c-3.22-6.814-7.637-12.899-13.128-18.087l-0.848,0.901
		C105.663,22.013,109.989,27.974,113.142,34.647z"/>
	<path fill="#FFFFFF" d="M50.072,1.745l-0.208-1.221c-7.42,1.266-14.453,3.893-20.903,7.811l0.64,1.06
		C35.918,5.558,42.805,2.984,50.072,1.745z"/>
	<path fill="#FFFFFF" d="M1.537,53.827l-1.229-0.125C0.104,55.725,0,57.788,0,59.834C0.001,65.32,0.737,70.757,2.188,75.99
		l1.191-0.331c-1.422-5.126-2.143-10.45-2.143-15.825C1.236,57.829,1.337,55.808,1.537,53.827z"/>
	<path fill="#FFFFFF" d="M63.762,118.643l0.077,1.236c7.534-0.478,14.805-2.343,21.61-5.543l-0.523-1.122
		C78.261,116.348,71.14,118.175,63.762,118.643z"/>
	<path fill="#FFFFFF" d="M119.185,49.888l-1.219,0.203c0.53,3.197,0.799,6.475,0.799,9.743c0,4.096-0.421,8.187-1.252,12.163
		l1.209,0.254c0.848-4.06,1.278-8.237,1.278-12.417C120,56.499,119.727,53.153,119.185,49.888z"/>
	<path fill="#FFFFFF" d="M38.075,115.856C45.057,118.606,52.434,120,60,120v-1.238c-7.411,0-14.636-1.366-21.474-4.059
		L38.075,115.856z"/>
	<path fill="#FFFFFF" d="M98.457,104.392l0.809,0.937c5.702-4.952,10.369-10.849,13.87-17.524l-1.093-0.576
		C108.614,93.766,104.043,99.541,98.457,104.392z"/>
	<path fill="#FFFFFF" d="M60.001,8.707c-28.115,0-50.988,22.936-50.988,51.127c0,28.192,22.874,51.128,50.988,51.128
		c28.113,0,50.986-22.936,50.986-51.128C110.987,31.643,88.114,8.707,60.001,8.707z M60.001,109.724
		c-27.434,0-49.753-22.381-49.753-49.89c0-27.508,22.319-49.888,49.753-49.888c27.433,0,49.751,22.38,49.751,49.888
		C109.752,87.343,87.434,109.724,60.001,109.724z"/>
	<path fill="#FFFFFF" d="M60,10.358c-27.206,0-49.34,22.194-49.34,49.476S32.794,109.311,60,109.311s49.34-22.195,49.34-49.477
		S87.206,10.358,60,10.358z M60,108.072c-26.525,0-48.105-21.639-48.105-48.238c0-26.598,21.58-48.237,48.105-48.237
		c26.525,0,48.104,21.639,48.104,48.237C108.104,86.434,86.525,108.072,60,108.072z"/>
	<path fill="#FFFFFF" d="M87.117,39.072H73.874v-1.908c0-3.057-2.471-5.535-5.52-5.535H53.977c-3.047,0-5.52,2.479-5.52,5.535v1.908
		H35.213c-1.13,0-2.05,0.922-2.05,2.056v35.323c0,1.134,0.92,2.056,2.05,2.056h51.904c1.13,0,2.051-0.922,2.051-2.056V41.128
		C89.168,39.994,88.247,39.072,87.117,39.072z M87.933,41.128v6.645L73.102,57.938l-12.69-17.627h26.706
		C87.566,40.311,87.933,40.678,87.933,41.128z M61.734,61.414l-8.597-6.712l10.527-7.755l8.274,11.494L61.734,61.414z
		 M34.398,68.506l17.704-13.042l8.167,6.377l-25.871,7.54V68.506z M49.083,66.391l6.276,10.877h-7.937l-12.066-6.876L49.083,66.391z
		 M50.728,37.062c0-1.928,1.556-3.488,3.479-3.488h13.917c1.922,0,3.479,1.561,3.479,3.488v2.011H50.728V37.062z M34.398,76.451
		v-5.181l10.525,5.997h-9.71C34.764,77.268,34.398,76.901,34.398,76.451z M87.117,77.268H69.402l4.1-18.103l14.431-9.892v27.178
		C87.933,76.901,87.566,77.268,87.117,77.268z"/>
</g>
</svg>
