<?xml version="1.0" encoding="utf-8"?>
<!-- Generator: Adobe Illustrator 16.0.0, SVG Export Plug-In . SVG Version: 6.00 Build 0)  -->
<!DOCTYPE svg PUBLIC "-//W3C//DTD SVG 1.1//EN" "http://www.w3.org/Graphics/SVG/1.1/DTD/svg11.dtd">
<svg version="1.1" id="Layer_1" xmlns="http://www.w3.org/2000/svg" xmlns:xlink="http://www.w3.org/1999/xlink" x="0px" y="0px"
	 width="120px" height="120px" viewBox="0 0 120 120" enable-background="new 0 0 120 120" xml:space="preserve">
<g>
	<path fill="#FFFFFF" d="M60,4.314c-30.53,0-55.369,24.906-55.369,55.52c0,30.614,24.839,55.521,55.369,55.521
		c30.529,0,55.367-24.906,55.367-55.521C115.367,29.22,90.529,4.314,60,4.314z M60,114.116c-29.85,0-54.134-24.352-54.134-54.282
		C5.866,29.904,30.15,5.553,60,5.553c29.848,0,54.132,24.351,54.132,54.281C114.132,89.765,89.848,114.116,60,114.116z"/>
	<path fill="#FFFFFF" d="M17.068,19.597l-0.902-0.846C11.01,24.28,6.988,30.636,4.214,37.641l1.148,0.458
		C8.079,31.237,12.018,25.013,17.068,19.597z"/>
	<path fill="#FFFFFF" d="M1.537,53.827l-1.229-0.125C0.104,55.725,0,57.788,0,59.834C0.001,65.32,0.736,70.757,2.188,75.99
		l1.191-0.331c-1.422-5.126-2.143-10.45-2.144-15.825C1.235,57.829,1.337,55.808,1.537,53.827z"/>
	<path fill="#FFFFFF" d="M87.699,6.45C81.023,2.96,73.835,0.79,66.336,0l-0.128,1.232c7.344,0.773,14.382,2.898,20.92,6.316
		L87.699,6.45z"/>
	<path fill="#FFFFFF" d="M113.142,34.647l1.117-0.53c-3.22-6.814-7.637-12.899-13.128-18.087l-0.848,0.901
		C105.663,22.013,109.989,27.974,113.142,34.647z"/>
	<path fill="#FFFFFF" d="M50.071,1.745l-0.207-1.221C42.443,1.79,35.411,4.417,28.961,8.334l0.64,1.06
		C35.918,5.558,42.805,2.984,50.071,1.745z"/>
	<path fill="#FFFFFF" d="M9.811,90.502l-1.055,0.646c3.923,6.442,8.954,12.028,14.953,16.604l0.748-0.986
		C18.58,102.283,13.652,96.812,9.811,90.502z"/>
	<path fill="#FFFFFF" d="M98.457,104.392l0.809,0.937c5.702-4.952,10.369-10.849,13.87-17.524l-1.093-0.576
		C108.614,93.766,104.043,99.541,98.457,104.392z"/>
	<path fill="#FFFFFF" d="M119.185,49.888l-1.219,0.203c0.53,3.198,0.799,6.475,0.799,9.743c0,4.096-0.421,8.187-1.252,12.163
		l1.209,0.254c0.848-4.06,1.278-8.237,1.278-12.417C120,56.499,119.727,53.153,119.185,49.888z"/>
	<path fill="#FFFFFF" d="M38.075,115.856C45.057,118.606,52.434,120,60,120v-1.238c-7.411,0-14.636-1.366-21.474-4.059
		L38.075,115.856z"/>
	<path fill="#FFFFFF" d="M63.762,118.643l0.077,1.236c7.534-0.478,14.805-2.343,21.61-5.543l-0.523-1.122
		C78.261,116.348,71.14,118.175,63.762,118.643z"/>
	<path fill="#FFFFFF" d="M60.001,8.707c-28.115,0-50.988,22.936-50.988,51.127c0,28.192,22.873,51.128,50.988,51.128
		c28.113,0,50.986-22.936,50.986-51.128C110.987,31.643,88.114,8.707,60.001,8.707z M60.001,109.724
		c-27.435,0-49.753-22.381-49.753-49.89c0-27.508,22.318-49.888,49.753-49.888c27.433,0,49.751,22.38,49.751,49.888
		C109.752,87.343,87.434,109.724,60.001,109.724z"/>
	<path fill="#FFFFFF" d="M60,10.358c-27.206,0-49.34,22.195-49.34,49.476c0,27.281,22.134,49.477,49.34,49.477
		s49.34-22.195,49.34-49.477C109.34,32.553,87.206,10.358,60,10.358z M60,108.072c-26.525,0-48.104-21.639-48.104-48.238
		c0-26.598,21.579-48.237,48.104-48.237s48.104,21.639,48.104,48.237C108.104,86.434,86.525,108.072,60,108.072z"/>
	<path fill="#FFFFFF" d="M59.999,26.799c-18.164,0-32.942,14.82-32.942,33.035c0,18.216,14.778,33.035,32.942,33.035
		c18.165,0,32.943-14.819,32.943-33.035C92.942,41.619,78.164,26.799,59.999,26.799z M62.835,91.496l-8.506-3.995L49.8,81.927
		l-0.618-8.052l-7.052-1.963l-9.626-0.515v-5.369l8.957-4.852l0.926-5.884l7.516-4.13l1.441-8.155l-6.897-4.438l1.082-7.012
		c4.342-2.244,9.259-3.519,14.471-3.519c0.654,0,1.304,0.027,1.949,0.066l3.191,5.302l9.882-1.566
		c1.093,0.592,2.143,1.251,3.153,1.963l-3.874,1.771l-2.676,3.2l-1.133,5.884l-1.691,2.787l-3.25,1.446v4.955l3.25,2.375
		l5.299-1.023l1.338-5.419l3.426-4.086l1.924,1.754V43.73l6.64,2.427l0.57,1.312L81.61,50.75l-5.558,6.606l-1.752,4.022l4.015,5.888
		l3.793,1.343l4.959,1.961l0.805,4.412C82.923,84.102,73.65,90.53,62.835,91.496z"/>
</g>
</svg>
