<?xml version="1.0" encoding="utf-8"?>
<!-- Generator: Adobe Illustrator 16.0.0, SVG Export Plug-In . SVG Version: 6.00 Build 0)  -->
<!DOCTYPE svg PUBLIC "-//W3C//DTD SVG 1.1//EN" "http://www.w3.org/Graphics/SVG/1.1/DTD/svg11.dtd">
<svg version="1.1" id="Layer_1" xmlns="http://www.w3.org/2000/svg" xmlns:xlink="http://www.w3.org/1999/xlink" x="0px" y="0px"
	 width="160px" height="160px" viewBox="-37 -37 160 160" enable-background="new -37 -37 160 160" xml:space="preserve">
<linearGradient id="SVGID_1_" gradientUnits="userSpaceOnUse" x1="-14.5449" y1="34.3604" x2="0.7051" y2="-10.3896">
	<stop  offset="0" style="stop-color:#73C054"/>
	<stop  offset="1" style="stop-color:#2097D4"/>
</linearGradient>
<path fill="url(#SVGID_1_)" d="M-25.836,67.513h0.002C-25.846,67.483-25.848,67.48-25.836,67.513z"/>
<linearGradient id="SVGID_2_" gradientUnits="userSpaceOnUse" x1="41.542" y1="53.4746" x2="56.792" y2="8.7246">
	<stop  offset="0" style="stop-color:#73C054"/>
	<stop  offset="1" style="stop-color:#2097D4"/>
</linearGradient>
<path fill="url(#SVGID_2_)" d="M27.195,76.494h13.096v-4.402h4.01v4.402h13.093v-4.479c10.068-0.68,16.525-7.275,16.525-16.988
	c0-6.751-3.913-12.679-9.469-14.866c4.454-1.997,8.299-6.625,8.299-13.733c0-7.224-4.756-14.874-15.355-16.011v-5.01H44.301v4.86
	h-4.01v-4.86H27.195v4.86h-4.951v61.824h4.951V76.494z M23.891,70.44V11.917h4.951V7.058h9.803v4.859h7.304V7.058h9.798v4.878
	l0.763,0.058c10.084,0.769,14.597,7.802,14.597,14.435c0,7.593-4.869,11.999-9.69,12.996l-4.474,0.923l4.514,0.7
	c6.166,0.959,10.817,6.968,10.817,13.98c0,8.999-6.176,15.035-15.73,15.378l-0.796,0.029v4.407h-9.8V70.44h-7.304v4.401h-9.801
	V70.44H23.891z"/>
<linearGradient id="SVGID_3_" gradientUnits="userSpaceOnUse" x1="38.2402" y1="52.3486" x2="53.4902" y2="7.5986">
	<stop  offset="0" style="stop-color:#73C054"/>
	<stop  offset="1" style="stop-color:#2097D4"/>
</linearGradient>
<path fill="url(#SVGID_3_)" d="M59.704,28.594c0-4.364-3.223-7.412-7.842-7.412H35.021v14.914h16.842
	C56.479,36.096,59.704,33.009,59.704,28.594z M36.669,22.834h15.193c3.705,0,6.196,2.317,6.196,5.76
	c0,3.554-2.434,5.849-6.196,5.849H36.669V22.834z"/>
<linearGradient id="SVGID_4_" gradientUnits="userSpaceOnUse" x1="46.2393" y1="55.0752" x2="61.4893" y2="10.3252">
	<stop  offset="0" style="stop-color:#73C054"/>
	<stop  offset="1" style="stop-color:#2097D4"/>
</linearGradient>
<path fill="url(#SVGID_4_)" d="M60.874,53.228c0-4.632-3.521-7.865-8.562-7.865H35.021v15.813h17.291
	C57.513,61.176,60.874,58.055,60.874,53.228z M36.669,47.014h15.643c4.776,0,6.917,3.119,6.917,6.212
	c0,3.946-2.586,6.299-6.917,6.299H36.669V47.014z"/>
</svg>
