<?xml version="1.0" encoding="utf-8"?>
<!-- Generator: Adobe Illustrator 16.0.0, SVG Export Plug-In . SVG Version: 6.00 Build 0)  -->
<!DOCTYPE svg PUBLIC "-//W3C//DTD SVG 1.1//EN" "http://www.w3.org/Graphics/SVG/1.1/DTD/svg11.dtd">
<svg version="1.1" id="Layer_1" xmlns="http://www.w3.org/2000/svg" xmlns:xlink="http://www.w3.org/1999/xlink" x="0px" y="0px"
	 width="160px" height="160px" viewBox="0 0 160 160" enable-background="new 0 0 160 160" xml:space="preserve">
<linearGradient id="SVGID_1_" gradientUnits="userSpaceOnUse" x1="330.4033" y1="-287.6465" x2="345.6533" y2="-242.8965" gradientTransform="matrix(1 0 0 -1 -288.5 -210)">
	<stop  offset="0" style="stop-color:#73C054"/>
	<stop  offset="1" style="stop-color:#2097D4"/>
</linearGradient>
<path fill="url(#SVGID_1_)" d="M52.349,67.479V21.5c-0.549,0-1.098,0-1.647,0v45.979c-1.263,0.363-2.195,1.516-2.195,2.899
	c0,1.67,1.353,3.029,3.018,3.029s3.019-1.358,3.019-3.029C54.544,68.995,53.612,67.842,52.349,67.479z M51.523,71.758
	c-0.756,0-1.372-0.618-1.372-1.376c0-0.759,0.616-1.375,1.372-1.375s1.373,0.616,1.373,1.375
	C52.896,71.14,52.28,71.758,51.523,71.758z"/>
<linearGradient id="SVGID_2_" gradientUnits="userSpaceOnUse" x1="410.6621" y1="-315.001" x2="425.9133" y2="-270.2474" gradientTransform="matrix(1 0 0 -1 -288.5 -210)">
	<stop  offset="0" style="stop-color:#73C054"/>
	<stop  offset="1" style="stop-color:#2097D4"/>
</linearGradient>
<path fill="url(#SVGID_2_)" d="M121.811,78.963c-0.359-1.265-1.51-2.201-2.891-2.201c-1.666,0-3.02,1.359-3.02,3.028
	s1.354,3.026,3.02,3.026c1.379,0,2.53-0.936,2.891-2.205H145.5c0-0.549,0-1.098,0-1.648H121.811z M118.92,81.166
	c-0.758,0-1.372-0.619-1.372-1.376c0-0.759,0.614-1.377,1.372-1.377c0.756,0,1.373,0.618,1.373,1.377
	C120.293,80.547,119.676,81.166,118.92,81.166z"/>
<linearGradient id="SVGID_3_" gradientUnits="userSpaceOnUse" x1="394.1641" y1="-309.375" x2="409.4141" y2="-264.625" gradientTransform="matrix(1 0 0 -1 -288.5 -210)">
	<stop  offset="0" style="stop-color:#73C054"/>
	<stop  offset="1" style="stop-color:#2097D4"/>
</linearGradient>
<path fill="url(#SVGID_3_)" d="M65.163,128.07c-1.404,0.371-2.448,1.643-2.448,3.16c0,1.81,1.468,3.278,3.273,3.278
	c1.804,0,3.27-1.47,3.27-3.278c0-1.519-1.043-2.789-2.448-3.16v-6.355h64.69c0-0.551,0-1.101,0-1.65H65.163V128.07z M67.612,131.232
	c0,0.896-0.729,1.625-1.624,1.625s-1.626-0.729-1.626-1.625c0.001-0.896,0.731-1.627,1.626-1.627S67.612,130.338,67.612,131.232z"/>
<linearGradient id="SVGID_4_" gradientUnits="userSpaceOnUse" x1="347.6025" y1="-293.5107" x2="362.853" y2="-248.7593" gradientTransform="matrix(1 0 0 -1 -288.5 -210)">
	<stop  offset="0" style="stop-color:#73C054"/>
	<stop  offset="1" style="stop-color:#2097D4"/>
</linearGradient>
<path fill="url(#SVGID_4_)" d="M81.002,31.829c2.127,0,3.857-1.738,3.857-3.874c0-1.851-1.303-3.396-3.035-3.776V1
	c-0.549,0-1.098,0-1.646,0v23.179c-1.734,0.38-3.041,1.926-3.041,3.776C77.137,30.089,78.872,31.829,81.002,31.829z M81,25.736
	c1.217,0,2.213,0.996,2.213,2.219c0,1.225-0.996,2.224-2.213,2.224c-1.223,0-2.216-0.999-2.216-2.222
	C78.784,26.735,79.777,25.736,81,25.736z"/>
<linearGradient id="SVGID_5_" gradientUnits="userSpaceOnUse" x1="314.4473" y1="-282.209" x2="329.6957" y2="-237.4634" gradientTransform="matrix(1 0 0 -1 -288.5 -210)">
	<stop  offset="0" style="stop-color:#73C054"/>
	<stop  offset="1" style="stop-color:#2097D4"/>
</linearGradient>
<path fill="url(#SVGID_5_)" d="M31.485,68.873c1.264-0.362,2.198-1.516,2.198-2.9c0-1.669-1.356-3.027-3.023-3.027
	c-1.665,0-3.02,1.358-3.02,3.027c0,1.382,0.932,2.538,2.198,2.9v8.25H16.5c0,0.55,0,1.102,0,1.65h14.985V68.873z M29.287,65.978
	c0-0.759,0.616-1.376,1.371-1.376c0.759,0,1.375,0.618,1.375,1.376c0,0.759-0.616,1.377-1.375,1.377
	C29.903,67.354,29.287,66.737,29.287,65.978z"/>
<linearGradient id="SVGID_6_" gradientUnits="userSpaceOnUse" x1="327.0195" y1="-286.4932" x2="342.2695" y2="-241.7432" gradientTransform="matrix(1 0 0 -1 -288.5 -210)">
	<stop  offset="0" style="stop-color:#73C054"/>
	<stop  offset="1" style="stop-color:#2097D4"/>
</linearGradient>
<path fill="url(#SVGID_6_)" d="M44.388,82.213c-2.359,0-4.279,1.922-4.279,4.29c0,2.08,1.488,3.82,3.455,4.206v13.801l-31.397,0.004
	c0.083,0.203,0.66,1.701,0.641,1.652h5.51c0.085,0.203,26.895-0.003,26.895-0.003V90.709c1.966-0.386,3.453-2.124,3.453-4.206
	C48.666,84.139,46.747,82.213,44.388,82.213z M44.389,89.145c-1.451,0-2.631-1.183-2.631-2.639c0-1.457,1.179-2.638,2.631-2.638
	c1.45,0,2.631,1.181,2.631,2.638C47.02,87.962,45.841,89.145,44.389,89.145z"/>
<linearGradient id="SVGID_7_" gradientUnits="userSpaceOnUse" x1="312.5195" y1="-279.7031" x2="328.532" y2="-232.7156" gradientTransform="matrix(1 0 0 -1 -288.5 -210)">
	<stop  offset="0" style="stop-color:#73C054"/>
	<stop  offset="1" style="stop-color:#2097D4"/>
</linearGradient>
<path fill="url(#SVGID_7_)" d="M12.164,104.514h0.002C12.154,104.482,12.152,104.48,12.164,104.514z"/>
</svg>
