<?xml version="1.0" encoding="utf-8"?>
<!-- Generator: Adobe Illustrator 16.0.0, SVG Export Plug-In . SVG Version: 6.00 Build 0)  -->
<!DOCTYPE svg PUBLIC "-//W3C//DTD SVG 1.1//EN" "http://www.w3.org/Graphics/SVG/1.1/DTD/svg11.dtd">
<svg version="1.1" id="Layer_1" xmlns="http://www.w3.org/2000/svg" xmlns:xlink="http://www.w3.org/1999/xlink" x="0px" y="0px"
	 width="86px" height="86px" viewBox="0 0 86 86" enable-background="new 0 0 86 86" xml:space="preserve">
<g>
	<linearGradient id="SVGID_1_" gradientUnits="userSpaceOnUse" x1="42.9995" y1="77.75" x2="42.9995" y2="10.2495">
		<stop  offset="0" style="stop-color:#73C054"/>
		<stop  offset="1" style="stop-color:#2097D4"/>
	</linearGradient>
	<path fill="url(#SVGID_1_)" d="M43.442,3.115V0h-0.885v3.115C20.88,3.354,3.319,21.099,3.319,42.887
		c0,21.938,17.8,39.786,39.681,39.786c21.88,0,39.68-17.848,39.68-39.786C82.68,21.099,65.118,3.354,43.442,3.115z M64.936,42.443
		c-0.194-0.68-0.812-1.183-1.554-1.183c-0.896,0-1.623,0.73-1.623,1.627c0,0.897,0.728,1.627,1.623,1.627
		c0.741,0,1.36-0.502,1.554-1.185h12.526c-0.101,8.019-2.936,15.384-7.614,21.205H34.488v4.304
		c-0.755,0.199-1.316,0.882-1.316,1.699c0,0.972,0.789,1.762,1.759,1.762s1.758-0.79,1.758-1.762c0-0.817-0.561-1.5-1.316-1.699
		v-3.416h33.733c-6.328,7.358-15.68,12.03-26.106,12.03c-13.972,0-26.021-8.383-31.43-20.389h12.194v-8.307
		c1.057-0.207,1.856-1.142,1.856-2.261c0-1.271-1.031-2.306-2.299-2.306c-1.268,0-2.3,1.034-2.3,2.306
		c0,1.119,0.8,2.054,1.857,2.261v7.418H11.178c-1.707-4.093-2.653-8.582-2.653-13.289c0-0.183,0.01-0.363,0.014-0.544h7.847v-5.322
		c0.679-0.195,1.181-0.815,1.181-1.559c0-0.897-0.729-1.627-1.625-1.627c-0.895,0-1.623,0.73-1.623,1.627
		c0,0.743,0.501,1.364,1.181,1.559v4.434H8.562c0.513-12.552,7.729-23.398,18.153-29.023v23.84c-0.679,0.195-1.18,0.815-1.18,1.558
		c0,0.898,0.727,1.628,1.622,1.628s1.623-0.73,1.623-1.628c0-0.743-0.501-1.363-1.18-1.558V11.977
		c4.514-2.27,9.589-3.574,14.958-3.643v4.662c-0.932,0.204-1.634,1.035-1.634,2.03c0,1.147,0.932,2.082,2.077,2.082
		c1.144,0,2.074-0.934,2.074-2.082c0-0.995-0.701-1.826-1.632-2.03V8.334C62.1,8.571,77.226,23.737,77.462,42.443H64.936z
		 M64.12,42.887c0,0.407-0.332,0.74-0.738,0.74c-0.407,0-0.737-0.333-0.737-0.74c0-0.408,0.33-0.74,0.737-0.74
		C63.788,42.147,64.12,42.479,64.12,42.887z M34.931,69.663c0.481,0,0.873,0.393,0.873,0.875c0,0.481-0.392,0.873-0.873,0.873
		c-0.481,0-0.874-0.392-0.874-0.873C34.058,70.056,34.45,69.663,34.931,69.663z M23.322,47.915c-0.78,0-1.415-0.636-1.415-1.418
		c0-0.783,0.634-1.418,1.415-1.418c0.779,0,1.414,0.635,1.414,1.418C24.736,47.279,24.102,47.915,23.322,47.915z M15.941,36.203
		c-0.406,0-0.737-0.332-0.737-0.74c0-0.408,0.331-0.74,0.737-0.74c0.408,0,0.739,0.332,0.739,0.74
		C16.68,35.871,16.349,36.203,15.941,36.203z M27.156,37.091c0.407,0,0.738,0.331,0.738,0.739s-0.331,0.74-0.738,0.74
		c-0.406,0-0.737-0.332-0.737-0.74S26.75,37.091,27.156,37.091z M43,13.833c0.655,0,1.189,0.535,1.189,1.193
		S43.655,16.221,43,16.221c-0.657,0-1.191-0.537-1.191-1.194S42.343,13.833,43,13.833z M42.557,7.446
		C23.263,7.686,7.64,23.487,7.64,42.887c0,4.698,0.923,9.182,2.587,13.289H9.909c-1.649-4.111-2.565-8.594-2.565-13.289
		C7.344,23.324,23.1,7.39,42.557,7.15V7.446z M10.599,57.064C16.065,69.574,28.528,78.341,43,78.341
		c19.498,0,35.359-15.905,35.359-35.454c0-19.4-15.623-35.201-34.917-35.441V7.15c19.457,0.24,35.213,16.174,35.213,35.737
		c0,19.711-15.996,35.749-35.655,35.749c-14.639,0-27.24-8.893-32.726-21.571H10.599z M42.557,4.002v2.26
		C22.612,6.502,6.459,22.834,6.459,42.887c0,4.687,0.892,9.167,2.499,13.289h-2.42c-1.509-4.148-2.333-8.624-2.333-13.289
		C4.204,21.588,21.369,4.242,42.557,4.002z M43,81.784c-16.404,0-30.452-10.266-36.116-24.72h2.424
		C14.845,70.245,27.861,79.524,43,79.524c20.147,0,36.54-16.436,36.54-36.637c0-20.053-16.153-36.385-36.098-36.625v-2.26
		c21.188,0.24,38.353,17.586,38.353,38.885C81.795,64.336,64.391,81.784,43,81.784z"/>
	<linearGradient id="SVGID_2_" gradientUnits="userSpaceOnUse" x1="7.626" y1="77.75" x2="7.626" y2="10.2495">
		<stop  offset="0" style="stop-color:#73C054"/>
		<stop  offset="1" style="stop-color:#2097D4"/>
	</linearGradient>
	<path fill="url(#SVGID_2_)" d="M12.232,14.054l-0.647-0.606C7.89,17.411,5.008,21.965,3.02,26.984l0.824,0.328
		C5.79,22.396,8.612,17.936,12.232,14.054z"/>
	<linearGradient id="SVGID_3_" gradientUnits="userSpaceOnUse" x1="1.2104" y1="77.75" x2="1.2104" y2="10.2495">
		<stop  offset="0" style="stop-color:#73C054"/>
		<stop  offset="1" style="stop-color:#2097D4"/>
	</linearGradient>
	<path fill="url(#SVGID_3_)" d="M1.102,38.582l-0.881-0.089C0.074,39.941,0,41.42,0,42.888c0,3.93,0.527,7.825,1.567,11.577
		l0.854-0.238c-1.019-3.674-1.536-7.49-1.536-11.338C0.885,41.45,0.958,40.001,1.102,38.582z"/>
	<linearGradient id="SVGID_4_" gradientUnits="userSpaceOnUse" x1="28.3203" y1="77.75" x2="28.3203" y2="10.2495">
		<stop  offset="0" style="stop-color:#73C054"/>
		<stop  offset="1" style="stop-color:#2097D4"/>
	</linearGradient>
	<path fill="url(#SVGID_4_)" d="M35.885,1.262l-0.148-0.875c-5.317,0.906-10.358,2.789-14.98,5.597l0.458,0.759
		C25.742,3.994,30.678,2.15,35.885,1.262z"/>
	<linearGradient id="SVGID_5_" gradientUnits="userSpaceOnUse" x1="76.8779" y1="77.75" x2="76.8779" y2="10.2495">
		<stop  offset="0" style="stop-color:#73C054"/>
		<stop  offset="1" style="stop-color:#2097D4"/>
	</linearGradient>
	<path fill="url(#SVGID_5_)" d="M81.084,24.839l0.802-0.379c-2.308-4.883-5.473-9.244-9.41-12.961l-0.605,0.646
		C75.725,15.786,78.825,20.057,81.084,24.839z"/>
	<linearGradient id="SVGID_6_" gradientUnits="userSpaceOnUse" x1="55.1499" y1="77.75" x2="55.1499" y2="10.2495">
		<stop  offset="0" style="stop-color:#73C054"/>
		<stop  offset="1" style="stop-color:#2097D4"/>
	</linearGradient>
	<path fill="url(#SVGID_6_)" d="M62.851,4.634c-4.784-2.501-9.936-4.056-15.31-4.622l-0.092,0.882
		c5.263,0.554,10.307,2.077,14.993,4.527L62.851,4.634z"/>
	<linearGradient id="SVGID_7_" gradientUnits="userSpaceOnUse" x1="11.9009" y1="77.75" x2="11.9009" y2="10.2495">
		<stop  offset="0" style="stop-color:#73C054"/>
		<stop  offset="1" style="stop-color:#2097D4"/>
	</linearGradient>
	<path fill="url(#SVGID_7_)" d="M7.031,64.861l-0.756,0.464c2.812,4.616,6.417,8.619,10.716,11.898l0.536-0.708
		C13.315,73.306,9.785,69.384,7.031,64.861z"/>
	<linearGradient id="SVGID_8_" gradientUnits="userSpaceOnUse" x1="75.8203" y1="77.75" x2="75.8203" y2="10.2495">
		<stop  offset="0" style="stop-color:#73C054"/>
		<stop  offset="1" style="stop-color:#2097D4"/>
	</linearGradient>
	<path fill="url(#SVGID_8_)" d="M70.561,74.816l0.578,0.67c4.086-3.548,7.432-7.771,9.941-12.557l-0.784-0.412
		C77.839,67.201,74.562,71.341,70.561,74.816z"/>
	<linearGradient id="SVGID_9_" gradientUnits="userSpaceOnUse" x1="85.1089" y1="77.75" x2="85.1089" y2="10.2495">
		<stop  offset="0" style="stop-color:#73C054"/>
		<stop  offset="1" style="stop-color:#2097D4"/>
	</linearGradient>
	<path fill="url(#SVGID_9_)" d="M85.415,35.761l-0.875,0.146c0.38,2.29,0.573,4.638,0.573,6.982c0,2.934-0.301,5.865-0.896,8.715
		l0.866,0.183C85.69,48.876,86,45.883,86,42.888C85.999,40.496,85.802,38.099,85.415,35.761z"/>
	<linearGradient id="SVGID_10_" gradientUnits="userSpaceOnUse" x1="35.1431" y1="77.75" x2="35.1431" y2="10.2495">
		<stop  offset="0" style="stop-color:#73C054"/>
		<stop  offset="1" style="stop-color:#2097D4"/>
	</linearGradient>
	<path fill="url(#SVGID_10_)" d="M27.287,83.031C32.291,85.001,37.577,86,43,86v-0.887c-5.311,0-10.489-0.979-15.39-2.909
		L27.287,83.031z"/>
	<linearGradient id="SVGID_11_" gradientUnits="userSpaceOnUse" x1="53.4663" y1="77.75" x2="53.4663" y2="10.2495">
		<stop  offset="0" style="stop-color:#73C054"/>
		<stop  offset="1" style="stop-color:#2097D4"/>
	</linearGradient>
	<path fill="url(#SVGID_11_)" d="M45.695,85.029l0.055,0.885c5.399-0.343,10.61-1.679,15.487-3.971l-0.375-0.806
		C56.086,83.385,50.981,84.693,45.695,85.029z"/>
	<linearGradient id="SVGID_12_" gradientUnits="userSpaceOnUse" x1="45.7314" y1="77.75" x2="45.7314" y2="10.2495">
		<stop  offset="0" style="stop-color:#73C054"/>
		<stop  offset="1" style="stop-color:#2097D4"/>
	</linearGradient>
	<path fill="url(#SVGID_12_)" d="M54.53,41.474c2.394-1.073,4.46-3.561,4.46-7.381c0-3.883-2.556-7.995-8.253-8.606v-2.693h-7.038
		v2.612h-2.155v-2.612h-7.039v2.612h-2.661v33.231h2.661v2.366h7.039v-2.366h2.155v2.366h7.038v-2.407
		c5.412-0.365,8.882-3.91,8.882-9.131C59.619,45.836,57.515,42.65,54.53,41.474z M50.28,57.73l-0.429,0.016v2.369h-5.267v-2.366
		h-3.926v2.366H35.39v-2.366h-2.661V26.293h2.661v-2.612h5.269v2.612h3.926v-2.612h5.267v2.622l0.41,0.031
		c5.419,0.413,7.845,4.194,7.845,7.759c0,4.081-2.617,6.449-5.209,6.985l-2.404,0.496l2.426,0.376
		c3.314,0.516,5.815,3.746,5.815,7.515C58.734,54.302,55.415,57.546,50.28,57.73z"/>
	<linearGradient id="SVGID_13_" gradientUnits="userSpaceOnUse" x1="45.3447" y1="77.75" x2="45.3447" y2="10.2495">
		<stop  offset="0" style="stop-color:#73C054"/>
		<stop  offset="1" style="stop-color:#2097D4"/>
	</linearGradient>
	<path fill="url(#SVGID_13_)" d="M51.979,35.257c0-2.346-1.733-3.984-4.216-3.984h-9.052v8.016h9.052
		C50.245,39.289,51.979,37.63,51.979,35.257z M39.597,32.161h8.166c1.992,0,3.331,1.245,3.331,3.096c0,1.91-1.308,3.144-3.331,3.144
		h-8.166V32.161z"/>
	<linearGradient id="SVGID_14_" gradientUnits="userSpaceOnUse" x1="45.6592" y1="77.75" x2="45.6592" y2="10.2495">
		<stop  offset="0" style="stop-color:#73C054"/>
		<stop  offset="1" style="stop-color:#2097D4"/>
	</linearGradient>
	<path fill="url(#SVGID_14_)" d="M48.005,44.27h-9.294v8.5h9.294c2.796,0,4.603-1.678,4.603-4.273
		C52.607,46.008,50.715,44.27,48.005,44.27z M48.005,51.882h-8.408v-6.725h8.408c2.567,0,3.717,1.677,3.717,3.339
		C51.722,50.617,50.333,51.882,48.005,51.882z"/>
</g>
</svg>
