<?xml version="1.0" encoding="utf-8"?>
<!-- Generator: Adobe Illustrator 16.0.0, SVG Export Plug-In . SVG Version: 6.00 Build 0)  -->
<!DOCTYPE svg PUBLIC "-//W3C//DTD SVG 1.1//EN" "http://www.w3.org/Graphics/SVG/1.1/DTD/svg11.dtd">
<svg version="1.1" id="Layer_1" xmlns="http://www.w3.org/2000/svg" xmlns:xlink="http://www.w3.org/1999/xlink" x="0px" y="0px"
	 width="160px" height="160px" viewBox="-37 -37 160 160" enable-background="new -37 -37 160 160" xml:space="preserve">
<linearGradient id="SVGID_1_" gradientUnits="userSpaceOnUse" x1="331.501" y1="-393.5112" x2="331.501" y2="-259.5565" gradientTransform="matrix(1 0 0 -1 -288.5 -284)">
	<stop  offset="0" style="stop-color:#73C054"/>
	<stop  offset="1" style="stop-color:#1E97D4"/>
</linearGradient>
<path fill="url(#SVGID_1_)" d="M43-31.25c-40.707,0-73.825,33.209-73.825,74.028c0,40.817,33.119,74.028,73.825,74.028
	c40.707,0,73.826-33.211,73.826-74.028C116.826,1.96,83.707-31.25,43-31.25z M43,115.155c-39.799,0-72.177-32.47-72.177-72.377
	c0-39.906,32.377-72.375,72.177-72.375c39.8,0,72.179,32.469,72.179,72.375C115.179,82.688,82.8,115.155,43,115.155z"/>
<linearGradient id="SVGID_2_" gradientUnits="userSpaceOnUse" x1="253.752" y1="-393.5112" x2="253.752" y2="-259.5579" gradientTransform="matrix(1 0 0 -1 -288.5 -284)">
	<stop  offset="0" style="stop-color:#73C054"/>
	<stop  offset="1" style="stop-color:#1E97D4"/>
</linearGradient>
<path fill="url(#SVGID_2_)" d="M-34.95,34.768l-1.639-0.166C-36.86,37.298-37,40.049-37,42.778c0,7.314,0.982,14.561,2.917,21.541
	l1.587-0.443c-1.896-6.835-2.856-13.936-2.856-21.098C-35.352,40.103-35.218,37.41-34.95,34.768z"/>
<linearGradient id="SVGID_3_" gradientUnits="userSpaceOnUse" x1="265.6895" y1="-393.5107" x2="265.6895" y2="-259.5577" gradientTransform="matrix(1 0 0 -1 -288.5 -284)">
	<stop  offset="0" style="stop-color:#73C054"/>
	<stop  offset="1" style="stop-color:#1E97D4"/>
</linearGradient>
<path fill="url(#SVGID_3_)" d="M-14.243-10.872l-1.202-1.127c-6.874,7.371-12.238,15.846-15.935,25.187l1.531,0.61
	C-26.226,4.65-20.976-3.651-14.243-10.872z"/>
<linearGradient id="SVGID_4_" gradientUnits="userSpaceOnUse" x1="273.6416" y1="-393.5093" x2="273.6416" y2="-259.57" gradientTransform="matrix(1 0 0 -1 -288.5 -284)">
	<stop  offset="0" style="stop-color:#73C054"/>
	<stop  offset="1" style="stop-color:#1E97D4"/>
</linearGradient>
<path fill="url(#SVGID_4_)" d="M-23.918,83.669l-1.407,0.86c5.231,8.591,11.938,16.04,19.937,22.137l0.997-1.315
	C-12.226,99.377-18.795,92.081-23.918,83.669z"/>
<linearGradient id="SVGID_5_" gradientUnits="userSpaceOnUse" x1="316.8828" y1="-393.5122" x2="316.8828" y2="-259.567" gradientTransform="matrix(1 0 0 -1 -288.5 -284)">
	<stop  offset="0" style="stop-color:#73C054"/>
	<stop  offset="1" style="stop-color:#1E97D4"/>
</linearGradient>
<path fill="url(#SVGID_5_)" d="M13.767,117.477C23.076,121.142,32.913,123,43,123v-1.653c-9.881,0-19.512-1.82-28.633-5.41
	L13.767,117.477z"/>
<linearGradient id="SVGID_6_" gradientUnits="userSpaceOnUse" x1="394.5312" y1="-393.5156" x2="394.5312" y2="-259.5571" gradientTransform="matrix(1 0 0 -1 -288.5 -284)">
	<stop  offset="0" style="stop-color:#73C054"/>
	<stop  offset="1" style="stop-color:#1E97D4"/>
</linearGradient>
<path fill="url(#SVGID_6_)" d="M113.857,9.195l1.49-0.707c-4.295-9.085-10.184-17.2-17.504-24.116l-1.13,1.202
	C103.887-7.651,109.655,0.296,113.857,9.195z"/>
<linearGradient id="SVGID_7_" gradientUnits="userSpaceOnUse" x1="354.1064" y1="-393.5127" x2="354.1064" y2="-259.5582" gradientTransform="matrix(1 0 0 -1 -288.5 -284)">
	<stop  offset="0" style="stop-color:#73C054"/>
	<stop  offset="1" style="stop-color:#1E97D4"/>
</linearGradient>
<path fill="url(#SVGID_7_)" d="M79.934-28.399C71.03-33.054,61.448-35.947,51.448-37l-0.171,1.643
	c9.791,1.031,19.176,3.864,27.889,8.423L79.934-28.399z"/>
<linearGradient id="SVGID_8_" gradientUnits="userSpaceOnUse" x1="304.1895" y1="-393.499" x2="304.1895" y2="-259.5573" gradientTransform="matrix(1 0 0 -1 -288.5 -284)">
	<stop  offset="0" style="stop-color:#73C054"/>
	<stop  offset="1" style="stop-color:#1E97D4"/>
</linearGradient>
<path fill="url(#SVGID_8_)" d="M29.762-34.674l-0.277-1.628c-9.892,1.688-19.271,5.191-27.87,10.413l0.852,1.414
	C10.893-29.592,20.076-33.022,29.762-34.674z"/>
<linearGradient id="SVGID_9_" gradientUnits="userSpaceOnUse" x1="409.8418" y1="-393.5142" x2="409.8418" y2="-259.5557" gradientTransform="matrix(1 0 0 -1 -288.5 -284)">
	<stop  offset="0" style="stop-color:#73C054"/>
	<stop  offset="1" style="stop-color:#1E97D4"/>
</linearGradient>
<path fill="url(#SVGID_9_)" d="M121.912,29.515l-1.627,0.272c0.707,4.26,1.065,8.633,1.065,12.991c0,5.458-0.56,10.914-1.668,16.218
	l1.613,0.338c1.13-5.413,1.704-10.983,1.704-16.556C123,38.329,122.631,33.867,121.912,29.515z"/>
<linearGradient id="SVGID_10_" gradientUnits="userSpaceOnUse" x1="350.9766" y1="-393.5112" x2="350.9766" y2="-259.5608" gradientTransform="matrix(1 0 0 -1 -288.5 -284)">
	<stop  offset="0" style="stop-color:#73C054"/>
	<stop  offset="1" style="stop-color:#1E97D4"/>
</linearGradient>
<path fill="url(#SVGID_10_)" d="M48.019,121.19l0.102,1.647c10.047-0.638,19.742-3.123,28.812-7.393l-0.697-1.497
	C67.35,118.131,57.854,120.565,48.019,121.19z"/>
<linearGradient id="SVGID_11_" gradientUnits="userSpaceOnUse" x1="392.5645" y1="-393.5098" x2="392.5645" y2="-259.5578" gradientTransform="matrix(1 0 0 -1 -288.5 -284)">
	<stop  offset="0" style="stop-color:#73C054"/>
	<stop  offset="1" style="stop-color:#1E97D4"/>
</linearGradient>
<path fill="url(#SVGID_11_)" d="M94.279,102.189l1.075,1.246c7.605-6.602,13.826-14.464,18.494-23.366l-1.457-0.769
	C107.82,88.021,101.725,95.72,94.279,102.189z"/>
<linearGradient id="SVGID_12_" gradientUnits="userSpaceOnUse" x1="331.5" y1="-393.5107" x2="331.5" y2="-259.5586" gradientTransform="matrix(1 0 0 -1 -288.5 -284)">
	<stop  offset="0" style="stop-color:#73C054"/>
	<stop  offset="1" style="stop-color:#1E97D4"/>
</linearGradient>
<path fill="url(#SVGID_12_)" d="M43-25.39c-37.486,0-67.983,30.58-67.983,68.168c0,37.587,30.497,68.169,67.983,68.169
	c37.485,0,67.983-30.582,67.983-68.169C110.983,5.189,80.485-25.39,43-25.39z M43,109.295c-36.579,0-66.334-29.838-66.334-66.517
	c0-36.677,29.755-66.517,66.334-66.517c36.577,0,66.334,29.84,66.334,66.517C109.334,79.457,79.577,109.295,43,109.295z"/>
<linearGradient id="SVGID_13_" gradientUnits="userSpaceOnUse" x1="331.502" y1="-393.5112" x2="331.502" y2="-259.558" gradientTransform="matrix(1 0 0 -1 -288.5 -284)">
	<stop  offset="0" style="stop-color:#73C054"/>
	<stop  offset="1" style="stop-color:#1E97D4"/>
</linearGradient>
<path fill="url(#SVGID_13_)" d="M43-23.188c-36.273,0-65.786,29.593-65.786,65.969c0,36.372,29.512,65.965,65.786,65.965
	c36.275,0,65.788-29.593,65.788-65.965C108.788,6.405,79.275-23.188,43-23.188z M43,107.094c-35.365,0-64.138-28.854-64.138-64.313
	c0-35.464,28.772-64.316,64.138-64.316c35.367,0,64.139,28.852,64.139,64.316C107.139,78.24,78.367,107.094,43,107.094z"/>
</svg>
