<?xml version="1.0" encoding="utf-8"?>
<!-- Generator: Adobe Illustrator 16.0.0, SVG Export Plug-In . SVG Version: 6.00 Build 0)  -->
<!DOCTYPE svg PUBLIC "-//W3C//DTD SVG 1.1//EN" "http://www.w3.org/Graphics/SVG/1.1/DTD/svg11.dtd">
<svg version="1.1" id="Layer_1" xmlns="http://www.w3.org/2000/svg" xmlns:xlink="http://www.w3.org/1999/xlink" x="0px" y="0px"
	 width="160px" height="160px" viewBox="0 0 160 160" enable-background="new 0 0 160 160" xml:space="preserve">
<g>
	<linearGradient id="SVGID_1_" gradientUnits="userSpaceOnUse" x1="54.2598" y1="72.584" x2="91.7598" y2="22.084">
		<stop  offset="0" style="stop-color:#68CD52"/>
		<stop  offset="1" style="stop-color:#1A97D5"/>
	</linearGradient>
	<path fill="url(#SVGID_1_)" d="M40,83.745V89h19v-6h-7.631c5.381-3,7.141-6.047,7.141-9.129c0-4.54-3.824-7.767-9.68-7.767
		c-3.147,0-6.938,1.063-9.544,3.841l3.723,4.545c1.726-1.457,3.554-2.334,5.957-2.334c1.455,0,2.472,0.679,2.472,1.763
		C51.438,75.613,51,76.461,40,83.745z"/>
	<linearGradient id="SVGID_2_" gradientUnits="userSpaceOnUse" x1="67.0596" y1="82.0889" x2="104.5596" y2="31.5889">
		<stop  offset="0" style="stop-color:#68CD52"/>
		<stop  offset="1" style="stop-color:#1A97D5"/>
	</linearGradient>
	<path fill="url(#SVGID_2_)" d="M70.252,66.129c-6.735,0-10.018,5.521-10.018,11.653c0,6.131,3.283,11.687,10.018,11.687
		c6.736,0,10.019-5.556,10.019-11.687C80.271,71.651,76.988,66.129,70.252,66.129z M70.252,83.439c-2.166,0-3.147-1.829-3.147-5.657
		s0.981-5.623,3.147-5.623c2.167,0,3.148,1.795,3.148,5.623S72.418,83.439,70.252,83.439z"/>
	<linearGradient id="SVGID_3_" gradientUnits="userSpaceOnUse" x1="80.4043" y1="91.998" x2="117.9043" y2="41.4981">
		<stop  offset="0" style="stop-color:#68CD52"/>
		<stop  offset="1" style="stop-color:#1A97D5"/>
	</linearGradient>
	<polygon fill="url(#SVGID_3_)" points="80.877,74.703 84.955,78.851 89,75.174 89,89 95,89 95,66 89.507,66 	"/>
	<linearGradient id="SVGID_4_" gradientUnits="userSpaceOnUse" x1="91.3828" y1="100.1504" x2="128.8828" y2="49.6504">
		<stop  offset="0" style="stop-color:#68CD52"/>
		<stop  offset="1" style="stop-color:#1A97D5"/>
	</linearGradient>
	<path fill="url(#SVGID_4_)" d="M117.937,83.033c0-2.439-1.761-4.54-4.332-5.623c2.368-0.983,3.959-2.576,3.959-5.218
		c0-4.437-5.043-6.063-9.68-6.063s-9.68,1.627-9.68,6.063c0,2.642,1.557,4.234,3.926,5.218c-2.571,1.083-4.298,3.183-4.298,5.623
		c0,4.606,5.043,6.436,10.052,6.436S117.937,87.64,117.937,83.033z M107.884,71.685c1.692,0,2.707,0.61,2.707,1.525
		c0,0.711-1.319,1.354-2.707,1.558c-1.387-0.204-2.741-0.847-2.741-1.558C105.143,72.295,106.157,71.685,107.884,71.685z
		 M104.771,82.254c0-0.881,1.657-1.558,3.113-1.762c1.422,0.204,3.114,0.881,3.114,1.762c0,0.949-1.253,1.659-3.114,1.659
		C105.955,83.913,104.771,83.203,104.771,82.254z"/>
	<linearGradient id="SVGID_5_" gradientUnits="userSpaceOnUse" x1="74.4561" y1="87.5811" x2="111.9561" y2="37.0811">
		<stop  offset="0" style="stop-color:#68CD52"/>
		<stop  offset="1" style="stop-color:#1A97D5"/>
	</linearGradient>
	<path fill="url(#SVGID_5_)" d="M80.001,12.521c-37.215,0-67.491,30.301-67.491,67.546c0,30.486,20.517,57.309,49.893,65.228
		l0.13-0.481c-29.159-7.86-49.524-34.485-49.524-64.747c0-36.97,30.053-67.047,66.993-67.047c36.939,0,66.99,30.077,66.99,67.047
		c0,28.954-18.433,54.532-45.868,63.648l0.157,0.474c27.64-9.185,46.21-34.953,46.21-64.122
		C147.49,42.822,117.215,12.521,80.001,12.521z"/>
	<linearGradient id="SVGID_6_" gradientUnits="userSpaceOnUse" x1="79.3789" y1="91.2373" x2="116.8789" y2="40.7373">
		<stop  offset="0" style="stop-color:#68CD52"/>
		<stop  offset="1" style="stop-color:#1A97D5"/>
	</linearGradient>
	<path fill="url(#SVGID_6_)" d="M130.975,80h8.973c0-33-26.892-59.928-59.947-59.928v8.979C108.107,29.051,130.975,52,130.975,80z"
		/>
	<linearGradient id="SVGID_7_" gradientUnits="userSpaceOnUse" x1="74.4336" y1="87.5645" x2="111.9336" y2="37.0645">
		<stop  offset="0" style="stop-color:#68CD52"/>
		<stop  offset="1" style="stop-color:#1A97D5"/>
	</linearGradient>
	<path fill="url(#SVGID_7_)" d="M80.001,10.173c-38.508,0-69.836,31.354-69.836,69.894c0,38.541,31.329,69.895,69.836,69.895
		s69.836-31.354,69.836-69.895C149.837,41.527,118.509,10.173,80.001,10.173z M80.001,149.463
		c-38.233,0-69.338-31.132-69.338-69.396c0-38.265,31.104-69.395,69.338-69.395c38.232,0,69.338,31.13,69.338,69.395
		C149.339,118.331,118.233,149.463,80.001,149.463z"/>
	<linearGradient id="SVGID_8_" gradientUnits="userSpaceOnUse" x1="37.0029" y1="59.7695" x2="74.5029" y2="9.2695">
		<stop  offset="0" style="stop-color:#68CD52"/>
		<stop  offset="1" style="stop-color:#1A97D5"/>
	</linearGradient>
	<path fill="url(#SVGID_8_)" d="M79.982,1C79.989,1,79.994,1,80,1c2.811,0,5.642-0.103,8.416,0.19l0.053-0.621
		C85.677,0.274,82.827,0,80,0c-0.006,0-0.011,0-0.017,0c-2.238,0-4.499,0.095-6.718,0.279l0.041,0.747
		C75.513,0.842,77.759,1,79.982,1z"/>
	<linearGradient id="SVGID_9_" gradientUnits="userSpaceOnUse" x1="22.2236" y1="48.7949" x2="59.7236" y2="-1.7051">
		<stop  offset="0" style="stop-color:#68CD52"/>
		<stop  offset="1" style="stop-color:#1A97D5"/>
	</linearGradient>
	<path fill="url(#SVGID_9_)" d="M62.295,2.479l-0.111-0.486c-4.94,1.124-9.796,2.732-14.436,4.78l0.202,0.456
		C52.561,5.195,57.386,3.596,62.295,2.479z"/>
	<linearGradient id="SVGID_10_" gradientUnits="userSpaceOnUse" x1="13.1758" y1="42.0762" x2="50.6758" y2="-8.4238">
		<stop  offset="0" style="stop-color:#68CD52"/>
		<stop  offset="1" style="stop-color:#1A97D5"/>
	</linearGradient>
	<path fill="url(#SVGID_10_)" d="M38.104,12.431l-0.263-0.424c-4.302,2.675-8.373,5.778-12.099,9.222l0.338,0.367
		C29.783,18.173,33.829,15.089,38.104,12.431z"/>
	<linearGradient id="SVGID_11_" gradientUnits="userSpaceOnUse" x1="10.709" y1="40.2446" x2="48.209" y2="-10.2554">
		<stop  offset="0" style="stop-color:#68CD52"/>
		<stop  offset="1" style="stop-color:#1A97D5"/>
	</linearGradient>
	<path fill="url(#SVGID_11_)" d="M18.44,29.713l-0.385-0.315c-3.214,3.931-6.064,8.183-8.471,12.64l0.438,0.237
		C12.414,37.847,15.247,33.621,18.44,29.713z"/>
	<linearGradient id="SVGID_12_" gradientUnits="userSpaceOnUse" x1="55.7109" y1="73.6616" x2="93.2109" y2="23.1616">
		<stop  offset="0" style="stop-color:#68CD52"/>
		<stop  offset="1" style="stop-color:#1A97D5"/>
	</linearGradient>
	<path fill="url(#SVGID_12_)" d="M113.84,7.494c-4.596-2.149-9.417-3.863-14.33-5.096l-0.121,0.484
		c4.882,1.224,9.673,2.928,14.24,5.063L113.84,7.494z"/>
	<linearGradient id="SVGID_13_" gradientUnits="userSpaceOnUse" x1="97.1279" y1="104.417" x2="134.6279" y2="53.917">
		<stop  offset="0" style="stop-color:#68CD52"/>
		<stop  offset="1" style="stop-color:#1A97D5"/>
	</linearGradient>
	<path fill="url(#SVGID_13_)" d="M151.235,43.589c-2.31-4.507-5.064-8.821-8.191-12.821l-0.394,0.308
		c3.106,3.975,5.847,8.261,8.142,12.742L151.235,43.589z"/>
	<linearGradient id="SVGID_14_" gradientUnits="userSpaceOnUse" x1="115.2432" y1="117.8682" x2="152.7432" y2="67.3682">
		<stop  offset="0" style="stop-color:#68CD52"/>
		<stop  offset="1" style="stop-color:#1A97D5"/>
	</linearGradient>
	<path fill="url(#SVGID_14_)" d="M159.201,68.705c-0.714-5.029-1.914-10.007-3.565-14.792l-0.473,0.163
		c1.644,4.756,2.835,9.702,3.545,14.7L159.201,68.705z"/>
	<linearGradient id="SVGID_15_" gradientUnits="userSpaceOnUse" x1="76.542" y1="89.1299" x2="114.042" y2="38.6299">
		<stop  offset="0" style="stop-color:#68CD52"/>
		<stop  offset="1" style="stop-color:#1A97D5"/>
	</linearGradient>
	<path fill="url(#SVGID_15_)" d="M135.536,22.435c-3.651-3.525-7.654-6.716-11.896-9.483l-0.271,0.417
		c4.214,2.751,8.191,5.922,11.82,9.426L135.536,22.435z"/>
	<linearGradient id="SVGID_16_" gradientUnits="userSpaceOnUse" x1="15.1973" y1="43.5771" x2="52.6973" y2="-6.9229">
		<stop  offset="0" style="stop-color:#68CD52"/>
		<stop  offset="1" style="stop-color:#1A97D5"/>
	</linearGradient>
	<path fill="url(#SVGID_16_)" d="M5.422,52.438l-0.467-0.173c-1.759,4.754-3.067,9.704-3.891,14.711l0.492,0.08
		C2.374,62.081,3.674,57.163,5.422,52.438z"/>
	<linearGradient id="SVGID_17_" gradientUnits="userSpaceOnUse" x1="136.7627" y1="133.8486" x2="174.2627" y2="83.3486">
		<stop  offset="0" style="stop-color:#68CD52"/>
		<stop  offset="1" style="stop-color:#1A97D5"/>
	</linearGradient>
	<path fill="url(#SVGID_17_)" d="M148.97,119.671l0.433,0.25c2.529-4.404,4.646-9.067,6.288-13.86l-0.471-0.161
		C153.587,110.661,151.484,115.295,148.97,119.671z"/>
	<linearGradient id="SVGID_18_" gradientUnits="userSpaceOnUse" x1="119.8525" y1="121.291" x2="157.3525" y2="70.791">
		<stop  offset="0" style="stop-color:#68CD52"/>
		<stop  offset="1" style="stop-color:#1A97D5"/>
	</linearGradient>
	<path fill="url(#SVGID_18_)" d="M84.621,159.502l0.03,0.498c5.073-0.291,10.13-1.066,15.027-2.307l-0.122-0.483
		C94.689,158.442,89.665,159.214,84.621,159.502z"/>
	<linearGradient id="SVGID_19_" gradientUnits="userSpaceOnUse" x1="137.7568" y1="134.5869" x2="175.2568" y2="84.0869">
		<stop  offset="0" style="stop-color:#68CD52"/>
		<stop  offset="1" style="stop-color:#1A97D5"/>
	</linearGradient>
	<path fill="url(#SVGID_19_)" d="M132.378,139.926l0.329,0.376c3.811-3.343,7.323-7.066,10.438-11.067l-0.394-0.307
		C139.656,132.904,136.167,136.605,132.378,139.926z"/>
	<linearGradient id="SVGID_20_" gradientUnits="userSpaceOnUse" x1="131.9229" y1="130.2549" x2="169.4229" y2="79.7549">
		<stop  offset="0" style="stop-color:#68CD52"/>
		<stop  offset="1" style="stop-color:#1A97D5"/>
	</linearGradient>
	<path fill="url(#SVGID_20_)" d="M110.139,153.718l0.188,0.463c4.685-1.924,9.211-4.309,13.455-7.091l-0.272-0.417
		C119.292,149.438,114.793,151.809,110.139,153.718z"/>
	<linearGradient id="SVGID_21_" gradientUnits="userSpaceOnUse" x1="128.8652" y1="127.9834" x2="166.3652" y2="77.4834">
		<stop  offset="0" style="stop-color:#68CD52"/>
		<stop  offset="1" style="stop-color:#1A97D5"/>
	</linearGradient>
	<path fill="url(#SVGID_21_)" d="M159.999,80H159l1,0.067c0,5.062-0.727,10.127-1.67,15.056l0.363,0.094
		c0.951-4.96,1.307-10.056,1.307-15.153L159.999,80z"/>
	<linearGradient id="SVGID_22_" gradientUnits="userSpaceOnUse" x1="26.0801" y1="51.6582" x2="63.5801" y2="1.1582">
		<stop  offset="0" style="stop-color:#68CD52"/>
		<stop  offset="1" style="stop-color:#1A97D5"/>
	</linearGradient>
	<path fill="url(#SVGID_22_)" d="M0.521,78.158l-0.499-0.011C0.008,78.784,0,79.425,0,80.067c0,4.448,0.368,8.909,1.093,13.261
		l0.492-0.082c-0.721-4.325-1.085-8.76-1.085-13.179C0.499,79.429,0.506,78.792,0.521,78.158z"/>
	<linearGradient id="SVGID_23_" gradientUnits="userSpaceOnUse" x1="42.1826" y1="63.6157" x2="79.6826" y2="13.1157">
		<stop  offset="0" style="stop-color:#68CD52"/>
		<stop  offset="1" style="stop-color:#1A97D5"/>
	</linearGradient>
	<path fill="url(#SVGID_23_)" d="M3.711,104.238c1.527,4.833,3.529,9.544,5.951,14.003l0.438-0.237
		c-2.406-4.431-4.396-9.114-5.914-13.915L3.711,104.238z"/>
	<linearGradient id="SVGID_24_" gradientUnits="userSpaceOnUse" x1="61.7842" y1="78.1719" x2="99.2842" y2="27.6719">
		<stop  offset="0" style="stop-color:#68CD52"/>
		<stop  offset="1" style="stop-color:#1A97D5"/>
	</linearGradient>
	<path fill="url(#SVGID_24_)" d="M16.089,127.4l-0.4,0.297c3.016,4.072,6.438,7.881,10.17,11.316l0.338-0.367
		C22.487,135.232,19.086,131.448,16.089,127.4z"/>
	<linearGradient id="SVGID_25_" gradientUnits="userSpaceOnUse" x1="82.7979" y1="93.7754" x2="120.2979" y2="43.2754">
		<stop  offset="0" style="stop-color:#68CD52"/>
		<stop  offset="1" style="stop-color:#1A97D5"/>
	</linearGradient>
	<path fill="url(#SVGID_25_)" d="M34.622,146.017c4.178,2.886,8.646,5.378,13.282,7.412l0.2-0.455
		c-4.606-2.021-9.047-4.501-13.199-7.367L34.622,146.017z"/>
	<linearGradient id="SVGID_26_" gradientUnits="userSpaceOnUse" x1="102.8672" y1="108.6787" x2="140.3672" y2="58.1787">
		<stop  offset="0" style="stop-color:#68CD52"/>
		<stop  offset="1" style="stop-color:#1A97D5"/>
	</linearGradient>
	<path fill="url(#SVGID_26_)" d="M58.471,157.202c4.869,1.358,9.905,2.256,14.969,2.667l0.041-0.497
		c-5.033-0.408-10.038-1.301-14.875-2.651L58.471,157.202z"/>
</g>
</svg>
