<?xml version="1.0" encoding="utf-8"?>
<!-- Generator: Adobe Illustrator 16.0.0, SVG Export Plug-In . SVG Version: 6.00 Build 0)  -->
<!DOCTYPE svg PUBLIC "-//W3C//DTD SVG 1.1//EN" "http://www.w3.org/Graphics/SVG/1.1/DTD/svg11.dtd">
<svg version="1.1" id="Layer_1" xmlns="http://www.w3.org/2000/svg" xmlns:xlink="http://www.w3.org/1999/xlink" x="0px" y="0px"
	 width="160px" height="160px" viewBox="0 0 160 160" enable-background="new 0 0 160 160" xml:space="preserve">
<g>
	<linearGradient id="SVGID_1_" gradientUnits="userSpaceOnUse" x1="57.9331" y1="65.0967" x2="75.9331" y2="36.0967">
		<stop  offset="0" style="stop-color:#68CD52"/>
		<stop  offset="1" style="stop-color:#1A97D5"/>
	</linearGradient>
	<path fill="url(#SVGID_1_)" d="M40.229,83.743v5.318h18.503V83.1h-7.367c5.398-3.557,7.164-6.098,7.164-9.18
		c0-4.539-3.836-7.791-9.71-7.791c-3.157,0-6.96,1.05-9.574,3.828l3.735,4.54c1.731-1.457,3.565-2.337,5.975-2.337
		c1.46,0,2.614,0.677,2.614,1.761C51.568,75.613,50.583,76.46,40.229,83.743z"/>
	<linearGradient id="SVGID_2_" gradientUnits="userSpaceOnUse" x1="72.5522" y1="74.1704" x2="90.5522" y2="45.1704">
		<stop  offset="0" style="stop-color:#68CD52"/>
		<stop  offset="1" style="stop-color:#1A97D5"/>
	</linearGradient>
	<path fill="url(#SVGID_2_)" d="M70.307,66.129c-6.756,0-10.049,5.521-10.049,11.652c0,6.132,3.293,11.687,10.049,11.687
		c6.756,0,10.05-5.555,10.05-11.687C80.356,71.65,77.062,66.129,70.307,66.129z M70.307,83.438c-2.173,0-3.158-1.829-3.158-5.657
		c0-3.828,0.985-5.623,3.158-5.623s3.157,1.795,3.157,5.623C73.464,81.609,72.479,83.438,70.307,83.438z"/>
	<linearGradient id="SVGID_3_" gradientUnits="userSpaceOnUse" x1="87.3906" y1="83.3809" x2="105.3906" y2="54.3809">
		<stop  offset="0" style="stop-color:#68CD52"/>
		<stop  offset="1" style="stop-color:#1A97D5"/>
	</linearGradient>
	<polygon fill="url(#SVGID_3_)" points="95.529,89.062 95.529,66.468 89.622,66.468 80.965,74.937 84.835,78.967 88.672,75.173 
		88.672,89.062 	"/>
	<linearGradient id="SVGID_4_" gradientUnits="userSpaceOnUse" x1="99.2344" y1="90.7314" x2="117.2344" y2="61.7314">
		<stop  offset="0" style="stop-color:#68CD52"/>
		<stop  offset="1" style="stop-color:#1A97D5"/>
	</linearGradient>
	<path fill="url(#SVGID_4_)" d="M106.086,83.404c-1.664,0-2.886-0.305-4.176-1.219l-2.886,5.284c1.799,1.22,4.481,1.964,7.062,1.964
		c7.027,0,11.883-4.132,11.883-11.686c0-6.605-3.361-11.652-10.797-11.652c-5.364,0-9.404,3.218-9.404,8.13
		c0,4.809,3.938,7.486,8.013,7.486c2.071,0,4.108-0.813,5.263-2.303c0,0.034,0,0.067,0,0.101
		C111.043,81.711,108.972,83.404,106.086,83.404z M107.885,75.918c-1.357,0-3.157-0.509-3.157-1.965
		c0-0.948,1.154-1.829,2.852-1.829c2.411,0,3.361,1.355,3.497,2.879C110.16,75.715,109.039,75.918,107.885,75.918z"/>
	<linearGradient id="SVGID_5_" gradientUnits="userSpaceOnUse" x1="92.6523" y1="86.6465" x2="110.6523" y2="57.6465">
		<stop  offset="0" style="stop-color:#68CD52"/>
		<stop  offset="1" style="stop-color:#1A97D5"/>
	</linearGradient>
	<path fill="url(#SVGID_5_)" d="M140.133,80.066c0-33.082-26.975-59.997-60.133-59.997v8.979c28.195,0,51.133,22.887,51.133,51.017
		c0,28.131-22.938,51.018-51.133,51.018v8.979C113.158,140.063,140.133,113.148,140.133,80.066z"/>
	<linearGradient id="SVGID_6_" gradientUnits="userSpaceOnUse" x1="80.5698" y1="79.147" x2="98.5698" y2="50.147">
		<stop  offset="0" style="stop-color:#68CD52"/>
		<stop  offset="1" style="stop-color:#1A97D5"/>
	</linearGradient>
	<path fill="url(#SVGID_6_)" d="M80,10.171c-38.628,0-70.054,31.355-70.054,69.895S41.372,149.961,80,149.961
		s70.054-31.354,70.054-69.895S118.628,10.171,80,10.171z M80,149.462c-38.352,0-69.554-31.131-69.554-69.396
		C10.446,41.801,41.648,10.67,80,10.67c38.352,0,69.554,31.13,69.554,69.396C149.554,118.331,118.352,149.462,80,149.462z"/>
	<linearGradient id="SVGID_7_" gradientUnits="userSpaceOnUse" x1="12.9253" y1="37.1606" x2="30.9253" y2="8.1606">
		<stop  offset="0" style="stop-color:#68CD52"/>
		<stop  offset="1" style="stop-color:#1A97D5"/>
	</linearGradient>
	<path fill="url(#SVGID_7_)" d="M18.248,29.711l-0.387-0.316c-3.224,3.931-6.083,8.184-8.499,12.64l0.439,0.238
		C12.203,37.844,15.044,33.618,18.248,29.711z"/>
	<linearGradient id="SVGID_8_" gradientUnits="userSpaceOnUse" x1="17.4204" y1="39.9507" x2="35.4204" y2="10.9507">
		<stop  offset="0" style="stop-color:#68CD52"/>
		<stop  offset="1" style="stop-color:#1A97D5"/>
	</linearGradient>
	<path fill="url(#SVGID_8_)" d="M37.973,12.43l-0.264-0.424c-4.314,2.675-8.398,5.777-12.136,9.221l0.339,0.367
		C29.627,18.172,33.685,15.088,37.973,12.43z"/>
	<linearGradient id="SVGID_9_" gradientUnits="userSpaceOnUse" x1="15.8521" y1="38.9771" x2="33.8521" y2="9.9771">
		<stop  offset="0" style="stop-color:#68CD52"/>
		<stop  offset="1" style="stop-color:#1A97D5"/>
	</linearGradient>
	<path fill="url(#SVGID_9_)" d="M5.189,52.437L4.72,52.264c-1.764,4.753-3.078,9.703-3.903,14.711l0.493,0.081
		C2.131,62.08,3.436,57.161,5.189,52.437z"/>
	<linearGradient id="SVGID_10_" gradientUnits="userSpaceOnUse" x1="128.0928" y1="108.6436" x2="146.0928" y2="79.6436">
		<stop  offset="0" style="stop-color:#68CD52"/>
		<stop  offset="1" style="stop-color:#1A97D5"/>
	</linearGradient>
	<path fill="url(#SVGID_10_)" d="M159.448,68.704c-0.716-5.029-1.92-10.007-3.577-14.793l-0.473,0.163
		c1.647,4.757,2.843,9.703,3.556,14.7L159.448,68.704z"/>
	<linearGradient id="SVGID_11_" gradientUnits="userSpaceOnUse" x1="25.7427" y1="45.1167" x2="43.7427" y2="16.1167">
		<stop  offset="0" style="stop-color:#68CD52"/>
		<stop  offset="1" style="stop-color:#1A97D5"/>
	</linearGradient>
	<path fill="url(#SVGID_11_)" d="M0.272,78.158l-0.5-0.012c-0.015,0.638-0.022,1.278-0.022,1.92c0,4.449,0.369,8.911,1.096,13.261
		l0.493-0.082C0.617,88.923,0.25,84.489,0.25,80.066C0.25,79.428,0.257,78.792,0.272,78.158z"/>
	<linearGradient id="SVGID_12_" gradientUnits="userSpaceOnUse" x1="45.5757" y1="57.4263" x2="63.5757" y2="28.4263">
		<stop  offset="0" style="stop-color:#68CD52"/>
		<stop  offset="1" style="stop-color:#1A97D5"/>
	</linearGradient>
	<path fill="url(#SVGID_12_)" d="M88.442,0.938l0.053-0.496C83.463-0.086,78.28-0.141,73.244,0.278l0.041,0.497
		C78.294,0.359,83.441,0.415,88.442,0.938z"/>
	<linearGradient id="SVGID_13_" gradientUnits="userSpaceOnUse" x1="88.5273" y1="84.0859" x2="106.5273" y2="55.0859">
		<stop  offset="0" style="stop-color:#68CD52"/>
		<stop  offset="1" style="stop-color:#1A97D5"/>
	</linearGradient>
	<path fill="url(#SVGID_13_)" d="M135.71,22.435c-3.662-3.525-7.677-6.716-11.932-9.484l-0.273,0.418
		c4.229,2.751,8.218,5.922,11.857,9.425L135.71,22.435z"/>
	<linearGradient id="SVGID_14_" gradientUnits="userSpaceOnUse" x1="109.8975" y1="97.3496" x2="127.8975" y2="68.3496">
		<stop  offset="0" style="stop-color:#68CD52"/>
		<stop  offset="1" style="stop-color:#1A97D5"/>
	</linearGradient>
	<path fill="url(#SVGID_14_)" d="M151.457,43.589c-2.316-4.508-5.081-8.822-8.218-12.821l-0.395,0.307
		c3.117,3.975,5.865,8.262,8.167,12.742L151.457,43.589z"/>
	<linearGradient id="SVGID_15_" gradientUnits="userSpaceOnUse" x1="66.2524" y1="70.2598" x2="84.2524" y2="41.2598">
		<stop  offset="0" style="stop-color:#68CD52"/>
		<stop  offset="1" style="stop-color:#1A97D5"/>
	</linearGradient>
	<path fill="url(#SVGID_15_)" d="M113.945,7.493c-4.61-2.149-9.446-3.864-14.375-5.097L99.449,2.88
		c4.897,1.225,9.703,2.928,14.285,5.064L113.945,7.493z"/>
	<linearGradient id="SVGID_16_" gradientUnits="userSpaceOnUse" x1="28.6802" y1="46.9395" x2="46.6802" y2="17.9395">
		<stop  offset="0" style="stop-color:#68CD52"/>
		<stop  offset="1" style="stop-color:#1A97D5"/>
	</linearGradient>
	<path fill="url(#SVGID_16_)" d="M62.242,2.478l-0.111-0.486c-4.955,1.124-9.827,2.731-14.482,4.78l0.202,0.456
		C52.476,5.192,57.318,3.595,62.242,2.478z"/>
	<linearGradient id="SVGID_17_" gradientUnits="userSpaceOnUse" x1="146.8242" y1="120.2695" x2="164.8242" y2="91.2695">
		<stop  offset="0" style="stop-color:#68CD52"/>
		<stop  offset="1" style="stop-color:#1A97D5"/>
	</linearGradient>
	<path fill="url(#SVGID_17_)" d="M132.542,139.926l0.33,0.376c3.822-3.343,7.346-7.066,10.471-11.068l-0.395-0.306
		C139.843,132.903,136.342,136.604,132.542,139.926z"/>
	<linearGradient id="SVGID_18_" gradientUnits="userSpaceOnUse" x1="141.1602" y1="116.7539" x2="159.1602" y2="87.7539">
		<stop  offset="0" style="stop-color:#68CD52"/>
		<stop  offset="1" style="stop-color:#1A97D5"/>
	</linearGradient>
	<path fill="url(#SVGID_18_)" d="M159.75,79.896v0.17c0,5.062-0.479,10.127-1.425,15.056l0.49,0.093
		c0.952-4.958,1.435-10.055,1.435-15.148v-0.17H159.75z"/>
	<linearGradient id="SVGID_19_" gradientUnits="userSpaceOnUse" x1="138.8506" y1="115.3203" x2="156.8506" y2="86.3203">
		<stop  offset="0" style="stop-color:#68CD52"/>
		<stop  offset="1" style="stop-color:#1A97D5"/>
	</linearGradient>
	<path fill="url(#SVGID_19_)" d="M110.231,153.719l0.189,0.462c4.699-1.923,9.24-4.308,13.497-7.091l-0.273-0.417
		C119.413,149.438,114.9,151.809,110.231,153.719z"/>
	<linearGradient id="SVGID_20_" gradientUnits="userSpaceOnUse" x1="147.6504" y1="120.7832" x2="165.6504" y2="91.7832">
		<stop  offset="0" style="stop-color:#68CD52"/>
		<stop  offset="1" style="stop-color:#1A97D5"/>
	</linearGradient>
	<path fill="url(#SVGID_20_)" d="M149.186,119.67l0.434,0.25c2.537-4.404,4.66-9.067,6.308-13.86l-0.473-0.161
		C153.816,110.66,151.707,115.295,149.186,119.67z"/>
	<linearGradient id="SVGID_21_" gradientUnits="userSpaceOnUse" x1="124.5557" y1="106.4482" x2="142.5557" y2="77.4482">
		<stop  offset="0" style="stop-color:#68CD52"/>
		<stop  offset="1" style="stop-color:#1A97D5"/>
	</linearGradient>
	<path fill="url(#SVGID_21_)" d="M84.636,159.501L84.665,160c5.09-0.291,10.162-1.066,15.075-2.307l-0.123-0.483
		C94.735,158.442,89.694,159.213,84.636,159.501z"/>
	<linearGradient id="SVGID_22_" gradientUnits="userSpaceOnUse" x1="61.5991" y1="67.3716" x2="79.5991" y2="38.3716">
		<stop  offset="0" style="stop-color:#68CD52"/>
		<stop  offset="1" style="stop-color:#1A97D5"/>
	</linearGradient>
	<path fill="url(#SVGID_22_)" d="M15.889,127.399l-0.401,0.297c3.025,4.073,6.458,7.881,10.202,11.316l0.339-0.366
		C22.307,135.231,18.895,131.447,15.889,127.399z"/>
	<linearGradient id="SVGID_23_" gradientUnits="userSpaceOnUse" x1="41.5522" y1="54.9287" x2="59.5522" y2="25.9287">
		<stop  offset="0" style="stop-color:#68CD52"/>
		<stop  offset="1" style="stop-color:#1A97D5"/>
	</linearGradient>
	<path fill="url(#SVGID_23_)" d="M3.472,104.235c1.532,4.833,3.54,9.545,5.969,14.005l0.439-0.238
		c-2.414-4.432-4.41-9.113-5.932-13.916L3.472,104.235z"/>
	<linearGradient id="SVGID_24_" gradientUnits="userSpaceOnUse" x1="83.7295" y1="81.1074" x2="101.7295" y2="52.1074">
		<stop  offset="0" style="stop-color:#68CD52"/>
		<stop  offset="1" style="stop-color:#1A97D5"/>
	</linearGradient>
	<path fill="url(#SVGID_24_)" d="M34.48,146.017c4.191,2.885,8.674,5.378,13.323,7.413l0.201-0.456
		c-4.621-2.022-9.075-4.501-13.24-7.368L34.48,146.017z"/>
	<linearGradient id="SVGID_25_" gradientUnits="userSpaceOnUse" x1="105.501" y1="94.6211" x2="123.501" y2="65.6211">
		<stop  offset="0" style="stop-color:#68CD52"/>
		<stop  offset="1" style="stop-color:#1A97D5"/>
	</linearGradient>
	<path fill="url(#SVGID_25_)" d="M58.404,157.202c4.883,1.358,9.936,2.256,15.016,2.667l0.041-0.497
		c-5.049-0.408-10.069-1.301-14.922-2.651L58.404,157.202z"/>
	<linearGradient id="SVGID_26_" gradientUnits="userSpaceOnUse" x1="80.5894" y1="79.1587" x2="98.5894" y2="50.1587">
		<stop  offset="0" style="stop-color:#68CD52"/>
		<stop  offset="1" style="stop-color:#1A97D5"/>
	</linearGradient>
	<path fill="url(#SVGID_26_)" d="M80,12.519c-37.33,0-67.701,30.302-67.701,67.547c0,30.556,20.64,57.395,50.191,65.266l0.129-0.48
		c-29.333-7.814-49.82-34.455-49.82-64.785c0-36.971,30.146-67.048,67.201-67.048s67.201,30.078,67.201,67.048
		c0,28.889-18.437,54.449-45.878,63.603l0.158,0.474c27.646-9.222,46.22-34.973,46.22-64.076
		C147.701,42.821,117.33,12.519,80,12.519z"/>
</g>
</svg>
