<?xml version="1.0" encoding="utf-8"?>
<!-- Generator: Adobe Illustrator 16.0.0, SVG Export Plug-In . SVG Version: 6.00 Build 0)  -->
<!DOCTYPE svg PUBLIC "-//W3C//DTD SVG 1.1//EN" "http://www.w3.org/Graphics/SVG/1.1/DTD/svg11.dtd">
<svg version="1.1" id="Layer_1" xmlns="http://www.w3.org/2000/svg" xmlns:xlink="http://www.w3.org/1999/xlink" x="0px" y="0px"
	 width="160px" height="160px" viewBox="0 0 160 160" enable-background="new 0 0 160 160" xml:space="preserve">
<g>
	<linearGradient id="SVGID_1_" gradientUnits="userSpaceOnUse" x1="82.8672" y1="75.4053" x2="93.5342" y2="58.0718">
		<stop  offset="0" style="stop-color:#68CD52"/>
		<stop  offset="1" style="stop-color:#1A97D5"/>
	</linearGradient>
	<path fill="url(#SVGID_1_)" d="M80,12.519c-37.213,0-67.489,30.302-67.489,67.547c0,37.245,30.275,67.547,67.489,67.547
		c37.214,0,67.49-30.302,67.49-67.547C147.49,42.821,117.214,12.519,80,12.519z M80,147.114c-36.939,0-66.99-30.077-66.99-67.048
		S43.061,13.018,80,13.018c36.939,0,66.992,30.078,66.992,67.048S116.939,147.114,80,147.114z"/>
	<linearGradient id="SVGID_2_" gradientUnits="userSpaceOnUse" x1="82.8682" y1="75.4062" x2="93.5352" y2="58.0728">
		<stop  offset="0" style="stop-color:#68CD52"/>
		<stop  offset="1" style="stop-color:#1A97D5"/>
	</linearGradient>
	<path fill="url(#SVGID_2_)" d="M80,10.171c-38.507,0-69.834,31.355-69.834,69.895S41.492,149.961,80,149.961
		c38.508,0,69.837-31.354,69.837-69.895S118.508,10.171,80,10.171z M80,149.462c-38.232,0-69.336-31.132-69.336-69.396
		C10.664,41.801,41.768,10.67,80,10.67c38.234,0,69.338,31.13,69.338,69.396C149.338,118.33,118.233,149.462,80,149.462z"/>
	<linearGradient id="SVGID_3_" gradientUnits="userSpaceOnUse" x1="18.0947" y1="35.5449" x2="28.7617" y2="18.2114">
		<stop  offset="0" style="stop-color:#68CD52"/>
		<stop  offset="1" style="stop-color:#1A97D5"/>
	</linearGradient>
	<path fill="url(#SVGID_3_)" d="M5.422,52.437l-0.467-0.173c-1.758,4.753-3.068,9.703-3.891,14.711l0.492,0.081
		C2.374,62.08,3.674,57.161,5.422,52.437z"/>
	<linearGradient id="SVGID_4_" gradientUnits="userSpaceOnUse" x1="15.2256" y1="33.7793" x2="25.8926" y2="16.4458">
		<stop  offset="0" style="stop-color:#68CD52"/>
		<stop  offset="1" style="stop-color:#1A97D5"/>
	</linearGradient>
	<path fill="url(#SVGID_4_)" d="M18.44,29.712l-0.386-0.316c-3.214,3.931-6.064,8.184-8.472,12.64l0.438,0.238
		C12.414,37.845,15.247,33.619,18.44,29.712z"/>
	<linearGradient id="SVGID_5_" gradientUnits="userSpaceOnUse" x1="19.7705" y1="36.5762" x2="30.4375" y2="19.2427">
		<stop  offset="0" style="stop-color:#68CD52"/>
		<stop  offset="1" style="stop-color:#1A97D5"/>
	</linearGradient>
	<path fill="url(#SVGID_5_)" d="M38.104,12.431l-0.263-0.424c-4.301,2.675-8.372,5.777-12.099,9.221l0.338,0.367
		C29.784,18.172,33.829,15.088,38.104,12.431z"/>
	<linearGradient id="SVGID_6_" gradientUnits="userSpaceOnUse" x1="43.7109" y1="51.3096" x2="54.3779" y2="33.9761">
		<stop  offset="0" style="stop-color:#68CD52"/>
		<stop  offset="1" style="stop-color:#1A97D5"/>
	</linearGradient>
	<path fill="url(#SVGID_6_)" d="M3.71,104.236c1.527,4.833,3.529,9.545,5.951,14.005l0.438-0.238
		c-2.406-4.432-4.396-9.113-5.914-13.916L3.71,104.236z"/>
	<linearGradient id="SVGID_7_" gradientUnits="userSpaceOnUse" x1="27.9375" y1="41.6016" x2="38.6045" y2="24.2681">
		<stop  offset="0" style="stop-color:#68CD52"/>
		<stop  offset="1" style="stop-color:#1A97D5"/>
	</linearGradient>
	<path fill="url(#SVGID_7_)" d="M0.521,78.158l-0.499-0.012C0.007,78.784,0,79.424,0,80.066c0,4.448,0.368,8.91,1.092,13.26
		l0.492-0.082c-0.72-4.322-1.085-8.756-1.085-13.178C0.499,79.428,0.506,78.792,0.521,78.158z"/>
	<linearGradient id="SVGID_8_" gradientUnits="userSpaceOnUse" x1="31.0771" y1="43.5342" x2="41.7441" y2="26.2007">
		<stop  offset="0" style="stop-color:#68CD52"/>
		<stop  offset="1" style="stop-color:#1A97D5"/>
	</linearGradient>
	<path fill="url(#SVGID_8_)" d="M62.297,2.477l-0.11-0.486c-4.94,1.124-9.797,2.732-14.437,4.78l0.202,0.456
		C52.562,5.192,57.388,3.594,62.297,2.477z"/>
	<linearGradient id="SVGID_9_" gradientUnits="userSpaceOnUse" x1="112.3477" y1="93.5479" x2="123.0146" y2="76.2144">
		<stop  offset="0" style="stop-color:#68CD52"/>
		<stop  offset="1" style="stop-color:#1A97D5"/>
	</linearGradient>
	<path fill="url(#SVGID_9_)" d="M151.235,43.589c-2.31-4.508-5.065-8.822-8.192-12.821l-0.393,0.307
		c3.107,3.976,5.847,8.263,8.141,12.743L151.235,43.589z"/>
	<linearGradient id="SVGID_10_" gradientUnits="userSpaceOnUse" x1="130.5117" y1="104.7256" x2="141.1787" y2="87.3921">
		<stop  offset="0" style="stop-color:#68CD52"/>
		<stop  offset="1" style="stop-color:#1A97D5"/>
	</linearGradient>
	<path fill="url(#SVGID_10_)" d="M159.201,68.704c-0.714-5.029-1.914-10.007-3.566-14.793l-0.472,0.163
		c1.643,4.757,2.834,9.703,3.545,14.7L159.201,68.704z"/>
	<linearGradient id="SVGID_11_" gradientUnits="userSpaceOnUse" x1="90.9883" y1="80.4033" x2="101.6553" y2="63.0698">
		<stop  offset="0" style="stop-color:#68CD52"/>
		<stop  offset="1" style="stop-color:#1A97D5"/>
	</linearGradient>
	<path fill="url(#SVGID_11_)" d="M135.536,22.434c-3.652-3.525-7.654-6.716-11.896-9.484l-0.272,0.418
		c4.215,2.75,8.192,5.922,11.821,9.425L135.536,22.434z"/>
	<linearGradient id="SVGID_12_" gradientUnits="userSpaceOnUse" x1="48.0107" y1="53.9551" x2="58.6777" y2="36.6216">
		<stop  offset="0" style="stop-color:#68CD52"/>
		<stop  offset="1" style="stop-color:#1A97D5"/>
	</linearGradient>
	<path fill="url(#SVGID_12_)" d="M88.416,0.938l0.053-0.496c-5.01-0.528-10.18-0.583-15.204-0.164l0.042,0.497
		C78.299,0.36,83.438,0.415,88.416,0.938z"/>
	<linearGradient id="SVGID_13_" gradientUnits="userSpaceOnUse" x1="68.709" y1="66.6924" x2="79.376" y2="49.3589">
		<stop  offset="0" style="stop-color:#68CD52"/>
		<stop  offset="1" style="stop-color:#1A97D5"/>
	</linearGradient>
	<path fill="url(#SVGID_13_)" d="M113.84,7.493c-4.597-2.149-9.417-3.864-14.33-5.097L99.389,2.88
		c4.882,1.225,9.673,2.928,14.24,5.064L113.84,7.493z"/>
	<linearGradient id="SVGID_14_" gradientUnits="userSpaceOnUse" x1="63.7363" y1="63.6328" x2="74.4033" y2="46.2993">
		<stop  offset="0" style="stop-color:#68CD52"/>
		<stop  offset="1" style="stop-color:#1A97D5"/>
	</linearGradient>
	<path fill="url(#SVGID_14_)" d="M16.089,127.399l-0.4,0.297c3.015,4.073,6.437,7.881,10.17,11.316l0.337-0.366
		C22.487,135.231,19.086,131.447,16.089,127.399z"/>
	<linearGradient id="SVGID_15_" gradientUnits="userSpaceOnUse" x1="126.7324" y1="102.4004" x2="137.3994" y2="85.0669">
		<stop  offset="0" style="stop-color:#68CD52"/>
		<stop  offset="1" style="stop-color:#1A97D5"/>
	</linearGradient>
	<path fill="url(#SVGID_15_)" d="M84.621,159.501L84.65,160c5.074-0.291,10.131-1.066,15.028-2.307l-0.123-0.483
		C94.689,158.442,89.664,159.213,84.621,159.501z"/>
	<linearGradient id="SVGID_16_" gradientUnits="userSpaceOnUse" x1="85.8623" y1="77.249" x2="96.5293" y2="59.9155">
		<stop  offset="0" style="stop-color:#68CD52"/>
		<stop  offset="1" style="stop-color:#1A97D5"/>
	</linearGradient>
	<path fill="url(#SVGID_16_)" d="M34.622,146.017c4.179,2.885,8.647,5.378,13.282,7.413l0.201-0.456
		c-4.606-2.022-9.047-4.501-13.199-7.368L34.622,146.017z"/>
	<linearGradient id="SVGID_17_" gradientUnits="userSpaceOnUse" x1="149.0947" y1="116.1621" x2="159.7617" y2="98.8286">
		<stop  offset="0" style="stop-color:#68CD52"/>
		<stop  offset="1" style="stop-color:#1A97D5"/>
	</linearGradient>
	<path fill="url(#SVGID_17_)" d="M132.378,139.926l0.329,0.376c3.811-3.343,7.323-7.066,10.438-11.068l-0.394-0.306
		C139.656,132.903,136.166,136.604,132.378,139.926z"/>
	<linearGradient id="SVGID_18_" gradientUnits="userSpaceOnUse" x1="149.9746" y1="116.7031" x2="160.6416" y2="99.3696">
		<stop  offset="0" style="stop-color:#68CD52"/>
		<stop  offset="1" style="stop-color:#1A97D5"/>
	</linearGradient>
	<path fill="url(#SVGID_18_)" d="M148.97,119.67l0.433,0.25c2.529-4.404,4.646-9.067,6.288-13.86l-0.472-0.161
		C153.587,110.66,151.483,115.295,148.97,119.67z"/>
	<linearGradient id="SVGID_19_" gradientUnits="userSpaceOnUse" x1="143.5361" y1="112.7412" x2="154.2031" y2="95.4077">
		<stop  offset="0" style="stop-color:#68CD52"/>
		<stop  offset="1" style="stop-color:#1A97D5"/>
	</linearGradient>
	<path fill="url(#SVGID_19_)" d="M159.999,79.896h-0.498l0.001,0.171c0,5.062-0.479,10.127-1.421,15.056l0.489,0.093
		C159.52,90.257,160,85.16,160,80.062L159.999,79.896z"/>
	<linearGradient id="SVGID_20_" gradientUnits="userSpaceOnUse" x1="107.6475" y1="90.6553" x2="118.3145" y2="73.3218">
		<stop  offset="0" style="stop-color:#68CD52"/>
		<stop  offset="1" style="stop-color:#1A97D5"/>
	</linearGradient>
	<path fill="url(#SVGID_20_)" d="M58.471,157.202c4.868,1.358,9.904,2.255,14.969,2.666l0.04-0.496
		c-5.033-0.408-10.038-1.301-14.875-2.651L58.471,157.202z"/>
	<linearGradient id="SVGID_21_" gradientUnits="userSpaceOnUse" x1="141.0713" y1="111.2236" x2="151.7383" y2="93.8901">
		<stop  offset="0" style="stop-color:#68CD52"/>
		<stop  offset="1" style="stop-color:#1A97D5"/>
	</linearGradient>
	<path fill="url(#SVGID_21_)" d="M110.139,153.718l0.188,0.462c4.685-1.923,9.211-4.308,13.455-7.091l-0.272-0.417
		C119.291,149.438,114.793,151.808,110.139,153.718z"/>
	<linearGradient id="SVGID_22_" gradientUnits="userSpaceOnUse" x1="58.5625" y1="60.4482" x2="69.2295" y2="43.1147">
		<stop  offset="0" style="stop-color:#68CD52"/>
		<stop  offset="1" style="stop-color:#1A97D5"/>
	</linearGradient>
	<path fill="url(#SVGID_22_)" d="M37.12,69.957l3.724,4.54c1.726-1.457,3.554-2.337,5.956-2.337c1.456,0,2.606,0.677,2.606,1.761
		c0,1.693-0.981,2.541-11.304,9.823v5.318h18.445V83.1h-7.344c5.381-3.557,7.141-6.098,7.141-9.18c0-4.539-3.824-7.791-9.68-7.791
		C43.517,66.129,39.727,67.179,37.12,69.957z"/>
	<linearGradient id="SVGID_23_" gradientUnits="userSpaceOnUse" x1="73.21" y1="69.4619" x2="83.877" y2="52.1284">
		<stop  offset="0" style="stop-color:#68CD52"/>
		<stop  offset="1" style="stop-color:#1A97D5"/>
	</linearGradient>
	<path fill="url(#SVGID_23_)" d="M68.086,89.468c6.735,0,10.018-5.555,10.018-11.687c0-6.131-3.283-11.652-10.018-11.652
		S58.068,71.65,58.068,77.781C58.068,83.913,61.351,89.468,68.086,89.468z M68.086,72.159c2.166,0,3.147,1.795,3.147,5.623
		c0,3.828-0.981,5.657-3.147,5.657s-3.148-1.829-3.148-5.657C64.938,73.954,65.92,72.159,68.086,72.159z"/>
	<linearGradient id="SVGID_24_" gradientUnits="userSpaceOnUse" x1="89.0244" y1="79.1943" x2="99.6914" y2="61.8608">
		<stop  offset="0" style="stop-color:#68CD52"/>
		<stop  offset="1" style="stop-color:#1A97D5"/>
	</linearGradient>
	<path fill="url(#SVGID_24_)" d="M98.342,73.92c0-4.539-3.824-7.791-9.68-7.791c-3.148,0-6.939,1.05-9.544,3.828l3.723,4.54
		c1.726-1.457,3.554-2.337,5.957-2.337c1.455,0,2.606,0.677,2.606,1.761c0,1.693-0.982,2.541-11.305,9.823v5.318h18.446V83.1H91.2
		C96.582,79.543,98.342,77.002,98.342,73.92z"/>
	<linearGradient id="SVGID_25_" gradientUnits="userSpaceOnUse" x1="103.6709" y1="88.208" x2="114.3379" y2="70.8745">
		<stop  offset="0" style="stop-color:#68CD52"/>
		<stop  offset="1" style="stop-color:#1A97D5"/>
	</linearGradient>
	<path fill="url(#SVGID_25_)" d="M120.102,77.781c0-6.131-3.283-11.652-10.019-11.652s-10.018,5.521-10.018,11.652
		c0,6.132,3.282,11.687,10.018,11.687S120.102,83.913,120.102,77.781z M106.936,77.781c0-3.828,0.981-5.623,3.147-5.623
		s3.148,1.795,3.148,5.623c0,3.828-0.982,5.657-3.148,5.657S106.936,81.609,106.936,77.781z"/>
	<linearGradient id="SVGID_26_" gradientUnits="userSpaceOnUse" x1="82.8584" y1="75.4004" x2="93.5254" y2="58.0669">
		<stop  offset="0" style="stop-color:#68CD52"/>
		<stop  offset="1" style="stop-color:#1A97D5"/>
	</linearGradient>
	<path fill="url(#SVGID_26_)" d="M80,20.07v8.979c28.107,0,50.975,22.886,50.975,51.017S108.107,131.084,80,131.084
		c-28.107,0-50.974-22.887-50.974-51.018c0-15.089,6.622-29.322,18.168-39.049l-5.778-6.87
		C27.841,45.585,20.055,62.322,20.055,80.066c0,33.083,26.892,59.997,59.945,59.997c33.055,0,59.946-26.914,59.946-59.997
		C139.946,46.984,113.055,20.07,80,20.07z"/>
</g>
</svg>
