<?xml version="1.0" encoding="utf-8"?>
<!-- Generator: Adobe Illustrator 16.0.0, SVG Export Plug-In . SVG Version: 6.00 Build 0)  -->
<!DOCTYPE svg PUBLIC "-//W3C//DTD SVG 1.1//EN" "http://www.w3.org/Graphics/SVG/1.1/DTD/svg11.dtd">
<svg version="1.1" id="Layer_1" xmlns="http://www.w3.org/2000/svg" xmlns:xlink="http://www.w3.org/1999/xlink" x="0px" y="0px"
	 width="160.5px" height="160.5px" viewBox="0 0 160.5 160.5" enable-background="new 0 0 160.5 160.5" xml:space="preserve">
<linearGradient id="SVGID_1_" gradientUnits="userSpaceOnUse" x1="72.9263" y1="65.1357" x2="86.1763" y2="92.8857">
	<stop  offset="0" style="stop-color:#68CD52"/>
	<stop  offset="1" style="stop-color:#1A97D5"/>
</linearGradient>
<path fill="url(#SVGID_1_)" d="M80.085,12.393c-37.24,0-67.536,30.386-67.536,67.736c0,37.352,30.296,67.736,67.536,67.736
	c37.24,0,67.536-30.387,67.536-67.736C147.621,42.779,117.325,12.393,80.085,12.393z M135.747,117.029
	c-11.894,17.992-32.214,29.91-55.273,30.043v-29.354c-0.166,0.061-0.348,0.101-0.558,0.101c-0.079,0-0.15-0.013-0.223-0.022v29.275
	c-23.058-0.135-43.375-12.053-55.271-30.041l13.37-9.043c-0.213-0.165-0.365-0.387-0.46-0.634l-13.331,9.017
	c-6.74-10.454-10.671-22.893-10.671-36.242c0-14.364,4.548-27.673,12.254-38.589l11.748,7.581c0.088-0.25,0.239-0.473,0.444-0.645
	l-11.738-7.575C38.18,24.119,57.877,13.176,80.085,13.176s41.907,10.944,54.048,27.727l-11.646,7.544
	c0.178,0.198,0.293,0.443,0.352,0.704l11.747-7.61c7.705,10.916,12.254,24.225,12.254,38.588c0,13.35-3.931,25.787-10.67,36.241
	l-13.331-9.01c-0.103,0.243-0.26,0.461-0.479,0.62L135.747,117.029z"/>
<linearGradient id="SVGID_2_" gradientUnits="userSpaceOnUse" x1="64.9678" y1="16.3687" x2="74.947" y2="37.2685">
	<stop  offset="0" style="stop-color:#68CD52"/>
	<stop  offset="1" style="stop-color:#1A97D5"/>
</linearGradient>
<path fill="url(#SVGID_2_)" d="M108.385,48.03h1.221c-8.062-7.461-18.541-11.571-29.521-11.571c-10.981,0-21.458,4.11-29.519,11.571
	h1.221c7.82-6.941,17.82-10.76,28.299-10.76C90.562,37.27,100.566,41.09,108.385,48.03z"/>
<linearGradient id="SVGID_3_" gradientUnits="userSpaceOnUse" x1="72.9268" y1="65.1357" x2="86.1767" y2="92.8855">
	<stop  offset="0" style="stop-color:#68CD52"/>
	<stop  offset="1" style="stop-color:#1A97D5"/>
</linearGradient>
<path fill="url(#SVGID_3_)" d="M80.085,10.044c-38.531,0-69.878,31.44-69.878,70.085c0,38.646,31.347,70.086,69.878,70.086
	c38.532,0,69.878-31.439,69.878-70.086C149.964,41.484,118.617,10.044,80.085,10.044z M80.085,149.432
	c-38.101,0-69.098-31.09-69.098-69.303s30.997-69.302,69.098-69.302c38.101,0,69.097,31.089,69.097,69.302
	S118.186,149.432,80.085,149.432z"/>
<linearGradient id="SVGID_4_" gradientUnits="userSpaceOnUse" x1="331.1826" y1="-290.1807" x2="344.4326" y2="-262.4307" gradientTransform="matrix(1 0 0 -1 -288.5 -209.5)">
	<stop  offset="0" style="stop-color:#68CD52"/>
	<stop  offset="1" style="stop-color:#1A97D5"/>
</linearGradient>
<path fill="url(#SVGID_4_)" d="M88.475,1.145l0.094-0.893c-5.012-0.53-10.189-0.585-15.22-0.165l0.074,0.894
	C78.396,0.566,83.516,0.621,88.475,1.145z"/>
<linearGradient id="SVGID_5_" gradientUnits="userSpaceOnUse" x1="311.752" y1="-280.9033" x2="325.002" y2="-253.1533" gradientTransform="matrix(1 0 0 -1 -288.5 -209.5)">
	<stop  offset="0" style="stop-color:#68CD52"/>
	<stop  offset="1" style="stop-color:#1A97D5"/>
</linearGradient>
<path fill="url(#SVGID_5_)" d="M62.455,2.68l-0.198-0.875c-4.946,1.127-9.809,2.741-14.453,4.794l0.361,0.821
	C52.756,5.39,57.564,3.795,62.455,2.68z"/>
<linearGradient id="SVGID_6_" gradientUnits="userSpaceOnUse" x1="297.7168" y1="-274.2075" x2="310.9677" y2="-246.4556" gradientTransform="matrix(1 0 0 -1 -288.5 -209.5)">
	<stop  offset="0" style="stop-color:#68CD52"/>
	<stop  offset="1" style="stop-color:#1A97D5"/>
</linearGradient>
<path fill="url(#SVGID_6_)" d="M38.356,12.613l-0.472-0.762c-4.306,2.683-8.381,5.795-12.112,9.25l0.607,0.66
	C30.069,18.344,34.099,15.266,38.356,12.613z"/>
<linearGradient id="SVGID_7_" gradientUnits="userSpaceOnUse" x1="291.0742" y1="-271.0312" x2="304.3251" y2="-243.2794" gradientTransform="matrix(1 0 0 -1 -288.5 -209.5)">
	<stop  offset="0" style="stop-color:#68CD52"/>
	<stop  offset="1" style="stop-color:#1A97D5"/>
</linearGradient>
<path fill="url(#SVGID_7_)" d="M5.8,52.547l-0.839-0.312C3.2,57.003,1.89,61.969,1.065,66.993l0.883,0.146
	C2.763,62.171,4.059,57.262,5.8,52.547z"/>
<linearGradient id="SVGID_8_" gradientUnits="userSpaceOnUse" x1="290.5684" y1="-270.7886" x2="303.8184" y2="-243.0386" gradientTransform="matrix(1 0 0 -1 -288.5 -209.5)">
	<stop  offset="0" style="stop-color:#68CD52"/>
	<stop  offset="1" style="stop-color:#1A97D5"/>
</linearGradient>
<path fill="url(#SVGID_8_)" d="M18.768,29.864l-0.692-0.568c-3.217,3.943-6.071,8.209-8.481,12.68l0.787,0.427
	C12.765,37.981,15.586,33.763,18.768,29.864z"/>
<linearGradient id="SVGID_9_" gradientUnits="userSpaceOnUse" x1="416.9355" y1="-331.126" x2="430.1855" y2="-303.376" gradientTransform="matrix(1 0 0 -1 -288.5 -209.5)">
	<stop  offset="0" style="stop-color:#68CD52"/>
	<stop  offset="1" style="stop-color:#1A97D5"/>
</linearGradient>
<path fill="url(#SVGID_9_)" d="M159.37,68.736c-0.713-5.043-1.913-10.037-3.568-14.84l-0.847,0.292
	c1.637,4.75,2.822,9.688,3.527,14.674L159.37,68.736z"/>
<linearGradient id="SVGID_10_" gradientUnits="userSpaceOnUse" x1="399.2539" y1="-322.6831" x2="412.5039" y2="-294.9331" gradientTransform="matrix(1 0 0 -1 -288.5 -209.5)">
	<stop  offset="0" style="stop-color:#68CD52"/>
	<stop  offset="1" style="stop-color:#1A97D5"/>
</linearGradient>
<path fill="url(#SVGID_10_)" d="M151.398,43.54c-2.312-4.521-5.071-8.85-8.201-12.863l-0.705,0.553
	c3.096,3.969,5.824,8.249,8.109,12.719L151.398,43.54z"/>
<linearGradient id="SVGID_11_" gradientUnits="userSpaceOnUse" x1="377.4707" y1="-312.2837" x2="390.7207" y2="-284.5337" gradientTransform="matrix(1 0 0 -1 -288.5 -209.5)">
	<stop  offset="0" style="stop-color:#68CD52"/>
	<stop  offset="1" style="stop-color:#1A97D5"/>
</linearGradient>
<path fill="url(#SVGID_11_)" d="M135.682,22.316c-3.652-3.536-7.658-6.737-11.904-9.515l-0.489,0.752
	c4.198,2.746,8.16,5.912,11.772,9.409L135.682,22.316z"/>
<linearGradient id="SVGID_12_" gradientUnits="userSpaceOnUse" x1="353.876" y1="-301.0166" x2="367.126" y2="-273.2666" gradientTransform="matrix(1 0 0 -1 -288.5 -209.5)">
	<stop  offset="0" style="stop-color:#68CD52"/>
	<stop  offset="1" style="stop-color:#1A97D5"/>
</linearGradient>
<path fill="url(#SVGID_12_)" d="M113.963,7.327c-4.6-2.156-9.426-3.877-14.345-5.114L99.4,3.084
	c4.863,1.222,9.637,2.923,14.185,5.056L113.963,7.327z"/>
<linearGradient id="SVGID_13_" gradientUnits="userSpaceOnUse" x1="357.0156" y1="-302.5156" x2="370.2656" y2="-274.7656" gradientTransform="matrix(1 0 0 -1 -288.5 -209.5)">
	<stop  offset="0" style="stop-color:#68CD52"/>
	<stop  offset="1" style="stop-color:#1A97D5"/>
</linearGradient>
<path fill="url(#SVGID_13_)" d="M34.657,146.287c4.182,2.896,8.656,5.396,13.296,7.438l0.359-0.822
	c-4.588-2.018-9.012-4.49-13.146-7.354L34.657,146.287z"/>
<linearGradient id="SVGID_14_" gradientUnits="userSpaceOnUse" x1="428.6162" y1="-336.707" x2="441.8671" y2="-308.9552" gradientTransform="matrix(1 0 0 -1 -288.5 -209.5)">
	<stop  offset="0" style="stop-color:#68CD52"/>
	<stop  offset="1" style="stop-color:#1A97D5"/>
</linearGradient>
<path fill="url(#SVGID_14_)" d="M159.275,79.963v0.166c0,5.051-0.477,10.107-1.416,15.028l0.879,0.168
	c0.951-4.976,1.433-10.091,1.433-15.191l0.001-0.171H159.275z"/>
<linearGradient id="SVGID_15_" gradientUnits="userSpaceOnUse" x1="433.1074" y1="-338.8477" x2="446.3574" y2="-311.0977" gradientTransform="matrix(1 0 0 -1 -288.5 -209.5)">
	<stop  offset="0" style="stop-color:#68CD52"/>
	<stop  offset="1" style="stop-color:#1A97D5"/>
</linearGradient>
<path fill="url(#SVGID_15_)" d="M148.785,119.66l0.775,0.447c2.53-4.416,4.648-9.092,6.295-13.902l-0.848-0.291
	C153.382,110.671,151.288,115.294,148.785,119.66z"/>
<linearGradient id="SVGID_16_" gradientUnits="userSpaceOnUse" x1="418.8594" y1="-332.0479" x2="432.1084" y2="-304.3" gradientTransform="matrix(1 0 0 -1 -288.5 -209.5)">
	<stop  offset="0" style="stop-color:#68CD52"/>
	<stop  offset="1" style="stop-color:#1A97D5"/>
</linearGradient>
<path fill="url(#SVGID_16_)" d="M110.104,153.648l0.34,0.83c4.69-1.929,9.222-4.321,13.471-7.112l-0.491-0.75
	C119.223,149.376,114.741,151.742,110.104,153.648z"/>
<linearGradient id="SVGID_17_" gradientUnits="userSpaceOnUse" x1="429.6133" y1="-337.1797" x2="442.8642" y2="-309.4279" gradientTransform="matrix(1 0 0 -1 -288.5 -209.5)">
	<stop  offset="0" style="stop-color:#68CD52"/>
	<stop  offset="1" style="stop-color:#1A97D5"/>
</linearGradient>
<path fill="url(#SVGID_17_)" d="M132.257,139.882l0.591,0.675c3.816-3.354,7.332-7.091,10.449-11.103l-0.705-0.554
	C139.509,132.87,136.032,136.564,132.257,139.882z"/>
<linearGradient id="SVGID_18_" gradientUnits="userSpaceOnUse" x1="380.5137" y1="-313.7368" x2="393.7637" y2="-285.9868" gradientTransform="matrix(1 0 0 -1 -288.5 -209.5)">
	<stop  offset="0" style="stop-color:#68CD52"/>
	<stop  offset="1" style="stop-color:#1A97D5"/>
</linearGradient>
<path fill="url(#SVGID_18_)" d="M58.533,157.508c4.875,1.364,9.917,2.264,14.985,2.678l0.072-0.896
	c-5.012-0.407-9.997-1.299-14.817-2.646L58.533,157.508z"/>
<linearGradient id="SVGID_19_" gradientUnits="userSpaceOnUse" x1="334.0479" y1="-291.5503" x2="347.2979" y2="-263.8003" gradientTransform="matrix(1 0 0 -1 -288.5 -209.5)">
	<stop  offset="0" style="stop-color:#68CD52"/>
	<stop  offset="1" style="stop-color:#1A97D5"/>
</linearGradient>
<path fill="url(#SVGID_19_)" d="M16.424,127.376l-0.719,0.534c3.019,4.085,6.444,7.904,10.182,11.351l0.605-0.659
	C22.796,135.193,19.409,131.415,16.424,127.376z"/>
<linearGradient id="SVGID_20_" gradientUnits="userSpaceOnUse" x1="314.0566" y1="-282" x2="327.3079" y2="-254.2475" gradientTransform="matrix(1 0 0 -1 -288.5 -209.5)">
	<stop  offset="0" style="stop-color:#68CD52"/>
	<stop  offset="1" style="stop-color:#1A97D5"/>
</linearGradient>
<path fill="url(#SVGID_20_)" d="M3.713,104.375c1.528,4.846,3.533,9.572,5.958,14.048l0.786-0.428
	c-2.398-4.427-4.379-9.099-5.891-13.892L3.713,104.375z"/>
<linearGradient id="SVGID_21_" gradientUnits="userSpaceOnUse" x1="299.2051" y1="-274.9111" x2="312.456" y2="-247.1591" gradientTransform="matrix(1 0 0 -1 -288.5 -209.5)">
	<stop  offset="0" style="stop-color:#68CD52"/>
	<stop  offset="1" style="stop-color:#1A97D5"/>
</linearGradient>
<path fill="url(#SVGID_21_)" d="M0.917,78.221L0.022,78.2C0.008,78.842,0,79.484,0,80.129c0,4.459,0.368,8.936,1.093,13.301
	l0.882-0.147c-0.717-4.316-1.081-8.741-1.081-13.152C0.895,79.491,0.902,78.855,0.917,78.221z"/>
<linearGradient id="SVGID_22_" gradientUnits="userSpaceOnUse" x1="401.877" y1="-323.936" x2="415.127" y2="-296.186" gradientTransform="matrix(1 0 0 -1 -288.5 -209.5)">
	<stop  offset="0" style="stop-color:#68CD52"/>
	<stop  offset="1" style="stop-color:#1A97D5"/>
</linearGradient>
<path fill="url(#SVGID_22_)" d="M84.688,159.423l0.053,0.896c5.078-0.291,10.141-1.07,15.044-2.313l-0.22-0.87
	C94.715,158.363,89.711,159.133,84.688,159.423z"/>
</svg>
