<?xml version="1.0" encoding="utf-8"?>
<!-- Generator: Adobe Illustrator 16.0.0, SVG Export Plug-In . SVG Version: 6.00 Build 0)  -->
<!DOCTYPE svg PUBLIC "-//W3C//DTD SVG 1.1//EN" "http://www.w3.org/Graphics/SVG/1.1/DTD/svg11.dtd">
<svg version="1.1" id="Layer_1" xmlns="http://www.w3.org/2000/svg" xmlns:xlink="http://www.w3.org/1999/xlink" x="0px" y="0px"
	 width="160.5px" height="160.5px" viewBox="0 0 160.5 160.5" enable-background="new 0 0 160.5 160.5" xml:space="preserve">
<g>
	<linearGradient id="SVGID_1_" gradientUnits="userSpaceOnUse" x1="81.082" y1="99.0166" x2="94.332" y2="71.2666">
		<stop  offset="0" style="stop-color:#68CD52"/>
		<stop  offset="1" style="stop-color:#1A97D5"/>
	</linearGradient>
	<polygon fill="url(#SVGID_1_)" points="88.646,86.769 100.87,98.952 108.848,90.893 96.625,78.709 100.879,74.411 73.915,63.999 
		84.393,91.067 	"/>
	<linearGradient id="SVGID_2_" gradientUnits="userSpaceOnUse" x1="42.9058" y1="80.7881" x2="56.1558" y2="53.0381">
		<stop  offset="0" style="stop-color:#68CD52"/>
		<stop  offset="1" style="stop-color:#1A97D5"/>
	</linearGradient>
	<polygon fill="url(#SVGID_2_)" points="57.032,57.312 56.48,56.758 46.854,66.411 47.406,66.965 	"/>
	<linearGradient id="SVGID_3_" gradientUnits="userSpaceOnUse" x1="46.6597" y1="82.5811" x2="59.9097" y2="54.8311">
		<stop  offset="0" style="stop-color:#68CD52"/>
		<stop  offset="1" style="stop-color:#1A97D5"/>
	</linearGradient>
	<polygon fill="url(#SVGID_3_)" points="57.032,66.965 56.48,66.411 46.854,76.065 47.406,76.619 	"/>
	<linearGradient id="SVGID_4_" gradientUnits="userSpaceOnUse" x1="72.9263" y1="95.1221" x2="86.1763" y2="67.3721">
		<stop  offset="0" style="stop-color:#68CD52"/>
		<stop  offset="1" style="stop-color:#1A97D5"/>
	</linearGradient>
	<path fill="url(#SVGID_4_)" d="M80.085,12.393c-37.24,0-67.536,30.386-67.536,67.736c0,37.351,30.296,67.736,67.536,67.736
		s67.536-30.386,67.536-67.736C147.621,42.779,117.325,12.393,80.085,12.393z M80.085,13.176c22.208,0,41.907,10.944,54.048,27.727
		l-11.037,7.127h-13.491c-8.062-7.461-18.541-11.571-29.52-11.571c-10.981,0-21.458,4.11-29.519,11.571H37.074l-11.036-7.128
		C38.18,24.119,57.877,13.176,80.085,13.176z M69.428,107.671v0.007H37.332V48.799h85.507v58.879H91.523v-0.007H69.428z
		 M51.787,48.03c7.818-6.94,17.822-10.76,28.299-10.76c10.476,0,20.48,3.82,28.299,10.76H51.787z M13.33,80.129
		c0-14.364,4.548-27.673,12.254-38.589l10.98,7.092v59.217l-12.563,8.522C17.261,105.917,13.33,93.479,13.33,80.129z
		 M79.694,147.072c-23.058-0.134-43.375-12.052-55.271-30.041l12.655-8.584h32.35v8.877h-4.421v0.784h4.421h10.266V147.072z
		 M70.209,117.324v-8.87h20.533v8.87H70.209z M80.474,147.072v-28.964h11.049h5.109v-0.784h-5.109v-8.877h31.57l12.654,8.582
		C123.853,135.021,103.533,146.939,80.474,147.072z M123.605,107.85V48.632l10.981-7.091c7.705,10.916,12.254,24.225,12.254,38.588
		c0,13.35-3.931,25.787-10.67,36.241L123.605,107.85z"/>
	<linearGradient id="SVGID_5_" gradientUnits="userSpaceOnUse" x1="72.9272" y1="95.123" x2="86.1772" y2="67.373">
		<stop  offset="0" style="stop-color:#68CD52"/>
		<stop  offset="1" style="stop-color:#1A97D5"/>
	</linearGradient>
	<path fill="url(#SVGID_5_)" d="M80.085,10.044c-38.531,0-69.878,31.44-69.878,70.085c0,38.646,31.347,70.086,69.878,70.086
		c38.532,0,69.878-31.439,69.878-70.086C149.964,41.484,118.617,10.044,80.085,10.044z M80.085,149.432
		c-38.101,0-69.098-31.09-69.098-69.303s30.997-69.302,69.098-69.302c38.1,0,69.097,31.089,69.097,69.302
		S118.186,149.432,80.085,149.432z"/>
	<linearGradient id="SVGID_6_" gradientUnits="userSpaceOnUse" x1="72.1909" y1="94.7715" x2="85.4409" y2="67.0215">
		<stop  offset="0" style="stop-color:#68CD52"/>
		<stop  offset="1" style="stop-color:#1A97D5"/>
	</linearGradient>
	<path fill="url(#SVGID_6_)" d="M120.643,50.086H39.527v56.305h81.115V50.086z M119.928,105.673H40.242v-54.87h79.686V105.673z"/>
	<linearGradient id="SVGID_7_" gradientUnits="userSpaceOnUse" x1="42.6802" y1="80.6807" x2="55.9302" y2="52.9307">
		<stop  offset="0" style="stop-color:#68CD52"/>
		<stop  offset="1" style="stop-color:#1A97D5"/>
	</linearGradient>
	<path fill="url(#SVGID_7_)" d="M88.474,1.145l0.094-0.893c-5.012-0.53-10.189-0.585-15.22-0.165l0.074,0.894
		C78.396,0.566,83.516,0.621,88.474,1.145z"/>
	<linearGradient id="SVGID_8_" gradientUnits="userSpaceOnUse" x1="23.2505" y1="71.4033" x2="36.5005" y2="43.6533">
		<stop  offset="0" style="stop-color:#68CD52"/>
		<stop  offset="1" style="stop-color:#1A97D5"/>
	</linearGradient>
	<path fill="url(#SVGID_8_)" d="M62.455,2.68l-0.198-0.875c-4.946,1.127-9.809,2.741-14.453,4.794l0.361,0.821
		C52.756,5.39,57.564,3.795,62.455,2.68z"/>
	<linearGradient id="SVGID_9_" gradientUnits="userSpaceOnUse" x1="9.2192" y1="64.7041" x2="22.4692" y2="36.9541">
		<stop  offset="0" style="stop-color:#68CD52"/>
		<stop  offset="1" style="stop-color:#1A97D5"/>
	</linearGradient>
	<path fill="url(#SVGID_9_)" d="M38.356,12.613l-0.472-0.762c-4.306,2.683-8.381,5.795-12.112,9.25l0.607,0.66
		C30.069,18.344,34.099,15.266,38.356,12.613z"/>
	<linearGradient id="SVGID_10_" gradientUnits="userSpaceOnUse" x1="2.5747" y1="61.5312" x2="15.8247" y2="33.7812">
		<stop  offset="0" style="stop-color:#68CD52"/>
		<stop  offset="1" style="stop-color:#1A97D5"/>
	</linearGradient>
	<path fill="url(#SVGID_10_)" d="M5.8,52.547l-0.839-0.312C3.2,57.003,1.89,61.969,1.065,66.993l0.883,0.146
		C2.763,62.171,4.059,57.262,5.8,52.547z"/>
	<linearGradient id="SVGID_11_" gradientUnits="userSpaceOnUse" x1="2.0688" y1="61.2891" x2="15.3188" y2="33.5391">
		<stop  offset="0" style="stop-color:#68CD52"/>
		<stop  offset="1" style="stop-color:#1A97D5"/>
	</linearGradient>
	<path fill="url(#SVGID_11_)" d="M18.768,29.864l-0.692-0.568c-3.217,3.943-6.071,8.209-8.481,12.68l0.787,0.427
		C12.765,37.981,15.586,33.763,18.768,29.864z"/>
	<linearGradient id="SVGID_12_" gradientUnits="userSpaceOnUse" x1="128.4365" y1="121.627" x2="141.6865" y2="93.877">
		<stop  offset="0" style="stop-color:#68CD52"/>
		<stop  offset="1" style="stop-color:#1A97D5"/>
	</linearGradient>
	<path fill="url(#SVGID_12_)" d="M159.37,68.736c-0.713-5.043-1.913-10.037-3.568-14.84l-0.847,0.292
		c1.637,4.75,2.823,9.688,3.528,14.674L159.37,68.736z"/>
	<linearGradient id="SVGID_13_" gradientUnits="userSpaceOnUse" x1="110.7529" y1="113.1836" x2="124.0029" y2="85.4336">
		<stop  offset="0" style="stop-color:#68CD52"/>
		<stop  offset="1" style="stop-color:#1A97D5"/>
	</linearGradient>
	<path fill="url(#SVGID_13_)" d="M151.398,43.54c-2.312-4.521-5.071-8.85-8.201-12.863l-0.705,0.553
		c3.096,3.969,5.824,8.249,8.109,12.719L151.398,43.54z"/>
	<linearGradient id="SVGID_14_" gradientUnits="userSpaceOnUse" x1="88.9717" y1="102.7832" x2="102.2217" y2="75.0332">
		<stop  offset="0" style="stop-color:#68CD52"/>
		<stop  offset="1" style="stop-color:#1A97D5"/>
	</linearGradient>
	<path fill="url(#SVGID_14_)" d="M135.682,22.316c-3.653-3.536-7.659-6.737-11.905-9.515l-0.489,0.752
		c4.199,2.746,8.16,5.912,11.773,9.409L135.682,22.316z"/>
	<linearGradient id="SVGID_15_" gradientUnits="userSpaceOnUse" x1="65.3745" y1="91.5166" x2="78.6245" y2="63.7666">
		<stop  offset="0" style="stop-color:#68CD52"/>
		<stop  offset="1" style="stop-color:#1A97D5"/>
	</linearGradient>
	<path fill="url(#SVGID_15_)" d="M113.963,7.327c-4.599-2.156-9.426-3.877-14.345-5.114L99.4,3.084
		c4.864,1.222,9.637,2.923,14.185,5.056L113.963,7.327z"/>
	<linearGradient id="SVGID_16_" gradientUnits="userSpaceOnUse" x1="68.5161" y1="93.0166" x2="81.7661" y2="65.2666">
		<stop  offset="0" style="stop-color:#68CD52"/>
		<stop  offset="1" style="stop-color:#1A97D5"/>
	</linearGradient>
	<path fill="url(#SVGID_16_)" d="M34.657,146.287c4.182,2.896,8.656,5.397,13.296,7.438l0.359-0.822
		c-4.588-2.018-9.012-4.491-13.146-7.354L34.657,146.287z"/>
	<linearGradient id="SVGID_17_" gradientUnits="userSpaceOnUse" x1="140.1182" y1="127.2051" x2="153.3682" y2="99.4551">
		<stop  offset="0" style="stop-color:#68CD52"/>
		<stop  offset="1" style="stop-color:#1A97D5"/>
	</linearGradient>
	<path fill="url(#SVGID_17_)" d="M159.275,79.963v0.166c0,5.051-0.476,10.107-1.415,15.028l0.879,0.168
		c0.95-4.976,1.432-10.09,1.432-15.191l0.001-0.171H159.275z"/>
	<linearGradient id="SVGID_18_" gradientUnits="userSpaceOnUse" x1="144.6094" y1="129.3496" x2="157.8594" y2="101.5996">
		<stop  offset="0" style="stop-color:#68CD52"/>
		<stop  offset="1" style="stop-color:#1A97D5"/>
	</linearGradient>
	<path fill="url(#SVGID_18_)" d="M148.785,119.66l0.775,0.448c2.531-4.416,4.649-9.093,6.295-13.903l-0.847-0.291
		C153.382,110.671,151.288,115.294,148.785,119.66z"/>
	<linearGradient id="SVGID_19_" gradientUnits="userSpaceOnUse" x1="130.3613" y1="122.5459" x2="143.6113" y2="94.7959">
		<stop  offset="0" style="stop-color:#68CD52"/>
		<stop  offset="1" style="stop-color:#1A97D5"/>
	</linearGradient>
	<path fill="url(#SVGID_19_)" d="M110.104,153.649l0.34,0.83c4.69-1.929,9.221-4.322,13.47-7.113l-0.491-0.75
		C119.223,149.376,114.741,151.742,110.104,153.649z"/>
	<linearGradient id="SVGID_20_" gradientUnits="userSpaceOnUse" x1="141.1143" y1="127.6807" x2="154.3643" y2="99.9307">
		<stop  offset="0" style="stop-color:#68CD52"/>
		<stop  offset="1" style="stop-color:#1A97D5"/>
	</linearGradient>
	<path fill="url(#SVGID_20_)" d="M132.257,139.882l0.591,0.674c3.816-3.354,7.332-7.09,10.449-11.102l-0.705-0.553
		C139.509,132.87,136.032,136.564,132.257,139.882z"/>
	<linearGradient id="SVGID_21_" gradientUnits="userSpaceOnUse" x1="92.0137" y1="104.2363" x2="105.2637" y2="76.4863">
		<stop  offset="0" style="stop-color:#68CD52"/>
		<stop  offset="1" style="stop-color:#1A97D5"/>
	</linearGradient>
	<path fill="url(#SVGID_21_)" d="M58.533,157.508c4.875,1.364,9.917,2.264,14.985,2.677l0.072-0.895
		c-5.012-0.407-9.997-1.299-14.817-2.646L58.533,157.508z"/>
	<linearGradient id="SVGID_22_" gradientUnits="userSpaceOnUse" x1="45.5474" y1="82.0498" x2="58.7974" y2="54.2998">
		<stop  offset="0" style="stop-color:#68CD52"/>
		<stop  offset="1" style="stop-color:#1A97D5"/>
	</linearGradient>
	<path fill="url(#SVGID_22_)" d="M16.424,127.376l-0.719,0.534c3.019,4.085,6.444,7.905,10.182,11.351l0.605-0.659
		C22.796,135.193,19.409,131.415,16.424,127.376z"/>
	<linearGradient id="SVGID_23_" gradientUnits="userSpaceOnUse" x1="25.5542" y1="72.5029" x2="38.8042" y2="44.7529">
		<stop  offset="0" style="stop-color:#68CD52"/>
		<stop  offset="1" style="stop-color:#1A97D5"/>
	</linearGradient>
	<path fill="url(#SVGID_23_)" d="M3.713,104.375c1.528,4.846,3.533,9.572,5.958,14.048l0.786-0.428
		c-2.398-4.426-4.379-9.099-5.891-13.891L3.713,104.375z"/>
	<linearGradient id="SVGID_24_" gradientUnits="userSpaceOnUse" x1="10.7046" y1="65.4131" x2="23.9546" y2="37.6631">
		<stop  offset="0" style="stop-color:#68CD52"/>
		<stop  offset="1" style="stop-color:#1A97D5"/>
	</linearGradient>
	<path fill="url(#SVGID_24_)" d="M0.917,78.221L0.022,78.2C0.008,78.842,0,79.484,0,80.129c0,4.459,0.368,8.935,1.093,13.3
		l0.882-0.147c-0.717-4.316-1.081-8.741-1.081-13.152C0.895,79.491,0.902,78.855,0.917,78.221z"/>
	<linearGradient id="SVGID_25_" gradientUnits="userSpaceOnUse" x1="113.3779" y1="114.4365" x2="126.6279" y2="86.6865">
		<stop  offset="0" style="stop-color:#68CD52"/>
		<stop  offset="1" style="stop-color:#1A97D5"/>
	</linearGradient>
	<path fill="url(#SVGID_25_)" d="M84.688,159.423l0.052,0.896c5.079-0.292,10.141-1.071,15.044-2.314l-0.219-0.87
		C94.715,158.363,89.711,159.133,84.688,159.423z"/>
</g>
</svg>
