<?xml version="1.0" encoding="utf-8"?>
<!-- Generator: Adobe Illustrator 16.0.0, SVG Export Plug-In . SVG Version: 6.00 Build 0)  -->
<!DOCTYPE svg PUBLIC "-//W3C//DTD SVG 1.1//EN" "http://www.w3.org/Graphics/SVG/1.1/DTD/svg11.dtd">
<svg version="1.1" id="Layer_1" xmlns="http://www.w3.org/2000/svg" xmlns:xlink="http://www.w3.org/1999/xlink" x="0px" y="0px"
	 width="160.5px" height="160.5px" viewBox="0 0 160.5 160.5" enable-background="new 0 0 160.5 160.5" xml:space="preserve">
<rect x="37.314" y="48.632" fill="#FFFFFF" width="85.525" height="59.218"/>
<linearGradient id="SVGID_1_" gradientUnits="userSpaceOnUse" x1="369.582" y1="-308.5156" x2="382.832" y2="-280.7656" gradientTransform="matrix(1 0 0 -1 -288.5 -209.5)">
	<stop  offset="0" style="stop-color:#68CD52"/>
	<stop  offset="1" style="stop-color:#1A97D5"/>
</linearGradient>
<polygon fill="url(#SVGID_1_)" points="88.646,86.77 100.87,98.952 108.848,90.893 96.625,78.709 100.879,74.411 73.915,63.999 
	84.393,91.066 "/>
<linearGradient id="SVGID_2_" gradientUnits="userSpaceOnUse" x1="331.4053" y1="-290.2896" x2="344.6562" y2="-262.5375" gradientTransform="matrix(1 0 0 -1 -288.5 -209.5)">
	<stop  offset="0" style="stop-color:#68CD52"/>
	<stop  offset="1" style="stop-color:#1A97D5"/>
</linearGradient>
<polygon fill="url(#SVGID_2_)" points="57.032,57.312 56.48,56.758 46.854,66.411 47.406,66.965 "/>
<linearGradient id="SVGID_3_" gradientUnits="userSpaceOnUse" x1="335.1592" y1="-292.0811" x2="348.4102" y2="-264.329" gradientTransform="matrix(1 0 0 -1 -288.5 -209.5)">
	<stop  offset="0" style="stop-color:#68CD52"/>
	<stop  offset="1" style="stop-color:#1A97D5"/>
</linearGradient>
<polygon fill="url(#SVGID_3_)" points="57.032,66.965 56.48,66.411 46.854,76.065 47.406,76.619 "/>
<linearGradient id="SVGID_4_" gradientUnits="userSpaceOnUse" x1="360.9453" y1="-303.7417" x2="373.5716" y2="-277.2981" gradientTransform="matrix(1 0 0 -1 -288.5 -209.5)">
	<stop  offset="0" style="stop-color:#68CD52"/>
	<stop  offset="1" style="stop-color:#1A97D5"/>
</linearGradient>
<path fill="url(#SVGID_4_)" d="M123.093,108.447l0.513-0.598V48.632l-0.51-0.602H37.074l-0.51,0.602v59.218l0.514,0.598h32.35v8.877
	h-4.421v0.783h14.687h0.78h16.158v-0.783h-5.108v-8.877H123.093z M90.742,117.324H70.209v-8.87h20.533V117.324z M69.428,107.671
	v0.007H37.332V48.799h85.507v58.879H91.523v-0.007H69.428z"/>
<linearGradient id="SVGID_5_" gradientUnits="userSpaceOnUse" x1="360.6904" y1="-304.2705" x2="373.9403" y2="-276.5208" gradientTransform="matrix(1 0 0 -1 -288.5 -209.5)">
	<stop  offset="0" style="stop-color:#68CD52"/>
	<stop  offset="1" style="stop-color:#1A97D5"/>
</linearGradient>
<path fill="url(#SVGID_5_)" d="M120.643,50.086H39.527v56.305h81.116V50.086L120.643,50.086z M119.928,105.673H40.242v-54.87h79.686
	V105.673L119.928,105.673z"/>
</svg>
