<?xml version="1.0" encoding="utf-8"?>
<!-- Generator: Adobe Illustrator 16.0.0, SVG Export Plug-In . SVG Version: 6.00 Build 0)  -->
<!DOCTYPE svg PUBLIC "-//W3C//DTD SVG 1.1//EN" "http://www.w3.org/Graphics/SVG/1.1/DTD/svg11.dtd">
<svg version="1.1" id="Layer_1" xmlns="http://www.w3.org/2000/svg" xmlns:xlink="http://www.w3.org/1999/xlink" x="0px" y="0px"
	 width="160.5px" height="160.5px" viewBox="0 0 160.5 160.5" enable-background="new 0 0 160.5 160.5" xml:space="preserve">
<linearGradient id="SVGID_1_" gradientUnits="userSpaceOnUse" x1="367.8447" y1="-293.6929" x2="376.3447" y2="-256.6929" gradientTransform="matrix(1 0 0 -1 -288.5 -209.5)">
	<stop  offset="0" style="stop-color:#68CD52"/>
	<stop  offset="1" style="stop-color:#1A97D5"/>
</linearGradient>
<path fill="url(#SVGID_1_)" d="M80.25,10.196c-38.628,0-70.054,31.426-70.054,70.054s31.426,70.055,70.054,70.055
	s70.055-31.427,70.055-70.055S118.878,10.196,80.25,10.196z M80.25,149.805c-38.353,0-69.554-31.203-69.554-69.555
	c0-9.309,1.852-18.189,5.184-26.312l1.712,0.708c-3.241,7.904-5.042,16.545-5.042,25.603c0,37.33,30.371,67.701,67.701,67.701
	s67.701-30.371,67.701-67.701c0-37.331-30.371-67.701-67.701-67.701c-28.096,0-52.244,17.207-62.474,41.633l-1.712-0.708
	C26.572,28.375,51.383,10.696,80.25,10.696c38.352,0,69.555,31.202,69.555,69.554C149.805,118.602,118.602,149.805,80.25,149.805z
	 M18.238,54.373C28.393,30.127,52.362,13.049,80.25,13.049c11.824,0,22.938,3.081,32.602,8.465l-11.504,19.601
	c0.156,0.078,0.291,0.18,0.401,0.301l11.535-19.652c20.096,11.396,33.766,32.834,34.141,57.452h-41.008
	c0.019,0.167,0.019,0.335-0.009,0.5h41.029c0.002,0.179,0.015,0.355,0.015,0.534c0,37.055-30.146,67.201-67.201,67.201
	c-3.088,0-6.122-0.229-9.1-0.633l10.265-54.402c-0.184-0.001-0.345-0.034-0.494-0.083l-10.27,54.422
	c-32.523-4.673-57.604-32.709-57.604-66.505c0-8.99,1.788-17.567,5.004-25.412l31.197,12.864c0.017-0.17,0.057-0.336,0.122-0.492
	L18.238,54.373z"/>
<linearGradient id="SVGID_2_" gradientUnits="userSpaceOnUse" x1="295.3027" y1="-277.0264" x2="303.8022" y2="-240.0289" gradientTransform="matrix(1 0 0 -1 -288.5 -209.5)">
	<stop  offset="0" style="stop-color:#68CD52"/>
	<stop  offset="1" style="stop-color:#1A97D5"/>
</linearGradient>
<path fill="url(#SVGID_2_)" d="M18.498,29.78l-0.387-0.316c-3.224,3.94-6.083,8.202-8.499,12.668l0.439,0.238
	C12.453,37.932,15.294,33.696,18.498,29.78z"/>
<linearGradient id="SVGID_3_" gradientUnits="userSpaceOnUse" x1="308.2051" y1="-279.9937" x2="316.7051" y2="-242.9937" gradientTransform="matrix(1 0 0 -1 -288.5 -209.5)">
	<stop  offset="0" style="stop-color:#68CD52"/>
	<stop  offset="1" style="stop-color:#1A97D5"/>
</linearGradient>
<path fill="url(#SVGID_3_)" d="M38.223,12.46l-0.264-0.425c-4.314,2.68-8.397,5.79-12.136,9.242l0.339,0.367
	C29.878,18.213,33.936,15.124,38.223,12.46z"/>
<linearGradient id="SVGID_4_" gradientUnits="userSpaceOnUse" x1="327.5459" y1="-284.436" x2="336.0459" y2="-247.436" gradientTransform="matrix(1 0 0 -1 -288.5 -209.5)">
	<stop  offset="0" style="stop-color:#68CD52"/>
	<stop  offset="1" style="stop-color:#1A97D5"/>
</linearGradient>
<path fill="url(#SVGID_4_)" d="M62.492,2.484L62.38,1.997c-4.957,1.127-9.829,2.739-14.481,4.791l0.202,0.457
	C52.724,5.207,57.565,3.605,62.492,2.484z"/>
<linearGradient id="SVGID_5_" gradientUnits="userSpaceOnUse" x1="290.1777" y1="-275.8506" x2="298.6777" y2="-238.8506" gradientTransform="matrix(1 0 0 -1 -288.5 -209.5)">
	<stop  offset="0" style="stop-color:#68CD52"/>
	<stop  offset="1" style="stop-color:#1A97D5"/>
</linearGradient>
<path fill="url(#SVGID_5_)" d="M5.439,52.558L4.97,52.384c-1.764,4.765-3.078,9.726-3.903,14.745L1.56,67.21
	C2.381,62.222,3.686,57.292,5.439,52.558z"/>
<linearGradient id="SVGID_6_" gradientUnits="userSpaceOnUse" x1="401.3652" y1="-301.4058" x2="409.8664" y2="-264.4006" gradientTransform="matrix(1 0 0 -1 -288.5 -209.5)">
	<stop  offset="0" style="stop-color:#68CD52"/>
	<stop  offset="1" style="stop-color:#1A97D5"/>
</linearGradient>
<path fill="url(#SVGID_6_)" d="M135.959,22.487c-3.662-3.533-7.677-6.731-11.932-9.506l-0.273,0.419
	c4.229,2.757,8.219,5.936,11.857,9.446L135.959,22.487z"/>
<linearGradient id="SVGID_7_" gradientUnits="userSpaceOnUse" x1="351.2637" y1="-289.9062" x2="359.7659" y2="-252.8966" gradientTransform="matrix(1 0 0 -1 -288.5 -209.5)">
	<stop  offset="0" style="stop-color:#68CD52"/>
	<stop  offset="1" style="stop-color:#1A97D5"/>
</linearGradient>
<path fill="url(#SVGID_7_)" d="M88.693,0.942l0.053-0.497c-5.031-0.531-10.22-0.584-15.251-0.164l0.042,0.498
	C78.536,0.361,83.693,0.416,88.693,0.942z"/>
<linearGradient id="SVGID_8_" gradientUnits="userSpaceOnUse" x1="422.2832" y1="-306.2002" x2="430.7832" y2="-269.2002" gradientTransform="matrix(1 0 0 -1 -288.5 -209.5)">
	<stop  offset="0" style="stop-color:#68CD52"/>
	<stop  offset="1" style="stop-color:#1A97D5"/>
</linearGradient>
<path fill="url(#SVGID_8_)" d="M151.708,43.69c-2.315-4.518-5.081-8.842-8.218-12.851l-0.395,0.308
	c3.116,3.984,5.864,8.281,8.166,12.771L151.708,43.69z"/>
<linearGradient id="SVGID_9_" gradientUnits="userSpaceOnUse" x1="293.6133" y1="-276.6416" x2="302.1133" y2="-239.6416" gradientTransform="matrix(1 0 0 -1 -288.5 -209.5)">
	<stop  offset="0" style="stop-color:#68CD52"/>
	<stop  offset="1" style="stop-color:#1A97D5"/>
</linearGradient>
<path fill="url(#SVGID_9_)" d="M0.522,78.337l-0.5-0.012C0.007,78.965,0,79.606,0,80.25c0,4.46,0.369,8.932,1.096,13.291
	l0.493-0.082C0.867,89.127,0.5,84.684,0.5,80.25C0.5,79.61,0.507,78.973,0.522,78.337z"/>
<linearGradient id="SVGID_10_" gradientUnits="userSpaceOnUse" x1="437.3018" y1="-309.6504" x2="445.8018" y2="-272.6504" gradientTransform="matrix(1 0 0 -1 -288.5 -209.5)">
	<stop  offset="0" style="stop-color:#68CD52"/>
	<stop  offset="1" style="stop-color:#1A97D5"/>
</linearGradient>
<path fill="url(#SVGID_10_)" d="M159.698,68.863c-0.716-5.041-1.921-10.029-3.577-14.827l-0.473,0.163
	c1.646,4.768,2.843,9.725,3.556,14.734L159.698,68.863z"/>
<linearGradient id="SVGID_11_" gradientUnits="userSpaceOnUse" x1="376.8262" y1="-295.7568" x2="385.3262" y2="-258.7568" gradientTransform="matrix(1 0 0 -1 -288.5 -209.5)">
	<stop  offset="0" style="stop-color:#68CD52"/>
	<stop  offset="1" style="stop-color:#1A97D5"/>
</linearGradient>
<path fill="url(#SVGID_11_)" d="M114.195,7.511c-4.61-2.154-9.446-3.873-14.375-5.108l-0.121,0.485
	c4.896,1.228,9.703,2.935,14.285,5.076L114.195,7.511z"/>
<linearGradient id="SVGID_12_" gradientUnits="userSpaceOnUse" x1="434.8047" y1="-309.0767" x2="443.3047" y2="-272.0767" gradientTransform="matrix(1 0 0 -1 -288.5 -209.5)">
	<stop  offset="0" style="stop-color:#68CD52"/>
	<stop  offset="1" style="stop-color:#1A97D5"/>
</linearGradient>
<path fill="url(#SVGID_12_)" d="M132.792,140.246l0.33,0.377c3.821-3.352,7.346-7.083,10.471-11.094l-0.395-0.307
	C140.093,133.208,136.592,136.917,132.792,140.246z"/>
<linearGradient id="SVGID_13_" gradientUnits="userSpaceOnUse" x1="443.9375" y1="-311.1733" x2="452.4375" y2="-274.1733" gradientTransform="matrix(1 0 0 -1 -288.5 -209.5)">
	<stop  offset="0" style="stop-color:#68CD52"/>
	<stop  offset="1" style="stop-color:#1A97D5"/>
</linearGradient>
<path fill="url(#SVGID_13_)" d="M149.436,119.943l0.435,0.25c2.537-4.414,4.659-9.088,6.308-13.892l-0.473-0.161
	C154.066,110.914,151.957,115.559,149.436,119.943z"/>
<linearGradient id="SVGID_14_" gradientUnits="userSpaceOnUse" x1="418.4453" y1="-305.313" x2="426.9461" y2="-268.3095" gradientTransform="matrix(1 0 0 -1 -288.5 -209.5)">
	<stop  offset="0" style="stop-color:#68CD52"/>
	<stop  offset="1" style="stop-color:#1A97D5"/>
</linearGradient>
<path fill="url(#SVGID_14_)" d="M110.48,154.07l0.189,0.463c4.699-1.928,9.24-4.317,13.497-7.106l-0.272-0.418
	C119.663,149.779,115.15,152.156,110.48,154.07z"/>
<linearGradient id="SVGID_15_" gradientUnits="userSpaceOnUse" x1="304.9883" y1="-279.2539" x2="313.4883" y2="-242.2539" gradientTransform="matrix(1 0 0 -1 -288.5 -209.5)">
	<stop  offset="0" style="stop-color:#68CD52"/>
	<stop  offset="1" style="stop-color:#1A97D5"/>
</linearGradient>
<path fill="url(#SVGID_15_)" d="M3.722,104.475c1.532,4.844,3.54,9.566,5.969,14.036l0.439-0.237
	c-2.414-4.442-4.41-9.135-5.932-13.948L3.722,104.475z"/>
<linearGradient id="SVGID_16_" gradientUnits="userSpaceOnUse" x1="444.791" y1="-311.3706" x2="453.291" y2="-274.3706" gradientTransform="matrix(1 0 0 -1 -288.5 -209.5)">
	<stop  offset="0" style="stop-color:#68CD52"/>
	<stop  offset="1" style="stop-color:#1A97D5"/>
</linearGradient>
<path fill="url(#SVGID_16_)" d="M160,80.081v0.169c0,5.073-0.479,10.15-1.425,15.09l0.489,0.094
	c0.953-4.97,1.436-10.078,1.436-15.184v-0.169H160z"/>
<linearGradient id="SVGID_17_" gradientUnits="userSpaceOnUse" x1="396.5947" y1="-300.312" x2="405.0934" y2="-263.318" gradientTransform="matrix(1 0 0 -1 -288.5 -209.5)">
	<stop  offset="0" style="stop-color:#68CD52"/>
	<stop  offset="1" style="stop-color:#1A97D5"/>
</linearGradient>
<path fill="url(#SVGID_17_)" d="M84.887,159.866l0.028,0.5c5.09-0.292,10.162-1.069,15.075-2.312l-0.123-0.484
	C94.984,158.805,89.943,159.577,84.887,159.866z"/>
<linearGradient id="SVGID_18_" gradientUnits="userSpaceOnUse" x1="323.1875" y1="-283.4336" x2="331.6875" y2="-246.4336" gradientTransform="matrix(1 0 0 -1 -288.5 -209.5)">
	<stop  offset="0" style="stop-color:#68CD52"/>
	<stop  offset="1" style="stop-color:#1A97D5"/>
</linearGradient>
<path fill="url(#SVGID_18_)" d="M16.139,127.691l-0.401,0.297c3.025,4.082,6.458,7.898,10.202,11.343l0.339-0.367
	C22.557,135.541,19.145,131.748,16.139,127.691z"/>
<linearGradient id="SVGID_19_" gradientUnits="userSpaceOnUse" x1="346.2139" y1="-288.7246" x2="354.7139" y2="-251.7246" gradientTransform="matrix(1 0 0 -1 -288.5 -209.5)">
	<stop  offset="0" style="stop-color:#68CD52"/>
	<stop  offset="1" style="stop-color:#1A97D5"/>
</linearGradient>
<path fill="url(#SVGID_19_)" d="M34.73,146.352c4.191,2.892,8.674,5.391,13.323,7.43l0.201-0.457
	c-4.621-2.026-9.075-4.512-13.24-7.385L34.73,146.352z"/>
<linearGradient id="SVGID_20_" gradientUnits="userSpaceOnUse" x1="371.6367" y1="-294.5083" x2="380.1429" y2="-257.4812" gradientTransform="matrix(1 0 0 -1 -288.5 -209.5)">
	<stop  offset="0" style="stop-color:#68CD52"/>
	<stop  offset="1" style="stop-color:#1A97D5"/>
</linearGradient>
<path fill="url(#SVGID_20_)" d="M58.654,157.562c4.883,1.36,9.936,2.261,15.016,2.672l0.04-0.498
	c-5.049-0.408-10.069-1.303-14.921-2.656L58.654,157.562z"/>
</svg>
