<?xml version="1.0" encoding="utf-8"?>
<!-- Generator: Adobe Illustrator 16.0.0, SVG Export Plug-In . SVG Version: 6.00 Build 0)  -->
<!DOCTYPE svg PUBLIC "-//W3C//DTD SVG 1.1//EN" "http://www.w3.org/Graphics/SVG/1.1/DTD/svg11.dtd">
<svg version="1.1" id="Layer_1" xmlns="http://www.w3.org/2000/svg" xmlns:xlink="http://www.w3.org/1999/xlink" x="0px" y="0px"
	 width="160.5px" height="160.5px" viewBox="0 0 160.5 160.5" enable-background="new 0 0 160.5 160.5" xml:space="preserve">
<linearGradient id="SVGID_1_" gradientUnits="userSpaceOnUse" x1="362.2334" y1="-291.2676" x2="370.2932" y2="-256.1835" gradientTransform="matrix(1 0 0 -1 -288.5 -209.5)">
	<stop  offset="0" style="stop-color:#68CD52"/>
	<stop  offset="1" style="stop-color:#1A97D5"/>
</linearGradient>
<path fill="url(#SVGID_1_)" d="M50.916,53.525c0.596-0.679,1.21-1.348,1.857-1.991c7.439-7.38,17.4-11.445,28.047-11.445
	c10.447,0,20.266,4.058,27.646,11.425c0.65,0.649,1.267,1.325,1.864,2.011h9.504c0.409-0.777,0.493-0.935,0.902-1.712
	c-4.217-6.14-9.812-11.223-16.312-14.858l-0.432-0.25c-6.896-3.763-14.794-5.899-23.172-5.899c-16.772,0-31.529,8.256-40.327,21.005
	c0.41,0.778,0.493,0.936,0.903,1.714H50.916z"/>
<linearGradient id="SVGID_2_" gradientUnits="userSpaceOnUse" x1="394.9209" y1="-299.9131" x2="403.4209" y2="-262.9131" gradientTransform="matrix(1 0 0 -1 -288.5 -209.5)">
	<stop  offset="0" style="stop-color:#68CD52"/>
	<stop  offset="1" style="stop-color:#1A97D5"/>
</linearGradient>
<polygon fill="url(#SVGID_2_)" points="100.773,96.836 110.74,96.836 116.016,70.927 126.566,70.927 128.326,62.095 97.257,62.095 
	95.497,70.927 106.05,70.927 "/>
<linearGradient id="SVGID_3_" gradientUnits="userSpaceOnUse" x1="350.7617" y1="-289.7671" x2="359.2617" y2="-252.7671" gradientTransform="matrix(1 0 0 -1 -288.5 -209.5)">
	<stop  offset="0" style="stop-color:#68CD52"/>
	<stop  offset="1" style="stop-color:#1A97D5"/>
</linearGradient>
<polygon fill="url(#SVGID_3_)" points="46.617,96.836 50.134,79.171 58.927,96.247 74.755,79.76 71.238,96.836 81.205,96.834 
	88.24,62.093 78.274,62.093 62.445,79.171 54.238,62.095 43.687,62.095 36.065,96.836 "/>
<linearGradient id="SVGID_4_" gradientUnits="userSpaceOnUse" x1="373.6855" y1="-296.731" x2="380.9776" y2="-264.9892" gradientTransform="matrix(1 0 0 -1 -288.5 -209.5)">
	<stop  offset="0" style="stop-color:#68CD52"/>
	<stop  offset="1" style="stop-color:#1A97D5"/>
</linearGradient>
<path fill="url(#SVGID_4_)" d="M119.703,105.404h-9.523c-0.559,0.636-1.131,1.263-1.732,1.867
	c-7.426,7.461-17.236,11.567-27.625,11.567c-1.373,0-2.727-0.077-4.063-0.214l-0.502-0.049c-9.998-1.148-18.871-6.018-25.187-13.172
	h-9.542c-0.41,0.781-0.491,0.938-0.901,1.719c7.67,11.021,19.797,18.761,33.814,20.584l0.499,0.061
	c1.928,0.23,3.89,0.356,5.88,0.356c16.42,0,31.011-8.339,39.785-21.004C120.195,106.342,120.111,106.184,119.703,105.404z"/>
</svg>
