<?xml version="1.0" encoding="utf-8"?>
<!-- Generator: Adobe Illustrator 16.0.0, SVG Export Plug-In . SVG Version: 6.00 Build 0)  -->
<!DOCTYPE svg PUBLIC "-//W3C//DTD SVG 1.1//EN" "http://www.w3.org/Graphics/SVG/1.1/DTD/svg11.dtd">
<svg version="1.1" id="Layer_1" xmlns="http://www.w3.org/2000/svg" xmlns:xlink="http://www.w3.org/1999/xlink" x="0px" y="0px"
	 width="160.5px" height="160.5px" viewBox="0 0 160.5 160.5" enable-background="new 0 0 160.5 160.5" xml:space="preserve">
<g>
	<linearGradient id="SVGID_1_" gradientUnits="userSpaceOnUse" x1="79.3442" y1="84.1943" x2="87.8442" y2="47.1943">
		<stop  offset="0" style="stop-color:#68CD52"/>
		<stop  offset="1" style="stop-color:#1A97D5"/>
	</linearGradient>
	<path fill="url(#SVGID_1_)" d="M80.25,10.196c-38.628,0-70.054,31.426-70.054,70.054s31.426,70.054,70.054,70.054
		s70.054-31.426,70.054-70.054S118.878,10.196,80.25,10.196z M80.25,149.804c-38.353,0-69.554-31.202-69.554-69.554
		c0-9.309,1.852-18.189,5.184-26.312l1.712,0.708c-3.241,7.904-5.042,16.545-5.042,25.603c0,37.33,30.371,67.701,67.701,67.701
		s67.701-30.371,67.701-67.701c0-37.331-30.371-67.701-67.701-67.701c-28.096,0-52.244,17.207-62.474,41.633l-1.712-0.708
		C26.572,28.375,51.383,10.696,80.25,10.696c38.352,0,69.554,31.202,69.554,69.554C149.804,118.602,118.602,149.804,80.25,149.804z
		 M80.82,30.806c-16.772,0-31.529,8.256-40.327,21.005c0.41,0.778,0.493,0.936,0.903,1.714h9.52c0.596-0.679,1.21-1.348,1.857-1.991
		c7.439-7.38,17.4-11.445,28.047-11.445c10.448,0,20.266,4.058,27.646,11.425c0.65,0.649,1.266,1.325,1.864,2.011h9.504
		c0.409-0.777,0.493-0.935,0.903-1.712c-4.218-6.14-9.812-11.223-16.313-14.858l8.86-15.191
		c20.096,11.396,33.766,32.834,34.141,57.452h-33.098l1.688-8.289h10.552l1.759-8.832H97.257l-1.76,8.832h10.553l-5.276,25.909
		h9.966l3.486-17.12h33.212c0.002,0.179,0.014,0.355,0.014,0.534c0,37.055-30.146,67.201-67.201,67.201
		c-3.088,0-6.122-0.228-9.1-0.633l3.789-19.051c1.928,0.231,3.89,0.357,5.881,0.357c16.419,0,31.01-8.339,39.784-21.004
		c-0.41-0.778-0.493-0.936-0.902-1.716h-9.523c-0.559,0.636-1.131,1.263-1.733,1.868c-7.426,7.46-17.236,11.567-27.625,11.567
		c-1.373,0-2.727-0.077-4.063-0.214l4.334-21.791h0.112l7.035-34.741h-9.966L62.445,79.171l-8.207-17.076H43.687l-0.564,2.573
		L18.238,54.373C28.393,30.127,52.362,13.049,80.25,13.049c11.824,0,22.938,3.081,32.601,8.465l-8.859,15.191
		C97.095,32.942,89.198,30.806,80.82,30.806z M43.013,65.165l-6.948,31.671h10.552l3.517-17.665l8.793,17.076L74.755,79.76
		l-3.517,17.076h9.343l-4.324,21.74c-9.998-1.148-18.871-6.017-25.187-13.171h-9.542c-0.41,0.781-0.491,0.938-0.901,1.718
		c7.67,11.022,19.797,18.761,33.814,20.584l-3.789,19.048c-32.523-4.673-57.604-32.709-57.604-66.505
		c0-8.99,1.788-17.567,5.004-25.412L43.013,65.165z"/>
	<linearGradient id="SVGID_2_" gradientUnits="userSpaceOnUse" x1="6.8032" y1="67.5293" x2="15.3032" y2="30.5293">
		<stop  offset="0" style="stop-color:#68CD52"/>
		<stop  offset="1" style="stop-color:#1A97D5"/>
	</linearGradient>
	<path fill="url(#SVGID_2_)" d="M18.498,29.78l-0.387-0.316c-3.224,3.94-6.083,8.202-8.499,12.668l0.439,0.238
		C12.453,37.932,15.294,33.696,18.498,29.78z"/>
	<linearGradient id="SVGID_3_" gradientUnits="userSpaceOnUse" x1="19.7036" y1="70.4932" x2="28.2036" y2="33.4932">
		<stop  offset="0" style="stop-color:#68CD52"/>
		<stop  offset="1" style="stop-color:#1A97D5"/>
	</linearGradient>
	<path fill="url(#SVGID_3_)" d="M38.223,12.46l-0.264-0.425c-4.314,2.68-8.397,5.79-12.136,9.242l0.339,0.367
		C29.878,18.213,33.936,15.124,38.223,12.46z"/>
	<linearGradient id="SVGID_4_" gradientUnits="userSpaceOnUse" x1="39.0464" y1="74.9365" x2="47.5464" y2="37.9365">
		<stop  offset="0" style="stop-color:#68CD52"/>
		<stop  offset="1" style="stop-color:#1A97D5"/>
	</linearGradient>
	<path fill="url(#SVGID_4_)" d="M62.492,2.484L62.38,1.997c-4.957,1.127-9.829,2.739-14.481,4.791l0.202,0.457
		C52.724,5.207,57.565,3.605,62.492,2.484z"/>
	<linearGradient id="SVGID_5_" gradientUnits="userSpaceOnUse" x1="1.6772" y1="66.3516" x2="10.1772" y2="29.3516">
		<stop  offset="0" style="stop-color:#68CD52"/>
		<stop  offset="1" style="stop-color:#1A97D5"/>
	</linearGradient>
	<path fill="url(#SVGID_5_)" d="M5.439,52.558L4.97,52.384c-1.764,4.765-3.078,9.726-3.903,14.745l0.493,0.081
		C2.381,62.222,3.686,57.292,5.439,52.558z"/>
	<linearGradient id="SVGID_6_" gradientUnits="userSpaceOnUse" x1="112.8672" y1="91.8955" x2="121.3672" y2="54.8955">
		<stop  offset="0" style="stop-color:#68CD52"/>
		<stop  offset="1" style="stop-color:#1A97D5"/>
	</linearGradient>
	<path fill="url(#SVGID_6_)" d="M135.959,22.487c-3.662-3.533-7.677-6.731-11.932-9.506l-0.273,0.419
		c4.229,2.757,8.218,5.936,11.857,9.446L135.959,22.487z"/>
	<linearGradient id="SVGID_7_" gradientUnits="userSpaceOnUse" x1="62.7681" y1="80.3862" x2="71.2681" y2="43.3862">
		<stop  offset="0" style="stop-color:#68CD52"/>
		<stop  offset="1" style="stop-color:#1A97D5"/>
	</linearGradient>
	<path fill="url(#SVGID_7_)" d="M88.693,0.942l0.053-0.497c-5.031-0.531-10.22-0.584-15.251-0.164l0.042,0.498
		C78.536,0.361,83.693,0.416,88.693,0.942z"/>
	<linearGradient id="SVGID_8_" gradientUnits="userSpaceOnUse" x1="133.7832" y1="96.7002" x2="142.2832" y2="59.7002">
		<stop  offset="0" style="stop-color:#68CD52"/>
		<stop  offset="1" style="stop-color:#1A97D5"/>
	</linearGradient>
	<path fill="url(#SVGID_8_)" d="M151.708,43.69c-2.316-4.518-5.081-8.842-8.218-12.851l-0.395,0.308
		c3.117,3.984,5.865,8.281,8.167,12.771L151.708,43.69z"/>
	<linearGradient id="SVGID_9_" gradientUnits="userSpaceOnUse" x1="5.1138" y1="67.1416" x2="13.6138" y2="30.1416">
		<stop  offset="0" style="stop-color:#68CD52"/>
		<stop  offset="1" style="stop-color:#1A97D5"/>
	</linearGradient>
	<path fill="url(#SVGID_9_)" d="M0.522,78.337l-0.5-0.012C0.007,78.965,0,79.606,0,80.25c0,4.46,0.369,8.932,1.096,13.291
		l0.493-0.082C0.867,89.127,0.5,84.683,0.5,80.25C0.5,79.61,0.507,78.973,0.522,78.337z"/>
	<linearGradient id="SVGID_10_" gradientUnits="userSpaceOnUse" x1="148.8018" y1="100.1504" x2="157.3018" y2="63.1504">
		<stop  offset="0" style="stop-color:#68CD52"/>
		<stop  offset="1" style="stop-color:#1A97D5"/>
	</linearGradient>
	<path fill="url(#SVGID_10_)" d="M159.698,68.863c-0.716-5.041-1.92-10.029-3.577-14.827l-0.473,0.163
		c1.647,4.768,2.843,9.725,3.556,14.734L159.698,68.863z"/>
	<linearGradient id="SVGID_11_" gradientUnits="userSpaceOnUse" x1="88.3262" y1="86.2578" x2="96.8262" y2="49.2578">
		<stop  offset="0" style="stop-color:#68CD52"/>
		<stop  offset="1" style="stop-color:#1A97D5"/>
	</linearGradient>
	<path fill="url(#SVGID_11_)" d="M114.195,7.511c-4.61-2.154-9.446-3.873-14.375-5.108l-0.121,0.485
		c4.897,1.228,9.703,2.935,14.285,5.076L114.195,7.511z"/>
	<linearGradient id="SVGID_12_" gradientUnits="userSpaceOnUse" x1="146.3047" y1="99.5771" x2="154.8047" y2="62.5771">
		<stop  offset="0" style="stop-color:#68CD52"/>
		<stop  offset="1" style="stop-color:#1A97D5"/>
	</linearGradient>
	<path fill="url(#SVGID_12_)" d="M132.792,140.246l0.33,0.377c3.822-3.351,7.346-7.083,10.471-11.094l-0.395-0.307
		C140.093,133.208,136.592,136.917,132.792,140.246z"/>
	<linearGradient id="SVGID_13_" gradientUnits="userSpaceOnUse" x1="155.4365" y1="101.6748" x2="163.9365" y2="64.6748">
		<stop  offset="0" style="stop-color:#68CD52"/>
		<stop  offset="1" style="stop-color:#1A97D5"/>
	</linearGradient>
	<path fill="url(#SVGID_13_)" d="M149.436,119.944l0.434,0.25c2.537-4.414,4.66-9.088,6.308-13.892l-0.473-0.162
		C154.066,110.914,151.957,115.559,149.436,119.944z"/>
	<linearGradient id="SVGID_14_" gradientUnits="userSpaceOnUse" x1="129.9434" y1="95.8184" x2="138.4434" y2="58.8184">
		<stop  offset="0" style="stop-color:#68CD52"/>
		<stop  offset="1" style="stop-color:#1A97D5"/>
	</linearGradient>
	<path fill="url(#SVGID_14_)" d="M110.481,154.07l0.189,0.463c4.699-1.927,9.24-4.317,13.497-7.106l-0.273-0.418
		C119.663,149.78,115.15,152.156,110.481,154.07z"/>
	<linearGradient id="SVGID_15_" gradientUnits="userSpaceOnUse" x1="16.4868" y1="69.7539" x2="24.9868" y2="32.7539">
		<stop  offset="0" style="stop-color:#68CD52"/>
		<stop  offset="1" style="stop-color:#1A97D5"/>
	</linearGradient>
	<path fill="url(#SVGID_15_)" d="M3.722,104.475c1.532,4.844,3.54,9.566,5.969,14.036l0.439-0.238
		c-2.414-4.442-4.41-9.135-5.932-13.948L3.722,104.475z"/>
	<linearGradient id="SVGID_16_" gradientUnits="userSpaceOnUse" x1="156.29" y1="101.8711" x2="164.79" y2="64.8711">
		<stop  offset="0" style="stop-color:#68CD52"/>
		<stop  offset="1" style="stop-color:#1A97D5"/>
	</linearGradient>
	<path fill="url(#SVGID_16_)" d="M160,80.081v0.169c0,5.073-0.479,10.15-1.425,15.09l0.49,0.094
		c0.952-4.97,1.435-10.078,1.435-15.184v-0.169H160z"/>
	<linearGradient id="SVGID_17_" gradientUnits="userSpaceOnUse" x1="108.0967" y1="90.7998" x2="116.5967" y2="53.7998">
		<stop  offset="0" style="stop-color:#68CD52"/>
		<stop  offset="1" style="stop-color:#1A97D5"/>
	</linearGradient>
	<path fill="url(#SVGID_17_)" d="M84.886,159.866l0.029,0.5c5.09-0.292,10.162-1.069,15.075-2.312l-0.123-0.484
		C94.985,158.805,89.944,159.577,84.886,159.866z"/>
	<linearGradient id="SVGID_18_" gradientUnits="userSpaceOnUse" x1="34.687" y1="73.9351" x2="43.187" y2="36.9351">
		<stop  offset="0" style="stop-color:#68CD52"/>
		<stop  offset="1" style="stop-color:#1A97D5"/>
	</linearGradient>
	<path fill="url(#SVGID_18_)" d="M16.139,127.691l-0.401,0.297c3.025,4.083,6.458,7.899,10.202,11.343l0.339-0.367
		C22.557,135.541,19.145,131.748,16.139,127.691z"/>
	<linearGradient id="SVGID_19_" gradientUnits="userSpaceOnUse" x1="57.7144" y1="79.2251" x2="66.2144" y2="42.2251">
		<stop  offset="0" style="stop-color:#68CD52"/>
		<stop  offset="1" style="stop-color:#1A97D5"/>
	</linearGradient>
	<path fill="url(#SVGID_19_)" d="M34.73,146.351c4.191,2.892,8.674,5.391,13.323,7.43l0.201-0.457
		c-4.621-2.026-9.075-4.511-13.24-7.385L34.73,146.351z"/>
	<linearGradient id="SVGID_20_" gradientUnits="userSpaceOnUse" x1="83.124" y1="85.0625" x2="91.624" y2="48.0625">
		<stop  offset="0" style="stop-color:#68CD52"/>
		<stop  offset="1" style="stop-color:#1A97D5"/>
	</linearGradient>
	<path fill="url(#SVGID_20_)" d="M58.654,157.562c4.883,1.361,9.936,2.261,15.016,2.673l0.04-0.498
		c-5.049-0.409-10.069-1.304-14.921-2.657L58.654,157.562z"/>
</g>
</svg>
