<?xml version="1.0" encoding="utf-8"?>
<!-- Generator: Adobe Illustrator 16.0.0, SVG Export Plug-In . SVG Version: 6.00 Build 0)  -->
<!DOCTYPE svg PUBLIC "-//W3C//DTD SVG 1.1//EN" "http://www.w3.org/Graphics/SVG/1.1/DTD/svg11.dtd">
<svg version="1.1" id="Layer_1" xmlns="http://www.w3.org/2000/svg" xmlns:xlink="http://www.w3.org/1999/xlink" x="0px" y="0px"
	 width="160px" height="160px" viewBox="-37 -37 160 160" enable-background="new -37 -37 160 160" xml:space="preserve">
<linearGradient id="SVGID_1_" gradientUnits="userSpaceOnUse" x1="334.7969" y1="-393.5103" x2="334.7969" y2="-259.5587" gradientTransform="matrix(1 0 0 -1 -288.5 -284)">
	<stop  offset="0" style="stop-color:#73C054"/>
	<stop  offset="1" style="stop-color:#1E97D4"/>
</linearGradient>
<path fill="url(#SVGID_1_)" d="M73.853,20.991L53.418-1.266H15.377V83.52h3.364v3.718h58.474V24.708l-3.362-3.663V20.991z
	 M54.13,1.947l1.708,1.862l-0.025,0.024l15.059,16.402H54.126V1.947H54.13z M17.026,0.384h35.163v21.798h20.017V81.87h-55.18V0.384z
	 M75.569,25.352v60.232H20.388V83.52h53.464V23.481L75.569,25.352z"/>
<linearGradient id="SVGID_2_" gradientUnits="userSpaceOnUse" x1="324.2334" y1="-393.5117" x2="324.2334" y2="-259.5573" gradientTransform="matrix(1 0 0 -1 -288.5 -284)">
	<stop  offset="0" style="stop-color:#73C054"/>
	<stop  offset="1" style="stop-color:#1E97D4"/>
</linearGradient>
<path fill="url(#SVGID_2_)" d="M35.732,41.826c-7.277,0-13.198,5.938-13.198,13.234c0,4.709,2.473,8.837,6.177,11.185v13.636
	l7.143-4.127l7.144,4.127V66.098c3.57-2.371,5.933-6.43,5.933-11.037C48.931,47.764,43.009,41.826,35.732,41.826z M41.097,76.577
	l-5.242-3.024l-5.242,3.024v-9.322c1.574,0.669,3.307,1.036,5.12,1.036c1.912,0,3.721-0.418,5.364-1.152V76.577L41.097,76.577z
	 M35.732,66.387c-6.228,0-11.296-5.082-11.296-11.326c0-6.247,5.07-11.327,11.296-11.327c6.228,0,11.296,5.08,11.296,11.327
	C47.028,61.305,41.96,66.387,35.732,66.387z"/>
<linearGradient id="SVGID_3_" gradientUnits="userSpaceOnUse" x1="324.2334" y1="-393.5078" x2="324.2332" y2="-259.5604" gradientTransform="matrix(1 0 0 -1 -288.5 -284)">
	<stop  offset="0" style="stop-color:#73C054"/>
	<stop  offset="1" style="stop-color:#1E97D4"/>
</linearGradient>
<path fill="url(#SVGID_3_)" d="M35.732,46.053c-4.952,0-8.979,4.04-8.979,9.004c0,4.968,4.028,9.004,8.979,9.004
	c4.953,0,8.98-4.036,8.98-9.004C44.713,50.093,40.686,46.053,35.732,46.053z M35.732,62.157c-3.904,0-7.078-3.184-7.078-7.101
	c0-3.913,3.176-7.097,7.078-7.097c3.904,0,7.08,3.184,7.08,7.097C42.812,58.974,39.636,62.157,35.732,62.157z"/>
</svg>
