<?xml version="1.0" encoding="utf-8"?>
<!-- Generator: Adobe Illustrator 16.0.0, SVG Export Plug-In . SVG Version: 6.00 Build 0)  -->
<!DOCTYPE svg PUBLIC "-//W3C//DTD SVG 1.1//EN" "http://www.w3.org/Graphics/SVG/1.1/DTD/svg11.dtd">
<svg version="1.1" id="Layer_1" xmlns="http://www.w3.org/2000/svg" xmlns:xlink="http://www.w3.org/1999/xlink" x="0px" y="0px"
	 width="86px" height="86px" viewBox="0 0 86 86" enable-background="new 0 0 86 86" xml:space="preserve">
<g>
	<linearGradient id="SVGID_1_" gradientUnits="userSpaceOnUse" x1="43.0005" y1="78.75" x2="43.0005" y2="6.7496">
		<stop  offset="0" style="stop-color:#73C054"/>
		<stop  offset="1" style="stop-color:#1E97D4"/>
	</linearGradient>
	<path fill="url(#SVGID_1_)" d="M43,3.091c-21.88,0-39.681,17.85-39.681,39.79c0,21.94,17.801,39.79,39.681,39.79
		c21.88,0,39.681-17.85,39.681-39.79C82.681,20.941,64.88,3.091,43,3.091z M43,81.783c-21.392,0-38.795-17.452-38.795-38.902
		C4.205,21.431,21.608,3.979,43,3.979c21.392,0,38.796,17.452,38.796,38.902C81.796,64.332,64.392,81.783,43,81.783z"/>
	<linearGradient id="SVGID_2_" gradientUnits="userSpaceOnUse" x1="1.2104" y1="78.75" x2="1.2104" y2="6.7496">
		<stop  offset="0" style="stop-color:#73C054"/>
		<stop  offset="1" style="stop-color:#1E97D4"/>
	</linearGradient>
	<path fill="url(#SVGID_2_)" d="M1.102,38.575l-0.881-0.089C0.075,39.935,0,41.414,0,42.881c0,3.931,0.528,7.826,1.568,11.578
		l0.853-0.238c-1.019-3.674-1.535-7.49-1.535-11.34C0.886,41.443,0.958,39.995,1.102,38.575z"/>
	<linearGradient id="SVGID_3_" gradientUnits="userSpaceOnUse" x1="7.6265" y1="78.75" x2="7.6265" y2="6.7496">
		<stop  offset="0" style="stop-color:#73C054"/>
		<stop  offset="1" style="stop-color:#1E97D4"/>
	</linearGradient>
	<path fill="url(#SVGID_3_)" d="M12.232,14.044l-0.646-0.606C7.891,17.4,5.008,21.955,3.021,26.976l0.823,0.328
		C5.791,22.387,8.613,17.925,12.232,14.044z"/>
	<linearGradient id="SVGID_4_" gradientUnits="userSpaceOnUse" x1="11.9014" y1="78.75" x2="11.9014" y2="6.7496">
		<stop  offset="0" style="stop-color:#73C054"/>
		<stop  offset="1" style="stop-color:#1E97D4"/>
	</linearGradient>
	<path fill="url(#SVGID_4_)" d="M7.031,64.859l-0.756,0.463c2.812,4.617,6.417,8.621,10.716,11.899l0.536-0.708
		C13.316,73.303,9.785,69.381,7.031,64.859z"/>
	<linearGradient id="SVGID_5_" gradientUnits="userSpaceOnUse" x1="35.1436" y1="78.75" x2="35.1436" y2="6.7496">
		<stop  offset="0" style="stop-color:#73C054"/>
		<stop  offset="1" style="stop-color:#1E97D4"/>
	</linearGradient>
	<path fill="url(#SVGID_5_)" d="M27.287,83.031C32.291,85.001,37.578,86,43,86v-0.888c-5.311,0-10.488-0.979-15.39-2.909
		L27.287,83.031z"/>
	<linearGradient id="SVGID_6_" gradientUnits="userSpaceOnUse" x1="76.8784" y1="78.75" x2="76.8784" y2="6.7496">
		<stop  offset="0" style="stop-color:#73C054"/>
		<stop  offset="1" style="stop-color:#1E97D4"/>
	</linearGradient>
	<path fill="url(#SVGID_6_)" d="M81.086,24.83l0.8-0.38c-2.308-4.883-5.473-9.245-9.408-12.962l-0.607,0.646
		C75.726,15.775,78.827,20.047,81.086,24.83z"/>
	<linearGradient id="SVGID_7_" gradientUnits="userSpaceOnUse" x1="55.1499" y1="78.75" x2="55.1499" y2="6.7496">
		<stop  offset="0" style="stop-color:#73C054"/>
		<stop  offset="1" style="stop-color:#1E97D4"/>
	</linearGradient>
	<path fill="url(#SVGID_7_)" d="M62.851,4.623C58.066,2.121,52.916,0.566,47.541,0l-0.092,0.883
		C52.712,1.437,57.756,2.96,62.44,5.41L62.851,4.623z"/>
	<linearGradient id="SVGID_8_" gradientUnits="userSpaceOnUse" x1="28.3208" y1="78.75" x2="28.3208" y2="6.7496">
		<stop  offset="0" style="stop-color:#73C054"/>
		<stop  offset="1" style="stop-color:#1E97D4"/>
	</linearGradient>
	<path fill="url(#SVGID_8_)" d="M35.885,1.25l-0.149-0.875c-5.317,0.907-10.358,2.79-14.98,5.597l0.458,0.76
		C25.742,3.982,30.678,2.138,35.885,1.25z"/>
	<linearGradient id="SVGID_9_" gradientUnits="userSpaceOnUse" x1="85.1089" y1="78.75" x2="85.1089" y2="6.7496">
		<stop  offset="0" style="stop-color:#73C054"/>
		<stop  offset="1" style="stop-color:#1E97D4"/>
	</linearGradient>
	<path fill="url(#SVGID_9_)" d="M85.415,35.752l-0.874,0.146c0.38,2.29,0.573,4.64,0.573,6.983c0,2.934-0.302,5.866-0.897,8.716
		l0.867,0.182C85.691,48.87,86,45.876,86,42.881C86,40.489,85.802,38.091,85.415,35.752z"/>
	<linearGradient id="SVGID_10_" gradientUnits="userSpaceOnUse" x1="53.4678" y1="78.75" x2="53.4678" y2="6.7496">
		<stop  offset="0" style="stop-color:#73C054"/>
		<stop  offset="1" style="stop-color:#1E97D4"/>
	</linearGradient>
	<path fill="url(#SVGID_10_)" d="M45.697,85.027l0.055,0.886c5.4-0.342,10.611-1.679,15.487-3.973l-0.375-0.805
		C56.088,83.383,50.985,84.692,45.697,85.027z"/>
	<linearGradient id="SVGID_11_" gradientUnits="userSpaceOnUse" x1="75.8218" y1="78.75" x2="75.8218" y2="6.7496">
		<stop  offset="0" style="stop-color:#73C054"/>
		<stop  offset="1" style="stop-color:#1E97D4"/>
	</linearGradient>
	<path fill="url(#SVGID_11_)" d="M70.562,74.814l0.579,0.671c4.087-3.55,7.431-7.775,9.94-12.56l-0.783-0.413
		C77.841,67.199,74.565,71.337,70.562,74.814z"/>
	<linearGradient id="SVGID_12_" gradientUnits="userSpaceOnUse" x1="43.0005" y1="78.75" x2="43.0005" y2="6.7496">
		<stop  offset="0" style="stop-color:#73C054"/>
		<stop  offset="1" style="stop-color:#1E97D4"/>
	</linearGradient>
	<path fill="url(#SVGID_12_)" d="M43,6.24c-20.149,0-36.541,16.437-36.541,36.641c0,20.203,16.392,36.641,36.541,36.641
		s36.541-16.438,36.541-36.641C79.541,22.677,63.149,6.24,43,6.24z M43,78.634c-19.661,0-35.655-16.039-35.655-35.753
		S23.339,7.128,43,7.128c19.66,0,35.655,16.039,35.655,35.753S62.66,78.634,43,78.634z"/>
	<linearGradient id="SVGID_13_" gradientUnits="userSpaceOnUse" x1="43.0005" y1="78.75" x2="43.0005" y2="6.7496">
		<stop  offset="0" style="stop-color:#73C054"/>
		<stop  offset="1" style="stop-color:#1E97D4"/>
	</linearGradient>
	<path fill="url(#SVGID_13_)" d="M43,7.424c-19.497,0-35.36,15.906-35.36,35.458c0,19.55,15.863,35.456,35.36,35.456
		c19.498,0,35.361-15.906,35.361-35.456C78.361,23.33,62.498,7.424,43,7.424z M43,77.45c-19.009,0-34.474-15.508-34.474-34.568
		c0-19.062,15.465-34.57,34.474-34.57c19.01,0,34.475,15.508,34.475,34.57C77.475,61.942,62.01,77.45,43,77.45z"/>
	<linearGradient id="SVGID_14_" gradientUnits="userSpaceOnUse" x1="44.772" y1="78.75" x2="44.772" y2="6.7496">
		<stop  offset="0" style="stop-color:#73C054"/>
		<stop  offset="1" style="stop-color:#1E97D4"/>
	</linearGradient>
	<path fill="url(#SVGID_14_)" d="M59.583,31.17L48.6,19.207H28.153V64.78h1.808v1.998h31.43v-33.61l-1.808-1.969V31.17z
		 M48.982,20.934l0.919,1.001l-0.014,0.013l8.094,8.816h-9V20.934z M29.039,20.094h18.901V31.81h10.758v32.082H29.039V20.094z
		 M60.506,33.514v32.375h-29.66V64.78h28.737V32.509L60.506,33.514z"/>
	<linearGradient id="SVGID_15_" gradientUnits="userSpaceOnUse" x1="39.0933" y1="78.75" x2="39.0933" y2="6.7496">
		<stop  offset="0" style="stop-color:#73C054"/>
		<stop  offset="1" style="stop-color:#1E97D4"/>
	</linearGradient>
	<path fill="url(#SVGID_15_)" d="M39.094,42.369c-3.912,0-7.094,3.191-7.094,7.113c0,2.531,1.329,4.751,3.32,6.012v7.329
		l3.839-2.218l3.84,2.218v-7.408c1.919-1.274,3.188-3.456,3.188-5.932C46.187,45.56,43.005,42.369,39.094,42.369z M41.977,61.048
		l-2.818-1.626l-2.817,1.626v-5.011c0.846,0.359,1.777,0.557,2.752,0.557c1.027,0,2-0.225,2.883-0.62V61.048z M39.094,55.57
		c-3.348,0-6.072-2.731-6.072-6.088s2.725-6.088,6.072-6.088s6.071,2.731,6.071,6.088S42.441,55.57,39.094,55.57z"/>
	<linearGradient id="SVGID_16_" gradientUnits="userSpaceOnUse" x1="39.0938" y1="78.75" x2="39.0937" y2="6.7496">
		<stop  offset="0" style="stop-color:#73C054"/>
		<stop  offset="1" style="stop-color:#1E97D4"/>
	</linearGradient>
	<path fill="url(#SVGID_16_)" d="M39.094,44.641c-2.662,0-4.827,2.171-4.827,4.84s2.165,4.84,4.827,4.84s4.827-2.171,4.827-4.84
		S41.756,44.641,39.094,44.641z M39.094,53.297c-2.099,0-3.805-1.711-3.805-3.816c0-2.104,1.707-3.815,3.805-3.815
		s3.805,1.711,3.805,3.815C42.899,51.586,41.192,53.297,39.094,53.297z"/>
</g>
</svg>
