<?xml version="1.0" encoding="utf-8"?>
<!-- Generator: Adobe Illustrator 16.0.0, SVG Export Plug-In . SVG Version: 6.00 Build 0)  -->
<!DOCTYPE svg PUBLIC "-//W3C//DTD SVG 1.1//EN" "http://www.w3.org/Graphics/SVG/1.1/DTD/svg11.dtd">
<svg version="1.1" id="Layer_1" xmlns="http://www.w3.org/2000/svg" xmlns:xlink="http://www.w3.org/1999/xlink" x="0px" y="0px"
	 width="37px" height="30px" viewBox="0 0 37 30" enable-background="new 0 0 37 30" xml:space="preserve">
<path fill="#FFFFFF" d="M35.982,0.07C35.292,0.316,1.152,12.443,0.479,12.682c-0.57,0.203-0.698,0.699-0.02,0.973
	c0.807,0.326,7.633,3.083,7.633,3.083H8.092l4.526,1.828c0,0,21.792-16.132,22.089-16.352c0.296-0.22,0.639,0.193,0.423,0.428
	c-0.216,0.237-15.828,17.257-15.828,17.257c-0.001,0-0.001,0.001-0.001,0.001l-0.911,1.021l1.205,0.653v0.001
	c0,0,9.351,5.072,10.018,5.435c0.583,0.316,1.343,0.054,1.512-0.679c0.198-0.863,5.721-24.854,5.845-25.388
	C37.128,0.248,36.674-0.175,35.982,0.07z M12.576,29.518c0,0.5,0.279,0.64,0.666,0.285c0.504-0.461,5.729-5.188,5.729-5.188
	l-6.395-3.336V29.518z"/>
</svg>
