<?xml version="1.0" encoding="utf-8"?>
<!-- Generator: Adobe Illustrator 16.0.0, SVG Export Plug-In . SVG Version: 6.00 Build 0)  -->
<!DOCTYPE svg PUBLIC "-//W3C//DTD SVG 1.1//EN" "http://www.w3.org/Graphics/SVG/1.1/DTD/svg11.dtd">
<svg version="1.1" id="Layer_1" xmlns="http://www.w3.org/2000/svg" xmlns:xlink="http://www.w3.org/1999/xlink" x="0px" y="0px"
	 width="86px" height="86px" viewBox="0 0 86 86" enable-background="new 0 0 86 86" xml:space="preserve">
<g>
	<linearGradient id="SVGID_1_" gradientUnits="userSpaceOnUse" x1="43" y1="78.5" x2="43" y2="19.1973">
		<stop  offset="0" style="stop-color:#73C054"/>
		<stop  offset="1" style="stop-color:#1E97D4"/>
	</linearGradient>
	<path fill="url(#SVGID_1_)" d="M43,3.092c-21.88,0-39.68,17.849-39.68,39.789s17.8,39.79,39.68,39.79s39.68-17.85,39.68-39.79
		S64.88,3.092,43,3.092z M43,81.783c-21.392,0-38.795-17.452-38.795-38.902S21.608,3.979,43,3.979
		c21.391,0,38.795,17.451,38.795,38.901S64.391,81.783,43,81.783z"/>
	<linearGradient id="SVGID_2_" gradientUnits="userSpaceOnUse" x1="76.8779" y1="78.5" x2="76.8779" y2="19.1973">
		<stop  offset="0" style="stop-color:#73C054"/>
		<stop  offset="1" style="stop-color:#1E97D4"/>
	</linearGradient>
	<path fill="url(#SVGID_2_)" d="M81.085,24.83l0.801-0.38c-2.308-4.883-5.473-9.244-9.409-12.962l-0.607,0.646
		C75.725,15.775,78.826,20.048,81.085,24.83z"/>
	<linearGradient id="SVGID_3_" gradientUnits="userSpaceOnUse" x1="55.1504" y1="78.5" x2="55.1504" y2="19.1973">
		<stop  offset="0" style="stop-color:#73C054"/>
		<stop  offset="1" style="stop-color:#1E97D4"/>
	</linearGradient>
	<path fill="url(#SVGID_3_)" d="M62.852,4.622C58.066,2.121,52.916,0.565,47.541,0l-0.092,0.883
		c5.263,0.555,10.307,2.077,14.992,4.526L62.852,4.622z"/>
	<linearGradient id="SVGID_4_" gradientUnits="userSpaceOnUse" x1="35.1436" y1="78.5" x2="35.1436" y2="19.1973">
		<stop  offset="0" style="stop-color:#73C054"/>
		<stop  offset="1" style="stop-color:#1E97D4"/>
	</linearGradient>
	<path fill="url(#SVGID_4_)" d="M27.287,83.03C32.291,85.001,37.578,86,43,86v-0.888c-5.311,0-10.489-0.979-15.39-2.909
		L27.287,83.03z"/>
	<linearGradient id="SVGID_5_" gradientUnits="userSpaceOnUse" x1="7.6265" y1="78.5" x2="7.6265" y2="19.1973">
		<stop  offset="0" style="stop-color:#73C054"/>
		<stop  offset="1" style="stop-color:#1E97D4"/>
	</linearGradient>
	<path fill="url(#SVGID_5_)" d="M12.232,14.044l-0.646-0.606C7.891,17.4,5.008,21.956,3.021,26.976l0.823,0.328
		C5.791,22.387,8.613,17.926,12.232,14.044z"/>
	<linearGradient id="SVGID_6_" gradientUnits="userSpaceOnUse" x1="53.4673" y1="78.5" x2="53.4673" y2="19.1973">
		<stop  offset="0" style="stop-color:#73C054"/>
		<stop  offset="1" style="stop-color:#1E97D4"/>
	</linearGradient>
	<path fill="url(#SVGID_6_)" d="M45.696,85.027l0.055,0.886c5.4-0.342,10.611-1.679,15.488-3.973l-0.375-0.805
		C56.087,83.383,50.984,84.691,45.696,85.027z"/>
	<linearGradient id="SVGID_7_" gradientUnits="userSpaceOnUse" x1="11.9014" y1="78.5" x2="11.9014" y2="19.1973">
		<stop  offset="0" style="stop-color:#73C054"/>
		<stop  offset="1" style="stop-color:#1E97D4"/>
	</linearGradient>
	<path fill="url(#SVGID_7_)" d="M7.031,64.859l-0.756,0.463c2.812,4.617,6.417,8.62,10.716,11.899l0.536-0.707
		C13.316,73.303,9.785,69.382,7.031,64.859z"/>
	<linearGradient id="SVGID_8_" gradientUnits="userSpaceOnUse" x1="1.2104" y1="78.5" x2="1.2104" y2="19.1973">
		<stop  offset="0" style="stop-color:#73C054"/>
		<stop  offset="1" style="stop-color:#1E97D4"/>
	</linearGradient>
	<path fill="url(#SVGID_8_)" d="M1.102,38.575l-0.881-0.089C0.075,39.936,0,41.414,0,42.881c0,3.932,0.528,7.828,1.568,11.579
		l0.853-0.238c-1.019-3.673-1.535-7.488-1.536-11.341C0.886,41.444,0.958,39.996,1.102,38.575z"/>
	<linearGradient id="SVGID_9_" gradientUnits="userSpaceOnUse" x1="28.3203" y1="78.5" x2="28.3203" y2="19.1973">
		<stop  offset="0" style="stop-color:#73C054"/>
		<stop  offset="1" style="stop-color:#1E97D4"/>
	</linearGradient>
	<path fill="url(#SVGID_9_)" d="M35.885,1.251l-0.149-0.876c-5.317,0.907-10.358,2.79-14.98,5.598l0.458,0.76
		C25.741,3.983,30.677,2.139,35.885,1.251z"/>
	<linearGradient id="SVGID_10_" gradientUnits="userSpaceOnUse" x1="75.8208" y1="78.5" x2="75.8208" y2="19.1973">
		<stop  offset="0" style="stop-color:#73C054"/>
		<stop  offset="1" style="stop-color:#1E97D4"/>
	</linearGradient>
	<path fill="url(#SVGID_10_)" d="M70.561,74.814l0.579,0.671c4.087-3.55,7.432-7.775,9.94-12.56l-0.783-0.413
		C77.84,67.198,74.564,71.338,70.561,74.814z"/>
	<linearGradient id="SVGID_11_" gradientUnits="userSpaceOnUse" x1="85.1089" y1="78.5" x2="85.1089" y2="19.1973">
		<stop  offset="0" style="stop-color:#73C054"/>
		<stop  offset="1" style="stop-color:#1E97D4"/>
	</linearGradient>
	<path fill="url(#SVGID_11_)" d="M85.416,35.753l-0.874,0.146c0.379,2.292,0.572,4.641,0.572,6.982c0,2.935-0.302,5.867-0.897,8.717
		l0.867,0.183C85.691,48.87,86,45.877,86,42.881C86,40.49,85.804,38.093,85.416,35.753z"/>
	<linearGradient id="SVGID_12_" gradientUnits="userSpaceOnUse" x1="43.0005" y1="78.5" x2="43.0005" y2="19.1973">
		<stop  offset="0" style="stop-color:#73C054"/>
		<stop  offset="1" style="stop-color:#1E97D4"/>
	</linearGradient>
	<path fill="url(#SVGID_12_)" d="M43.001,6.239c-20.149,0-36.542,16.438-36.542,36.642s16.392,36.642,36.542,36.642
		c20.148,0,36.54-16.438,36.54-36.642S63.149,6.239,43.001,6.239z M43.001,78.635c-19.661,0-35.656-16.039-35.656-35.754
		S23.34,7.128,43.001,7.128c19.66,0,35.654,16.038,35.654,35.753S62.661,78.635,43.001,78.635z"/>
	<linearGradient id="SVGID_13_" gradientUnits="userSpaceOnUse" x1="43" y1="78.5" x2="43" y2="19.1973">
		<stop  offset="0" style="stop-color:#73C054"/>
		<stop  offset="1" style="stop-color:#1E97D4"/>
	</linearGradient>
	<path fill="url(#SVGID_13_)" d="M43,7.423c-19.498,0-35.36,15.906-35.36,35.458S23.502,78.339,43,78.339s35.36-15.906,35.36-35.458
		S62.498,7.423,43,7.423z M43,77.451c-19.01,0-34.475-15.508-34.475-34.57C8.525,23.819,23.99,8.311,43,8.311
		c19.01,0,34.475,15.509,34.475,34.57C77.475,61.943,62.01,77.451,43,77.451z"/>
	<linearGradient id="SVGID_14_" gradientUnits="userSpaceOnUse" x1="43.0005" y1="78.5" x2="43.0005" y2="19.1973">
		<stop  offset="0" style="stop-color:#73C054"/>
		<stop  offset="1" style="stop-color:#1E97D4"/>
	</linearGradient>
	<path fill="url(#SVGID_14_)" d="M60.762,32.555l2.042-3.926l-5.591-5.605l-3.914,2.048c-1.576-0.919-3.264-1.619-5.022-2.087
		l-1.323-4.223h-7.906l-1.323,4.223c-1.759,0.468-3.447,1.168-5.023,2.087l-3.914-2.048l-5.591,5.605l2.043,3.926
		c-0.916,1.579-1.615,3.271-2.082,5.036l-4.21,1.325v7.929l4.21,1.327c0.467,1.765,1.166,3.456,2.082,5.036l-2.043,3.926
		l5.591,5.605l3.914-2.049c1.576,0.919,3.264,1.62,5.023,2.087l1.323,4.224h7.906l1.323-4.224c1.759-0.467,3.446-1.168,5.022-2.087
		l3.914,2.049l5.591-5.604l-2.042-3.927c0.916-1.582,1.614-3.273,2.08-5.036l4.211-1.327v-7.929l-4.211-1.325
		C62.376,35.827,61.677,34.136,60.762,32.555z M66.056,46.111l-4.043,1.273l-0.067,0.271c-0.464,1.856-1.198,3.633-2.182,5.28
		l-0.143,0.24l1.96,3.769l-4.556,4.568l-3.758-1.967l-0.239,0.144c-1.642,0.986-3.414,1.723-5.266,2.188l-0.271,0.067L46.222,66
		h-6.443l-1.271-4.054l-0.271-0.067c-1.853-0.466-3.624-1.202-5.266-2.188l-0.239-0.144l-3.758,1.967l-4.556-4.567l1.961-3.771
		l-0.143-0.24c-0.984-1.644-1.718-3.42-2.183-5.279l-0.067-0.271l-4.043-1.273V39.65l4.043-1.272l0.067-0.271
		c0.464-1.859,1.198-3.636,2.183-5.28l0.143-0.24l-1.961-3.769l4.556-4.568l3.758,1.966l0.239-0.144
		c1.642-0.986,3.413-1.723,5.266-2.188l0.271-0.068l1.271-4.054h6.443l1.27,4.054l0.271,0.068c1.852,0.465,3.624,1.201,5.266,2.188
		l0.239,0.144l3.758-1.966l4.556,4.568l-1.96,3.769l0.143,0.239c0.984,1.647,1.718,3.424,2.182,5.281l0.067,0.271l4.043,1.272
		V46.111z"/>
	<linearGradient id="SVGID_15_" gradientUnits="userSpaceOnUse" x1="43.0005" y1="78.5" x2="43.0005" y2="19.1973">
		<stop  offset="0" style="stop-color:#73C054"/>
		<stop  offset="1" style="stop-color:#1E97D4"/>
	</linearGradient>
	<path fill="url(#SVGID_15_)" d="M43,25.725c-9.433,0-17.108,7.696-17.108,17.156S33.566,60.037,43,60.037
		c9.434,0,17.109-7.696,17.109-17.156S52.434,25.725,43,25.725z M43,58.893c-8.804,0-15.967-7.183-15.967-16.012
		S34.195,26.869,43,26.869c8.805,0,15.968,7.183,15.968,16.012S51.804,58.893,43,58.893z"/>
	<linearGradient id="SVGID_16_" gradientUnits="userSpaceOnUse" x1="43.0005" y1="78.5" x2="43.0005" y2="19.1973">
		<stop  offset="0" style="stop-color:#73C054"/>
		<stop  offset="1" style="stop-color:#1E97D4"/>
	</linearGradient>
	<path fill="url(#SVGID_16_)" d="M45.823,40.845c-0.22-0.306-0.487-0.573-0.792-0.795l0.398-0.768l-0.663-0.347l0.006-0.021l0,0l0,0
		l-0.118-0.037l-0.109-0.057l-0.01,0.019l-0.714-0.226l-0.26,0.827c-0.183-0.029-0.368-0.057-0.56-0.057s-0.376,0.027-0.56,0.057
		l-0.261-0.827l-0.714,0.226l-0.01-0.019l-0.109,0.057l-0.118,0.037l0,0l0,0l0.006,0.021l-0.664,0.347l0.399,0.769
		c-0.305,0.221-0.572,0.488-0.792,0.795l-0.767-0.4l-0.346,0.666l-0.02-0.007l0,0h0l-0.037,0.119l-0.057,0.108l0.019,0.01
		l-0.225,0.717l0.825,0.261c-0.03,0.185-0.057,0.369-0.057,0.562s0.027,0.378,0.057,0.562l-0.825,0.262l0.225,0.716l-0.019,0.011
		l0.057,0.109l0.037,0.117h0l0,0l0.02-0.006l0.346,0.665l0.766-0.399c0.22,0.306,0.487,0.573,0.792,0.795l-0.399,0.768l0.664,0.347
		l-0.006,0.021l0.117,0.037l0.11,0.058l0.01-0.02l0.714,0.227l0.261-0.827c0.183,0.029,0.368,0.057,0.56,0.057
		s0.377-0.027,0.56-0.057l0.26,0.827l0.714-0.227l0.01,0.02l0.111-0.059l0.116-0.036l-0.006-0.021l0.663-0.347l-0.398-0.768
		c0.305-0.222,0.572-0.489,0.792-0.795l0.766,0.399l0.345-0.665l0.021,0.006l0.037-0.116l0.058-0.11L47.03,44.42l0.226-0.716
		l-0.825-0.262c0.029-0.184,0.056-0.369,0.056-0.562s-0.027-0.377-0.056-0.562l0.825-0.261l-0.226-0.717l0.019-0.01l-0.057-0.11
		l-0.037-0.117l-0.021,0.007l-0.345-0.666L45.823,40.845z M44.923,41.314l-0.752,0.393l0.391-0.754
		C44.695,41.062,44.815,41.182,44.923,41.314z M43,40.385c0.087,0,0.17,0.017,0.255,0.025L43,41.22l-0.255-0.81
		C42.83,40.401,42.913,40.385,43,40.385z M41.438,40.953l0.392,0.754l-0.752-0.393C41.185,41.182,41.305,41.062,41.438,40.953z
		 M40.51,42.881c0-0.088,0.017-0.17,0.026-0.256l0.807,0.256l-0.807,0.256C40.527,43.052,40.51,42.969,40.51,42.881z M41.077,44.447
		l0.752-0.393l-0.392,0.755C41.305,44.701,41.185,44.58,41.077,44.447z M43,45.377c-0.087,0-0.17-0.018-0.254-0.026L43,44.542
		l0.255,0.809C43.169,45.359,43.087,45.377,43,45.377z M44.562,44.81l-0.391-0.755l0.752,0.393
		C44.815,44.58,44.695,44.701,44.562,44.81z M45.489,42.881c0,0.088-0.017,0.17-0.026,0.256l-0.807-0.256l0.807-0.255
		C45.472,42.711,45.489,42.793,45.489,42.881z"/>
	<linearGradient id="SVGID_17_" gradientUnits="userSpaceOnUse" x1="43.0005" y1="78.5" x2="43.0005" y2="19.1973">
		<stop  offset="0" style="stop-color:#73C054"/>
		<stop  offset="1" style="stop-color:#1E97D4"/>
	</linearGradient>
	<path fill="url(#SVGID_17_)" d="M43,37.055c-3.204,0-5.811,2.613-5.811,5.826s2.607,5.827,5.811,5.827
		c3.204,0,5.811-2.614,5.811-5.827S46.204,37.055,43,37.055z M43,47.708c-2.654,0-4.813-2.165-4.813-4.827
		c0-2.661,2.159-4.827,4.813-4.827s4.813,2.166,4.813,4.827C47.813,45.543,45.654,47.708,43,47.708z"/>
</g>
</svg>
