<?xml version="1.0" encoding="utf-8"?>
<!-- Generator: Adobe Illustrator 16.0.0, SVG Export Plug-In . SVG Version: 6.00 Build 0)  -->
<!DOCTYPE svg PUBLIC "-//W3C//DTD SVG 1.1//EN" "http://www.w3.org/Graphics/SVG/1.1/DTD/svg11.dtd">
<svg version="1.1" id="Layer_1" xmlns="http://www.w3.org/2000/svg" xmlns:xlink="http://www.w3.org/1999/xlink" x="0px" y="0px"
	 width="160px" height="160px" viewBox="-37 -37 160 160" enable-background="new -37 -37 160 160" xml:space="preserve">
<linearGradient id="SVGID_1_" gradientUnits="userSpaceOnUse" x1="331.502" y1="-393.0464" x2="331.502" y2="-282.7158" gradientTransform="matrix(1 0 0 -1 -288.5 -284)">
	<stop  offset="0" style="stop-color:#73C054"/>
	<stop  offset="1" style="stop-color:#1E97D4"/>
</linearGradient>
<path fill="url(#SVGID_1_)" d="M76.045,23.568l3.801-7.305L69.442,5.835l-7.282,3.81c-2.932-1.709-6.071-3.011-9.342-3.882
	l-2.462-7.856H35.647l-2.461,7.856c-3.273,0.871-6.414,2.173-9.345,3.882l-7.282-3.81L6.158,16.263l3.801,7.305
	c-1.704,2.937-3.005,6.085-3.874,9.369l-7.833,2.465v14.752l7.833,2.468c0.869,3.285,2.169,6.43,3.874,9.369l-3.801,7.304
	l10.401,10.43l7.282-3.814c2.931,1.712,6.072,3.017,9.345,3.885l2.461,7.858h14.709l2.462-7.858c3.272-0.868,6.41-2.173,9.342-3.885
	l7.282,3.814l10.403-10.428l-3.801-7.306c1.704-2.943,3.003-6.088,3.87-9.369l7.834-2.468V35.402l-7.834-2.465
	C79.048,29.655,77.747,26.508,76.045,23.568z M85.896,48.788l-7.522,2.368l-0.127,0.503c-0.861,3.454-2.228,6.761-4.059,9.825
	l-0.266,0.445l3.646,7.012l-8.476,8.499l-6.991-3.659l-0.447,0.269c-3.052,1.834-6.352,3.205-9.796,4.07l-0.504,0.123l-2.359,7.548
	H37.007l-2.364-7.544l-0.504-0.124c-3.447-0.866-6.742-2.236-9.796-4.069l-0.445-0.269l-6.991,3.659l-8.477-8.496l3.648-7.017
	l-0.266-0.447c-1.831-3.058-3.196-6.362-4.061-9.819l-0.125-0.506l-7.522-2.367V36.767l7.522-2.366l0.125-0.504
	c0.863-3.458,2.229-6.764,4.061-9.823l0.266-0.447l-3.648-7.012l8.477-8.499l6.991,3.657l0.445-0.268
	c3.054-1.834,6.349-3.205,9.796-4.071l0.504-0.126l2.364-7.542h11.989l2.361,7.542l0.505,0.126c3.445,0.866,6.741,2.235,9.797,4.071
	l0.443,0.268l6.991-3.657l8.478,8.499l-3.646,7.012l0.267,0.445c1.83,3.064,3.194,6.37,4.06,9.825l0.123,0.504l7.522,2.366V48.788
	L85.896,48.788z"/>
<linearGradient id="SVGID_2_" gradientUnits="userSpaceOnUse" x1="331.502" y1="-393.0464" x2="331.502" y2="-282.7164" gradientTransform="matrix(1 0 0 -1 -288.5 -284)">
	<stop  offset="0" style="stop-color:#73C054"/>
	<stop  offset="1" style="stop-color:#1E97D4"/>
</linearGradient>
<path fill="url(#SVGID_2_)" d="M43,10.861c-17.55,0-31.829,14.317-31.829,31.917c0,17.6,14.277,31.919,31.829,31.919
	c17.551,0,31.831-14.319,31.831-31.919C74.831,25.178,60.551,10.861,43,10.861z M43,72.567c-16.38,0-29.706-13.363-29.706-29.789
	c0-16.426,13.324-29.789,29.706-29.789c16.381,0,29.707,13.363,29.707,29.789C72.707,59.204,59.381,72.567,43,72.567z"/>
<linearGradient id="SVGID_3_" gradientUnits="userSpaceOnUse" x1="331.502" y1="-393.0493" x2="331.502" y2="-282.7147" gradientTransform="matrix(1 0 0 -1 -288.5 -284)">
	<stop  offset="0" style="stop-color:#73C054"/>
	<stop  offset="1" style="stop-color:#1E97D4"/>
</linearGradient>
<path fill="url(#SVGID_3_)" d="M48.253,38.991c-0.409-0.57-0.907-1.066-1.474-1.48l0.741-1.428l-1.235-0.646l0.011-0.039l0,0l0,0
	l-0.218-0.069l-0.204-0.106l-0.018,0.035l-1.33-0.42l-0.483,1.539c-0.34-0.053-0.684-0.106-1.041-0.106s-0.7,0.051-1.042,0.106
	l-0.485-1.539l-1.329,0.42l-0.018-0.035l-0.203,0.106l-0.22,0.069l0,0l0,0l0.011,0.039l-1.235,0.646l0.743,1.43
	c-0.568,0.412-1.064,0.908-1.474,1.479l-1.427-0.745l-0.645,1.239l-0.037-0.013l0,0l0,0l-0.069,0.221l-0.105,0.201l0.036,0.018
	l-0.419,1.334l1.534,0.485c-0.055,0.344-0.105,0.687-0.105,1.046c0,0.359,0.05,0.703,0.105,1.046l-1.534,0.487l0.419,1.332
	l-0.036,0.021l0.105,0.202l0.069,0.218l0,0l0,0l0.037-0.013l0.645,1.239l1.424-0.743c0.41,0.568,0.907,1.066,1.473,1.479
	l-0.742,1.43l1.236,0.646l-0.011,0.038l0.218,0.069l0.204,0.108l0.019-0.038l1.329,0.424l0.485-1.539
	c0.341,0.053,0.685,0.105,1.042,0.105s0.701-0.049,1.043-0.105l0.483,1.539l1.328-0.424l0.018,0.038l0.206-0.108l0.218-0.069
	l-0.011-0.038l1.231-0.646l-0.741-1.43c0.568-0.412,1.064-0.91,1.476-1.479l1.424,0.743l0.644-1.239l0.038,0.013l0.069-0.216
	l0.106-0.204l-0.036-0.025l0.422-1.332l-1.533-0.487c0.053-0.343,0.102-0.686,0.102-1.046c0-0.359-0.049-0.701-0.102-1.045
	l1.533-0.485l-0.422-1.334l0.036-0.018l-0.104-0.204l-0.069-0.218l-0.04,0.013l-0.642-1.239L48.253,38.991z M46.577,39.863
	l-1.398,0.731l0.729-1.402C46.154,39.395,46.376,39.618,46.577,39.863z M43,38.134c0.162,0,0.316,0.032,0.474,0.047L43,39.689
	l-0.474-1.507C42.684,38.165,42.838,38.134,43,38.134z M40.094,39.192l0.729,1.402l-1.399-0.731
	C39.624,39.618,39.847,39.395,40.094,39.192z M38.367,42.778c0-0.164,0.032-0.316,0.049-0.476l1.501,0.476l-1.501,0.477
	C38.399,43.096,38.367,42.942,38.367,42.778z M39.422,45.692l1.399-0.73l-0.729,1.403C39.847,46.165,39.624,45.939,39.422,45.692z
	 M43,47.422c-0.162,0-0.316-0.032-0.472-0.047L43,45.869l0.474,1.506C43.314,47.39,43.162,47.422,43,47.422z M45.907,46.368
	l-0.729-1.406l1.398,0.732C46.376,45.939,46.154,46.165,45.907,46.368z M47.629,42.778c0,0.164-0.028,0.316-0.047,0.477
	l-1.501-0.477l1.501-0.474C47.601,42.462,47.629,42.615,47.629,42.778z"/>
<linearGradient id="SVGID_4_" gradientUnits="userSpaceOnUse" x1="331.5" y1="-393.043" x2="331.5" y2="-282.7173" gradientTransform="matrix(1 0 0 -1 -288.5 -284)">
	<stop  offset="0" style="stop-color:#73C054"/>
	<stop  offset="1" style="stop-color:#1E97D4"/>
</linearGradient>
<path fill="url(#SVGID_4_)" d="M43,31.94c-5.961,0-10.811,4.861-10.811,10.838S37.039,53.619,43,53.619s10.811-4.863,10.811-10.841
	S48.961,31.94,43,31.94z M43,51.759c-4.938,0-8.955-4.027-8.955-8.98c0-4.95,4.017-8.98,8.955-8.98c4.938,0,8.953,4.03,8.953,8.98
	C51.953,47.731,47.938,51.759,43,51.759z"/>
</svg>
