<?xml version="1.0" encoding="utf-8"?>
<!-- Generator: Adobe Illustrator 16.0.0, SVG Export Plug-In . SVG Version: 6.00 Build 0)  -->
<!DOCTYPE svg PUBLIC "-//W3C//DTD SVG 1.1//EN" "http://www.w3.org/Graphics/SVG/1.1/DTD/svg11.dtd">
<svg version="1.1" xmlns="http://www.w3.org/2000/svg" xmlns:xlink="http://www.w3.org/1999/xlink" x="0px" y="0px" width="120px"
	 height="120px" viewBox="0 0 120 120" enable-background="new 0 0 120 120" xml:space="preserve">
<g id="Layer_2">
</g>
<g id="Layer_1">
	<g>
		<path fill="#FFFFFF" d="M59.999,4.314c-30.53,0-55.368,24.906-55.368,55.521c0,30.613,24.838,55.52,55.368,55.52
			c30.531,0,55.369-24.906,55.369-55.52C115.368,29.22,90.53,4.314,59.999,4.314z M59.999,114.116
			c-29.849,0-54.133-24.351-54.133-54.281c0-29.931,24.284-54.282,54.133-54.282c29.85,0,54.134,24.351,54.134,54.282
			C114.133,89.766,89.849,114.116,59.999,114.116z"/>
		<path fill="#FFFFFF" d="M98.457,104.391l0.809,0.937c5.703-4.953,10.369-10.85,13.87-17.524l-1.093-0.576
			C108.614,93.764,104.043,99.539,98.457,104.391z"/>
		<path fill="#FFFFFF" d="M63.763,118.642l0.077,1.236c7.536-0.478,14.806-2.344,21.61-5.543l-0.524-1.123
			C78.262,116.347,71.142,118.173,63.763,118.642z"/>
		<path fill="#FFFFFF" d="M38.075,115.856C45.058,118.606,52.435,120,60,120v-1.239c-7.411,0-14.636-1.365-21.474-4.059
			L38.075,115.856z"/>
		<path fill="#FFFFFF" d="M9.812,90.501l-1.055,0.646c3.923,6.442,8.954,12.028,14.953,16.604l0.748-0.987
			C18.582,102.283,13.654,96.812,9.812,90.501z"/>
		<path fill="#FFFFFF" d="M1.537,53.827l-1.229-0.125C0.104,55.726,0,57.789,0,59.835c0,5.484,0.735,10.919,2.188,16.155l1.19-0.331
			c-1.422-5.128-2.143-10.452-2.143-15.824C1.235,57.831,1.337,55.81,1.537,53.827z"/>
		<path fill="#FFFFFF" d="M50.071,1.745l-0.207-1.221C42.442,1.791,35.41,4.418,28.96,8.335l0.641,1.06
			C35.916,5.559,42.804,2.985,50.071,1.745z"/>
		<path fill="#FFFFFF" d="M17.067,19.597l-0.902-0.845c-5.157,5.53-9.179,11.885-11.952,18.89l1.148,0.457
			C8.078,31.239,12.016,25.014,17.067,19.597z"/>
		<path fill="#FFFFFF" d="M113.143,34.646l1.117-0.53c-3.221-6.814-7.637-12.899-13.129-18.087l-0.847,0.901
			C105.663,22.012,109.99,27.973,113.143,34.646z"/>
		<path fill="#FFFFFF" d="M119.183,49.887l-1.219,0.203c0.531,3.195,0.8,6.474,0.8,9.745c0,4.096-0.422,8.188-1.253,12.162
			l1.209,0.254c0.849-4.058,1.28-8.234,1.28-12.416C120,56.497,119.725,53.149,119.183,49.887z"/>
		<path fill="#FFFFFF" d="M87.697,6.449C81.02,2.958,73.833,0.789,66.334,0l-0.128,1.231c7.342,0.773,14.381,2.898,20.92,6.316
			L87.697,6.449z"/>
		<path fill="#FFFFFF" d="M60,8.708c-28.114,0-50.987,22.936-50.987,51.127S31.886,110.962,60,110.962
			c28.113,0,50.986-22.936,50.986-51.127S88.113,8.708,60,8.708z M60,109.724c-27.434,0-49.752-22.381-49.752-49.889
			C10.248,32.326,32.566,9.947,60,9.947s49.751,22.379,49.751,49.888C109.751,87.343,87.434,109.724,60,109.724z"/>
		<path fill="#FFFFFF" d="M59.999,10.359c-27.205,0-49.339,22.195-49.339,49.476c0,27.28,22.134,49.475,49.339,49.475
			c27.206,0,49.341-22.194,49.341-49.475C109.34,32.554,87.205,10.359,59.999,10.359z M59.999,108.07
			c-26.524,0-48.104-21.639-48.104-48.235c0-26.598,21.579-48.237,48.104-48.237c26.525,0,48.105,21.639,48.105,48.237
			C108.104,86.432,86.524,108.07,59.999,108.07z"/>
		<path fill="#FFFFFF" d="M94.002,50.929c-0.81-3.119-2.047-6.111-3.681-8.905l3.307-6.375l0,0l0.188-0.362l-9.335-9.362
			l-0.362,0.189v0l-6.358,3.316c-2.779-1.636-5.765-2.877-8.883-3.692l-2.021-6.419l-0.257-0.821H53.397l-0.469,1.5l-1.808,5.74
			c-3.117,0.815-6.103,2.056-8.884,3.692l-6.357-3.316v0l-0.361-0.189l-9.336,9.362l0.188,0.362l0,0l3.309,6.375
			c-1.633,2.791-2.87,5.783-3.683,8.908l-6.828,2.162l-0.392,0.124v13.238l0.692,0.218l6.527,2.066
			c0.812,3.126,2.05,6.12,3.682,8.906L26.37,84.02l0.001,0.001l-0.188,0.363l9.336,9.362l0.988-0.517l5.73-2.99
			c2.784,1.639,5.771,2.88,8.884,3.691l2.154,6.853l0,0l0.122,0.389h13.203l0.179-0.571l2.099-6.668
			c3.113-0.813,6.098-2.054,8.883-3.693l6.068,3.166l0.652,0.341l9.335-9.362l-0.189-0.364h0.001l-3.308-6.375
			c1.636-2.791,2.873-5.784,3.683-8.908l5.79-1.831l1.43-0.451V53.216l-0.389-0.122v-0.001L94.002,50.929z M93.08,51.818l7.03,2.216
			v11.603L99.81,65.73l-6.729,2.121l-0.002,0.011l-1.515,0.479c0.729-2.714,1.124-5.564,1.124-8.506
			c0-2.943-0.395-5.793-1.124-8.508l1.515,0.479L93.08,51.818z M60,91.358c-17.334,0-31.438-14.142-31.438-31.523
			c0-17.382,14.104-31.524,31.438-31.524c17.335,0,31.438,14.142,31.438,31.524C91.438,77.217,77.335,91.358,60,91.358z
			 M68.005,93.005l-0.011,0.002l-2.209,7.049H54.213l-2.208-7.049l-0.012-0.002l-0.478-1.52c2.707,0.73,5.551,1.126,8.484,1.126
			c2.935,0,5.776-0.396,8.483-1.126L68.005,93.005z M26.923,67.863l-0.003-0.012l-7.031-2.215V54.034l7.03-2.215l0.003-0.011
			l1.516-0.48c-0.729,2.715-1.124,5.565-1.124,8.508c0,2.942,0.396,5.793,1.124,8.508L26.923,67.863z M51.993,26.666l0.012-0.003
			l2.125-6.785l0.083-0.265h11.572l2.209,7.05l0.012,0.003l0.478,1.519c-2.707-0.73-5.549-1.126-8.483-1.126
			s-5.777,0.396-8.485,1.127L51.993,26.666z M92.718,50.523l-1.521-0.482c-0.588-1.874-1.343-3.672-2.24-5.386l0.744-1.433
			C90.988,45.536,91.999,47.982,92.718,50.523z M89.049,42.06l-0.738,1.423c-2.879-4.991-7.027-9.152-12.006-12.037l1.42-0.741
			l0.01,0.006l6.51-3.406l0.027-0.014l8.182,8.204l-3.41,6.555L89.049,42.06z M76.565,30.053l-1.43,0.746
			c-1.708-0.899-3.502-1.657-5.371-2.245l-0.479-1.527C71.823,27.748,74.263,28.761,76.565,30.053z M50.715,27.026l-0.48,1.527
			c-1.869,0.588-3.663,1.346-5.371,2.245l-1.431-0.746C45.737,28.761,48.178,27.748,50.715,27.026z M35.728,27.292l6.536,3.42
			l0.01-0.006l1.421,0.741c-4.977,2.886-9.126,7.046-12.004,12.037l-0.739-1.424l0.006-0.01l-3.411-6.555L35.728,27.292z
			 M30.301,43.221l0.744,1.434c-0.897,1.714-1.653,3.513-2.24,5.387l-1.522,0.482C28.001,47.98,29.012,45.533,30.301,43.221z
			 M27.282,69.145l1.522,0.482c0.587,1.874,1.342,3.673,2.239,5.386L30.3,76.446C29.012,74.137,28,71.691,27.282,69.145z
			 M30.951,77.608l0.738-1.423c2.878,4.99,7.026,9.15,12.003,12.037l-1.42,0.741l-0.009-0.006l-6.114,3.199l-0.423,0.222
			l-8.181-8.206l3.411-6.556L30.951,77.608z M43.432,89.616l1.43-0.747c1.709,0.9,3.504,1.659,5.373,2.247l0.481,1.526
			C48.18,91.923,45.739,90.909,43.432,89.616z M69.283,92.643l0.48-1.526c1.87-0.588,3.664-1.346,5.373-2.245l1.43,0.745
			C74.259,90.909,71.818,91.924,69.283,92.643z M84.272,92.378l-0.718-0.374l-5.82-3.046l-0.01,0.006l-1.418-0.74
			c4.977-2.887,9.126-7.047,12.004-12.037l0.738,1.422l-0.006,0.009l3.41,6.556L84.272,92.378z M89.7,76.446l-0.743-1.432
			c0.896-1.715,1.652-3.514,2.239-5.389l1.522-0.481C92.001,71.688,90.989,74.134,89.7,76.446z"/>
		<polygon fill="#FFFFFF" points="47.122,60.786 46.118,50.197 39.146,50.197 33.524,69.707 38.543,69.707 42.201,57.013 
			43.442,69.707 45.659,69.707 54.248,57.013 50.59,69.707 55.607,69.707 61.229,50.197 54.258,50.197 		"/>
		<polygon fill="#FFFFFF" points="78.253,54.584 79.519,50.197 63.619,50.197 62.355,54.584 67.811,54.584 63.453,69.707 
			68.471,69.707 72.829,54.584 		"/>
		<path fill="#FFFFFF" d="M82.606,57.273H76.34l-3.617,12.55h3.229l1.215-4.216h1.65l0.887,4.216H83.4l-1.224-4.61
			c1.282-0.415,2.949-1.581,3.581-3.764C86.428,59.116,85.384,57.273,82.606,57.273z M82.479,61.43
			c-0.255,0.886-1.104,1.355-1.947,1.355h-2.553l0.775-2.69h2.552C82.15,60.095,82.722,60.585,82.479,61.43z"/>
		<path fill="#FFFFFF" d="M82.224,56.44c1.666,0,2.808-1.012,3.423-1.863l-1.437-0.765c-0.306,0.497-0.925,0.927-1.498,0.927
			c-0.923,0-1.339-0.707-1.083-1.596s1.079-1.596,2.004-1.596c0.572,0,0.943,0.43,0.962,0.927l1.882-0.774
			c-0.128-0.88-0.687-1.854-2.354-1.854c-1.992,0-3.882,1.328-4.448,3.296C79.11,55.103,80.23,56.44,82.224,56.44z"/>
	</g>
</g>
</svg>
