<?xml version="1.0" encoding="utf-8"?>
<!-- Generator: Adobe Illustrator 16.0.0, SVG Export Plug-In . SVG Version: 6.00 Build 0)  -->
<!DOCTYPE svg PUBLIC "-//W3C//DTD SVG 1.1//EN" "http://www.w3.org/Graphics/SVG/1.1/DTD/svg11.dtd">
<svg version="1.1" xmlns="http://www.w3.org/2000/svg" xmlns:xlink="http://www.w3.org/1999/xlink" x="0px" y="0px" width="50px"
	 height="50px" viewBox="0 0 50 50" enable-background="new 0 0 50 50" xml:space="preserve">
<g id="Layer_1">
	<g>
		<path fill="#FFFFFF" d="M25,0C11.215,0,0,11.215,0,25s11.215,25,25,25s25-11.215,25-25S38.785,0,25,0z"/>
	</g>
</g>
<g id="Layer_2">
	<g>
		<path fill="#68CD52" d="M25,0C11.215,0,0,11.215,0,25s11.215,25,25,25s25-11.215,25-25S38.785,0,25,0z M25,49.482
			C11.5,49.482,0.517,38.5,0.517,25S11.5,0.517,25,0.517S49.482,11.5,49.482,25S38.5,49.482,25,49.482z"/>
		<path fill="#68CD52" d="M25.001,23.859c4.065,0,7.362-4.934,7.362-9.001c0-4.066-3.297-7.363-7.362-7.363
			c-4.067,0-7.364,3.297-7.364,7.363C17.637,18.926,20.934,23.859,25.001,23.859z"/>
		<path fill="#68CD52" d="M25.001,24.87c-5.979,0-11.173,2.739-13.804,7.524C9.368,35.725,11.533,40,15.092,40h19.817
			c3.559,0,5.725-4.275,3.894-7.605C36.173,27.609,30.979,24.87,25.001,24.87z"/>
	</g>
</g>
</svg>
