<?xml version="1.0" encoding="utf-8"?>
<!-- Generator: Adobe Illustrator 16.0.0, SVG Export Plug-In . SVG Version: 6.00 Build 0)  -->
<!DOCTYPE svg PUBLIC "-//W3C//DTD SVG 1.1//EN" "http://www.w3.org/Graphics/SVG/1.1/DTD/svg11.dtd">
<svg version="1.1" id="Layer_1" xmlns="http://www.w3.org/2000/svg" xmlns:xlink="http://www.w3.org/1999/xlink" x="0px" y="0px"
	 width="35px" height="35.324px" viewBox="0 0 35 35.324" enable-background="new 0 0 35 35.324" xml:space="preserve">
<g>
	<path fill="#1A97D5" d="M34.354,31.016c-0.215-1.131-1.076-1.992-2.207-2.262l-3.393-0.807l-1.023-1.4
		c0.754-0.701,1.347-1.615,1.4-2.693c0.323-0.27,0.969-0.915,0.969-1.615c0-0.593-0.322-0.808-0.646-0.915l0.107-0.809
		c0.054-1.076-0.377-1.669-0.808-1.938c0.323-0.485,0.215-0.862,0.215-0.916l-0.161-0.484L28.377,17.5
		c-0.539,0.377-0.808,0.215-0.861,0.215c-0.809-0.377-2.424-0.431-2.531-0.431c-1.615,0-2.207,0.754-2.423,1.238
		c-1.454,0.216-1.399,1.777-1.399,2.424c0,0.107,0,0.215,0,0.269c0,0.108,0,0.161,0,0.27c-0.27,0.107-0.539,0.323-0.539,0.861
		c0,0.7,0.646,1.347,0.969,1.615c0.055,1.078,0.646,1.994,1.4,2.638l-1.023,1.455l-2.691,0.646c-0.377-0.27-0.754-0.486-1.238-0.594
		l-3.824-0.914l-1.185-1.615c0.861-0.754,1.508-1.778,1.562-3.016c0.323-0.27,1.077-1.023,1.077-1.777
		c0-0.646-0.323-0.916-0.7-0.969l0.108-0.97c0.054-1.185-0.431-1.831-0.916-2.154c0.377-0.539,0.269-0.916,0.215-1.023l-0.162-0.485
		l-0.431,0.323c-0.592,0.431-0.969,0.215-0.969,0.215c-0.861-0.377-2.692-0.484-2.8-0.484c-1.831,0-2.477,0.861-2.692,1.346
		c-1.616,0.27-1.562,1.938-1.508,2.692c0,0.107,0,0.215,0,0.323c0,0.107,0,0.216,0,0.323c-0.323,0.107-0.592,0.377-0.646,0.915
		c0,0.808,0.7,1.508,1.077,1.831c0.108,1.185,0.7,2.208,1.562,2.961l-1.185,1.67l-3.446,0.807c-1.238,0.27-2.154,1.293-2.423,2.531
		l-0.862,4.686h35.323L34.354,31.016z M22.346,23.746v-0.215l-0.161-0.107c-0.269-0.216-0.808-0.754-0.754-1.077
		c0-0.054,0-0.107,0-0.107c0.161,0,0.323-0.054,0.431-0.216c0.107-0.107,0.162-0.27,0.107-0.431c0-0.161-0.053-0.269,0-0.377
		c0-0.107,0-0.216,0-0.323c-0.053-1.076,0.055-1.615,0.916-1.615h0.322l0.055-0.322c0-0.055,0.215-0.862,1.723-0.862
		c0.432,0,1.67,0.108,2.208,0.377c0.054,0,0.323,0.108,0.646,0.108l-0.592,0.592l0.861,0.054c0.055,0,0.754,0.054,0.646,1.292
		l-0.107,1.131c0,0.162,0.054,0.27,0.107,0.377c0.107,0.107,0.215,0.162,0.377,0.162l0.107-0.055c0,0,0,0.055,0,0.162
		c0,0.377-0.538,0.915-0.754,1.076l-0.161,0.108v0.216c0,1.723-1.831,3.124-2.962,3.124C24.016,26.762,22.4,25.361,22.346,23.746z
		 M25.361,27.57c0.593,0,1.185-0.217,1.777-0.539l1.023,1.4l-1.455,5.492l-0.322-3.285l0.754-1.4c0.054-0.107,0.054-0.27,0-0.377
		c-0.055-0.107-0.216-0.215-0.323-0.215h-2.746c-0.161,0-0.27,0.055-0.323,0.215c-0.054,0.107-0.054,0.27,0,0.377l0.754,1.4
		l-0.323,3.285l-1.562-5.439l1.023-1.4C24.177,27.408,24.77,27.57,25.361,27.57z M24.662,29.455h1.399l-0.377,0.699h-0.646
		L24.662,29.455z M22.185,28.377L22.185,28.377L22.185,28.377L22.185,28.377z M6.946,22.4v-0.215l-0.162-0.107
		c-0.323-0.216-0.862-0.809-0.862-1.239c0-0.107,0-0.161,0.054-0.161c0.162,0,0.377-0.055,0.484-0.216
		c0.108-0.107,0.162-0.269,0.108-0.431c0-0.162-0.054-0.323-0.054-0.431c0-0.108,0-0.216,0-0.377
		c-0.054-1.185,0.107-1.831,1.023-1.885h0.323l0.054-0.323c0-0.054,0.215-1.023,1.992-1.023c0.484,0,1.885,0.162,2.477,0.431
		c0.054,0,0.269,0.107,0.592,0.107c0.054,0,0.162,0,0.215,0l-0.054,0.054l-0.593,0.593l0.808,0.107c0.107,0,0.861,0.162,0.808,1.508
		L14,20.084c0,0.161,0.054,0.27,0.108,0.377c0.107,0.108,0.215,0.161,0.376,0.161h0.108h0.054c0,0,0.054,0.055,0.054,0.216
		c0,0.431-0.539,1.023-0.916,1.292l-0.162,0.108v0.216c0,1.938-2.046,3.5-3.392,3.5C8.885,25.846,7,24.285,6.946,22.4z
		 M10.338,26.654c0.592,0,1.292-0.215,1.938-0.646l1.185,1.615l-1.723,6.408l-0.377-3.984l0.862-1.562
		c0.054-0.107,0.054-0.27,0-0.377s-0.215-0.215-0.323-0.215H8.831c-0.161,0-0.269,0.055-0.323,0.215
		c-0.054,0.107-0.054,0.27,0,0.377l0.861,1.562l-0.377,3.984l-1.723-6.354l1.185-1.67C9.046,26.439,9.746,26.654,10.338,26.654z
		 M9.477,28.754H11.2l-0.431,0.861H9.961L9.477,28.754z M6.785,27.623L6.785,27.623L6.785,27.623L6.785,27.623z M0.808,34.516
		l0.7-3.77c0.162-0.914,0.861-1.668,1.777-1.885l3.231-0.754l1.723,6.354H0.808V34.516z M9.692,34.516l0.377-4.092h0.539
		l0.376,4.092H9.692z M12.492,34.516l1.723-6.461l3.554,0.861c0.916,0.215,1.616,0.969,1.777,1.885l0.7,3.77h-7.754V34.516z
		 M21.107,34.516l-0.754-3.932c-0.107-0.43-0.27-0.861-0.538-1.238l1.992-0.484l1.508,5.6h-2.208V34.516z M24.823,34.516
		l0.323-3.555h0.431l0.323,3.555H24.823z M27.3,34.516l1.508-5.707l3.177,0.754c0.809,0.16,1.4,0.807,1.562,1.615l0.646,3.283H27.3
		V34.516z"/>
	<path fill="#1A97D5" d="M10.177,12.492l3.5-3.177h0.539V11.9H23.8l3.016,2.692V11.9h1.776V2.208h-4.522V0H7.916v9.315h2.154
		L10.177,12.492z M27.893,3.016v8.077h-1.777v1.723l-1.885-1.723h-9.153V9.315h9.1v-6.3H27.893z M8.831,0.862h14.539v7.646h-9.961
		l-2.423,2.154V8.508H8.831V0.862z"/>
	<rect x="11.2" y="2.961" fill="#1A97D5" width="9.8" height="0.808"/>
	<rect x="12.869" y="5.546" fill="#1A97D5" width="6.461" height="0.808"/>
</g>
</svg>
