<?xml version="1.0" encoding="utf-8"?>
<!-- Generator: Adobe Illustrator 16.0.0, SVG Export Plug-In . SVG Version: 6.00 Build 0)  -->
<!DOCTYPE svg PUBLIC "-//W3C//DTD SVG 1.1//EN" "http://www.w3.org/Graphics/SVG/1.1/DTD/svg11.dtd">
<svg version="1.1" id="Layer_1" xmlns="http://www.w3.org/2000/svg" xmlns:xlink="http://www.w3.org/1999/xlink" x="0px" y="0px"
	 width="52px" height="52px" viewBox="0 0 52 52" enable-background="new 0 0 52 52" xml:space="preserve">
<g>
	<linearGradient id="SVGID_1_" gradientUnits="userSpaceOnUse" x1="0" y1="26" x2="52" y2="26">
		<stop  offset="0" style="stop-color:#00AEEF"/>
		<stop  offset="1" style="stop-color:#1C2751"/>
	</linearGradient>
	<path fill="url(#SVGID_1_)" d="M52,30.372v-8.743l-6.329-0.975c-0.453-1.672-1.119-3.277-1.982-4.781l3.788-5.167l-6.183-6.183
		l-5.166,3.788c-1.504-0.862-3.109-1.528-4.782-1.981L30.372,0h-8.743l-0.975,6.33c-1.671,0.453-3.277,1.119-4.782,1.981
		l-5.165-3.788l-6.183,6.183l3.788,5.166c-0.863,1.504-1.528,3.109-1.982,4.782L0,21.629v8.743l6.33,0.974
		c0.453,1.672,1.119,3.277,1.982,4.782l-3.788,5.166l6.183,6.183l5.165-3.789c1.506,0.864,3.111,1.529,4.782,1.982L21.629,52h8.743
		l0.974-6.33c1.672-0.453,3.277-1.118,4.782-1.982l5.166,3.789l6.183-6.183l-3.788-5.167c0.863-1.505,1.529-3.11,1.982-4.781
		L52,30.372z M44.636,30.685c-0.456,1.821-1.179,3.563-2.146,5.179l-0.199,0.332l3.652,4.981l-4.766,4.765l-4.981-3.652l-0.333,0.2
		c-1.614,0.968-3.355,1.689-5.177,2.146l-0.377,0.178L29.37,51h-6.739l-0.939-6.187l-0.376-0.136
		c-1.821-0.456-3.563-1.199-5.179-2.168l-0.333-0.21l-4.979,3.646L6.059,41.18l3.651-4.983l-0.199-0.333
		c-0.967-1.613-1.689-3.356-2.146-5.179l-0.178-0.376L1,29.37v-6.739l6.187-0.939l0.136-0.376c0.457-1.823,1.201-3.565,2.167-5.179
		l0.209-0.333l-3.646-4.979l4.769-4.766l4.98,3.651l0.334-0.2c1.614-0.966,3.356-1.688,5.179-2.146l0.376-0.179L22.631,1h6.739
		l0.938,6.186l0.377,0.137c1.822,0.457,3.565,1.201,5.177,2.167l0.333,0.21l4.981-3.646l4.766,4.769l-3.652,4.98l0.199,0.333
		c0.968,1.615,1.69,3.358,2.146,5.18l0.179,0.376L51,22.631v6.739l-6.186,0.938L44.636,30.685z"/>
	<linearGradient id="SVGID_2_" gradientUnits="userSpaceOnUse" x1="20.7461" y1="25.9995" x2="31.2539" y2="25.9995">
		<stop  offset="0" style="stop-color:#00AEEF"/>
		<stop  offset="1" style="stop-color:#1C2751"/>
	</linearGradient>
	<circle fill="url(#SVGID_2_)" cx="26" cy="26" r="5.254"/>
	<linearGradient id="SVGID_3_" gradientUnits="userSpaceOnUse" x1="12.4775" y1="25.9995" x2="39.5225" y2="25.9995">
		<stop  offset="0" style="stop-color:#00AEEF"/>
		<stop  offset="1" style="stop-color:#1C2751"/>
	</linearGradient>
	<path fill="url(#SVGID_3_)" d="M26,12.478c-7.456,0-13.522,6.065-13.522,13.522c0,7.456,6.066,13.521,13.522,13.521
		S39.522,33.456,39.522,26C39.522,18.543,33.456,12.478,26,12.478z M26,38.477c-6.879,0-12.475-5.598-12.475-12.477
		S19.121,13.524,26,13.524S38.477,19.121,38.477,26S32.879,38.477,26,38.477z"/>
	<linearGradient id="SVGID_4_" gradientUnits="userSpaceOnUse" x1="9.3994" y1="25.9995" x2="42.6006" y2="25.9995">
		<stop  offset="0" style="stop-color:#00AEEF"/>
		<stop  offset="1" style="stop-color:#1C2751"/>
	</linearGradient>
	<path fill="url(#SVGID_4_)" d="M26,9.399C16.847,9.399,9.399,16.847,9.399,26S16.847,42.6,26,42.6
		c9.154,0,16.601-7.446,16.601-16.6S35.154,9.399,26,9.399z M26,41.554c-8.576,0-15.554-6.977-15.554-15.554
		c0-8.576,6.978-15.554,15.554-15.554c8.577,0,15.554,6.978,15.554,15.554C41.554,34.577,34.577,41.554,26,41.554z"/>
</g>
</svg>
