<?xml version="1.0" encoding="utf-8"?>
<!-- Generator: Adobe Illustrator 16.0.0, SVG Export Plug-In . SVG Version: 6.00 Build 0)  -->
<!DOCTYPE svg PUBLIC "-//W3C//DTD SVG 1.1//EN" "http://www.w3.org/Graphics/SVG/1.1/DTD/svg11.dtd">
<svg version="1.1" id="Layer_1" xmlns="http://www.w3.org/2000/svg" xmlns:xlink="http://www.w3.org/1999/xlink" x="0px" y="0px"
	 width="90px" height="90px" viewBox="0 0 90 90" enable-background="new 0 0 90 90" xml:space="preserve">
<path fill="#FFFFFF" d="M89.156,51.721V38.279l-7.731-2.43c-0.903-3.608-2.33-7.009-4.192-10.117l3.749-7.187l-9.506-9.505
	l-7.186,3.75c-3.108-1.863-6.509-3.29-10.117-4.193l-2.429-7.73H38.301l-2.429,7.73c-3.609,0.904-7.008,2.33-10.117,4.193
	l-7.187-3.75l-9.506,9.505l3.751,7.187c-1.864,3.108-3.291,6.509-4.193,10.117l-7.731,2.43v13.441l7.731,2.432
	c0.903,3.605,2.329,7.008,4.193,10.115l-3.751,7.188l9.506,9.504l7.187-3.748c3.109,1.863,6.508,3.288,10.117,4.191l2.429,7.732
	h13.443l2.429-7.732c3.608-0.903,7.009-2.328,10.117-4.191l7.186,3.748l9.506-9.504l-3.749-7.188
	c1.862-3.107,3.289-6.51,4.192-10.115L89.156,51.721z"/>
<rect x="0.266" y="0.245" fill="none" width="89.512" height="89.511"/>
<linearGradient id="SVGID_1_" gradientUnits="userSpaceOnUse" x1="18.8447" y1="81.2559" x2="72.0947" y2="7.5059">
	<stop  offset="0" style="stop-color:#68CD52"/>
	<stop  offset="1" style="stop-color:#1A97D5"/>
</linearGradient>
<path fill="url(#SVGID_1_)" d="M52.167,89.713H37.876l-2.46-7.83c-3.395-0.881-6.648-2.229-9.68-4.011l-7.278,3.796L8.353,71.563
	l3.798-7.278c-1.782-3.029-3.131-6.282-4.012-9.679L0.31,52.146V37.855l7.829-2.46c0.881-3.395,2.229-6.649,4.012-9.68l-3.798-7.277
	L18.458,8.332l7.278,3.797c3.033-1.783,6.286-3.131,9.68-4.012l2.46-7.828h14.291l2.46,7.828c3.395,0.881,6.648,2.23,9.681,4.012
	l7.275-3.797L81.69,18.437l-3.797,7.277c1.783,3.034,3.131,6.287,4.012,9.68l7.829,2.46v14.291l-7.829,2.461
	c-0.881,3.395-2.229,6.647-4.012,9.679l3.797,7.278L71.583,81.668l-7.275-3.796c-3.031,1.781-6.285,3.13-9.681,4.011L52.167,89.713z
	 M38.725,88.557H51.32l2.398-7.636l0.313-0.079c3.505-0.877,6.855-2.266,9.961-4.127l0.277-0.166l7.097,3.702l8.905-8.905
	l-3.702-7.098l0.166-0.277c1.862-3.106,3.251-6.457,4.128-9.959l0.078-0.314l7.636-2.4V38.704l-7.636-2.399l-0.078-0.314
	c-0.877-3.501-2.266-6.853-4.128-9.961l-0.166-0.277l3.702-7.097l-8.905-8.906l-7.097,3.704l-0.277-0.167
	c-3.106-1.862-6.458-3.251-9.961-4.128l-0.313-0.079L51.32,1.445H38.725l-2.399,7.634l-0.314,0.079
	c-3.502,0.877-6.853,2.266-9.96,4.128l-0.278,0.167l-7.098-3.704L9.77,18.655l3.705,7.097l-0.167,0.278
	c-1.863,3.106-3.251,6.457-4.128,9.96l-0.079,0.314l-7.635,2.399v12.593l7.635,2.4l0.079,0.314c0.877,3.504,2.267,6.854,4.128,9.959
	l0.167,0.277L9.77,71.346l8.906,8.905l7.098-3.702l0.277,0.166c3.106,1.861,6.458,3.25,9.961,4.127l0.314,0.079L38.725,88.557z"/>
<linearGradient id="SVGID_2_" gradientUnits="userSpaceOnUse" x1="18.8447" y1="81.2559" x2="72.0946" y2="7.506">
	<stop  offset="0" style="stop-color:#68CD52"/>
	<stop  offset="1" style="stop-color:#1A97D5"/>
</linearGradient>
<path fill="url(#SVGID_2_)" d="M45.022,76.564c-17.405,0-31.565-14.159-31.565-31.563c0-17.405,14.16-31.566,31.565-31.566
	c17.404,0,31.564,14.161,31.564,31.566C76.586,62.405,62.426,76.564,45.022,76.564z M45.022,14.591
	c-16.768,0-30.409,13.642-30.409,30.41c0,16.767,13.641,30.407,30.409,30.407S75.43,61.768,75.43,45.001
	C75.43,28.233,61.79,14.591,45.022,14.591z"/>
<linearGradient id="SVGID_3_" gradientUnits="userSpaceOnUse" x1="18.8452" y1="81.2549" x2="72.0941" y2="7.5065">
	<stop  offset="0" style="stop-color:#68CD52"/>
	<stop  offset="1" style="stop-color:#1A97D5"/>
</linearGradient>
<path fill="url(#SVGID_3_)" d="M50.621,45.001c0,3.091-2.507,5.598-5.599,5.598c-3.093,0-5.599-2.507-5.599-5.598
	c0-3.093,2.506-5.599,5.599-5.599C48.114,39.402,50.621,41.908,50.621,45.001"/>
<linearGradient id="SVGID_4_" gradientUnits="userSpaceOnUse" x1="-4.4639" y1="64.4258" x2="48.7861" y2="-9.3242">
	<stop  offset="0" style="stop-color:#68CD52"/>
	<stop  offset="1" style="stop-color:#1A97D5"/>
</linearGradient>
<polygon fill="url(#SVGID_4_)" points="33.996,16.425 32.894,16.078 37.749,0.693 38.852,1.041 "/>
<linearGradient id="SVGID_5_" gradientUnits="userSpaceOnUse" x1="7.5635" y1="73.1113" x2="60.8135" y2="-0.6387">
	<stop  offset="0" style="stop-color:#68CD52"/>
	<stop  offset="1" style="stop-color:#1A97D5"/>
</linearGradient>
<polygon fill="url(#SVGID_5_)" points="56.048,16.425 51.192,1.041 52.293,0.693 57.15,16.078 "/>
<linearGradient id="SVGID_6_" gradientUnits="userSpaceOnUse" x1="42.1538" y1="98.0869" x2="95.4055" y2="24.3346">
	<stop  offset="0" style="stop-color:#68CD52"/>
	<stop  offset="1" style="stop-color:#1A97D5"/>
</linearGradient>
<polygon fill="url(#SVGID_6_)" points="52.294,89.308 51.193,88.96 56.048,73.574 57.15,73.922 "/>
<linearGradient id="SVGID_7_" gradientUnits="userSpaceOnUse" x1="30.126" y1="89.4014" x2="83.376" y2="15.6514">
	<stop  offset="0" style="stop-color:#68CD52"/>
	<stop  offset="1" style="stop-color:#1A97D5"/>
</linearGradient>
<polygon fill="url(#SVGID_7_)" points="37.749,89.308 32.894,73.923 33.997,73.575 38.852,88.96 "/>
<linearGradient id="SVGID_8_" gradientUnits="userSpaceOnUse" x1="38.4551" y1="95.416" x2="91.7051" y2="21.666">
	<stop  offset="0" style="stop-color:#68CD52"/>
	<stop  offset="1" style="stop-color:#1A97D5"/>
</linearGradient>
<polygon fill="url(#SVGID_8_)" points="88.982,38.831 73.597,33.973 73.945,32.871 89.33,37.728 "/>
<linearGradient id="SVGID_9_" gradientUnits="userSpaceOnUse" x1="47.1421" y1="101.6855" x2="100.3902" y2="27.9382">
	<stop  offset="0" style="stop-color:#68CD52"/>
	<stop  offset="1" style="stop-color:#1A97D5"/>
</linearGradient>
<polygon fill="url(#SVGID_9_)" points="73.945,57.128 73.597,56.025 88.982,51.17 89.33,52.272 "/>
<linearGradient id="SVGID_10_" gradientUnits="userSpaceOnUse" x1="-0.7651" y1="67.0938" x2="52.4764" y2="-6.6446">
	<stop  offset="0" style="stop-color:#68CD52"/>
	<stop  offset="1" style="stop-color:#1A97D5"/>
</linearGradient>
<polygon fill="url(#SVGID_10_)" points="16.098,57.129 0.714,52.272 1.062,51.17 16.446,56.027 "/>
<linearGradient id="SVGID_11_" gradientUnits="userSpaceOnUse" x1="-9.4512" y1="60.8262" x2="43.7988" y2="-12.9238">
	<stop  offset="0" style="stop-color:#68CD52"/>
	<stop  offset="1" style="stop-color:#1A97D5"/>
</linearGradient>
<polygon fill="url(#SVGID_11_)" points="1.062,38.831 0.714,37.728 16.098,32.873 16.446,33.975 "/>
<linearGradient id="SVGID_12_" gradientUnits="userSpaceOnUse" x1="16.2378" y1="79.3564" x2="69.4878" y2="5.6064">
	<stop  offset="0" style="stop-color:#68CD52"/>
	<stop  offset="1" style="stop-color:#1A97D5"/>
</linearGradient>
<polygon fill="url(#SVGID_12_)" points="57.43,16.999 56.897,15.973 71.209,8.527 71.743,9.553 "/>
<linearGradient id="SVGID_13_" gradientUnits="userSpaceOnUse" x1="30.8784" y1="89.9414" x2="84.1268" y2="16.1936">
	<stop  offset="0" style="stop-color:#68CD52"/>
	<stop  offset="1" style="stop-color:#1A97D5"/>
</linearGradient>
<polygon fill="url(#SVGID_13_)" points="74.049,33.124 73.024,32.59 80.47,18.279 81.496,18.812 "/>
<linearGradient id="SVGID_14_" gradientUnits="userSpaceOnUse" x1="21.459" y1="83.1445" x2="74.709" y2="9.3945">
	<stop  offset="0" style="stop-color:#68CD52"/>
	<stop  offset="1" style="stop-color:#1A97D5"/>
</linearGradient>
<polygon fill="url(#SVGID_14_)" points="18.833,81.473 18.3,80.447 32.612,73.002 33.146,74.027 "/>
<linearGradient id="SVGID_15_" gradientUnits="userSpaceOnUse" x1="6.8135" y1="72.5693" x2="60.0635" y2="-1.1807">
	<stop  offset="0" style="stop-color:#68CD52"/>
	<stop  offset="1" style="stop-color:#1A97D5"/>
</linearGradient>
<polygon fill="url(#SVGID_15_)" points="9.574,71.721 8.548,71.188 15.994,56.876 17.02,57.409 "/>
<linearGradient id="SVGID_16_" gradientUnits="userSpaceOnUse" x1="49.1938" y1="103.166" x2="102.4407" y2="29.4204">
	<stop  offset="0" style="stop-color:#68CD52"/>
	<stop  offset="1" style="stop-color:#1A97D5"/>
</linearGradient>
<polygon fill="url(#SVGID_16_)" points="80.468,71.721 73.023,57.408 74.048,56.875 81.494,71.188 "/>
<linearGradient id="SVGID_17_" gradientUnits="userSpaceOnUse" x1="46.8325" y1="101.46" x2="100.0751" y2="27.7203">
	<stop  offset="0" style="stop-color:#68CD52"/>
	<stop  offset="1" style="stop-color:#1A97D5"/>
</linearGradient>
<polygon fill="url(#SVGID_17_)" points="71.208,81.473 56.898,74.027 57.431,73.002 71.742,80.447 "/>
<linearGradient id="SVGID_18_" gradientUnits="userSpaceOnUse" x1="-11.5039" y1="59.3438" x2="41.7461" y2="-14.4062">
	<stop  offset="0" style="stop-color:#68CD52"/>
	<stop  offset="1" style="stop-color:#1A97D5"/>
</linearGradient>
<polygon fill="url(#SVGID_18_)" points="15.995,33.125 8.549,18.812 9.574,18.279 17.02,32.591 "/>
<linearGradient id="SVGID_19_" gradientUnits="userSpaceOnUse" x1="-9.1465" y1="61.0557" x2="44.111" y2="-12.7047">
	<stop  offset="0" style="stop-color:#68CD52"/>
	<stop  offset="1" style="stop-color:#1A97D5"/>
</linearGradient>
<polygon fill="url(#SVGID_19_)" points="32.612,16.999 18.301,9.553 18.834,8.527 33.145,15.973 "/>
<linearGradient id="SVGID_20_" gradientUnits="userSpaceOnUse" x1="18.8442" y1="81.2568" x2="72.0946" y2="7.5064">
	<stop  offset="0" style="stop-color:#68CD52"/>
	<stop  offset="1" style="stop-color:#1A97D5"/>
</linearGradient>
<path fill="url(#SVGID_20_)" d="M45.022,55.531c-5.807,0-10.531-4.725-10.531-10.53c0-5.808,4.725-10.532,10.531-10.532
	s10.531,4.725,10.531,10.532C55.553,50.807,50.829,55.531,45.022,55.531z M45.022,35.625c-5.169,0-9.375,4.206-9.375,9.376
	c0,5.169,4.206,9.374,9.375,9.374c5.17,0,9.375-4.205,9.375-9.374C54.397,39.831,50.192,35.625,45.022,35.625z"/>
<linearGradient id="SVGID_21_" gradientUnits="userSpaceOnUse" x1="18.8447" y1="81.2559" x2="72.0947" y2="7.5059">
	<stop  offset="0" style="stop-color:#68CD52"/>
	<stop  offset="1" style="stop-color:#1A97D5"/>
</linearGradient>
<path fill="url(#SVGID_21_)" d="M45.022,86.332c-22.79,0-41.332-18.541-41.332-41.331c0-22.791,18.542-41.333,41.332-41.333
	S86.354,22.21,86.354,45.001C86.354,67.791,67.812,86.332,45.022,86.332z M45.022,4.825c-22.153,0-40.175,18.023-40.175,40.176
	c0,22.152,18.022,40.175,40.175,40.175c22.153,0,40.176-18.022,40.176-40.175C85.198,22.848,67.175,4.825,45.022,4.825z"/>
<linearGradient id="SVGID_22_" gradientUnits="userSpaceOnUse" x1="18.8447" y1="81.2559" x2="72.0946" y2="7.506">
	<stop  offset="0" style="stop-color:#68CD52"/>
	<stop  offset="1" style="stop-color:#1A97D5"/>
</linearGradient>
<path fill="url(#SVGID_22_)" d="M45.021,73.301c-15.604,0-28.3-12.695-28.3-28.3c0-15.605,12.695-28.301,28.3-28.301
	c15.605,0,28.301,12.696,28.301,28.301C73.322,60.605,60.626,73.301,45.021,73.301z M45.021,17.736
	c-15.033,0-27.264,12.231-27.264,27.265s12.23,27.265,27.264,27.265c15.034,0,27.266-12.23,27.266-27.265
	S60.055,17.736,45.021,17.736z"/>
</svg>
