<?xml version="1.0" encoding="utf-8"?>
<!-- Generator: Adobe Illustrator 16.0.0, SVG Export Plug-In . SVG Version: 6.00 Build 0)  -->
<!DOCTYPE svg PUBLIC "-//W3C//DTD SVG 1.1//EN" "http://www.w3.org/Graphics/SVG/1.1/DTD/svg11.dtd">
<svg version="1.1" id="Layer_1" xmlns="http://www.w3.org/2000/svg" xmlns:xlink="http://www.w3.org/1999/xlink" x="0px" y="0px"
	 width="360px" height="202px" viewBox="0 0 360 202" enable-background="new 0 0 360 202" xml:space="preserve">
<g id="Layer_3">
</g>
<g id="Layer_8">
	
		<linearGradient id="SVGID_1_" gradientUnits="userSpaceOnUse" x1="325.2998" y1="-343.5059" x2="325.2998" y2="-343.5059" gradientTransform="matrix(1 0 0 -1 -280 -167)">
		<stop  offset="0" style="stop-color:#68CD52"/>
		<stop  offset="1" style="stop-color:#1A97D5"/>
	</linearGradient>
	<path fill="url(#SVGID_1_)" d="M45.3,176.506"/>
	<g>
		<path fill="#FFFFFF" d="M357.756,190.169h-33.387c0.043-0.339,0.062-0.653,0.062-0.953V8.752c0-4.901-3.987-8.888-8.89-8.888
			H44.773c-4.902,0-8.89,3.987-8.89,8.888v180.464c0,0.3,0.021,0.614,0.062,0.953H2.242c-0.766,0-1.39,0.623-1.39,1.39v5.324
			c0,0.678,0.351,1.247,0.946,1.553c1.226,1.489,8.346,3.699,13.262,3.699h329.877c4.914,0,12.032-2.209,13.262-3.699
			c0.597-0.305,0.947-0.875,0.947-1.553v-5.324C359.147,190.792,358.523,190.169,357.756,190.169z M315,176.506
			c0,1.01-0.821,1.832-1.831,1.832H47.131c-1.01,0-1.831-0.822-1.831-1.832V11.604c0-1.01,0.821-1.832,1.831-1.832h266.038
			c1.01,0,1.831,0.822,1.831,1.832V176.506z"/>
	</g>
</g>
<g id="Layer_1_1_">
	<g>
		<g>
			
				<linearGradient id="SVGID_2_" gradientUnits="userSpaceOnUse" x1="373.6289" y1="-390.0874" x2="693.6299" y2="-15.5864" gradientTransform="matrix(1 0 0 -1 -280 -167)">
				<stop  offset="0" style="stop-color:#68CD52"/>
				<stop  offset="1" style="stop-color:#1A97D5"/>
			</linearGradient>
			<path fill="url(#SVGID_2_)" d="M357.756,190.669h-33.97c0.089-0.487,0.146-0.978,0.146-1.453V8.752
				c0-4.625-3.764-8.388-8.39-8.388H44.773c-4.626,0-8.39,3.763-8.39,8.388v180.464c0,0.479,0.057,0.966,0.145,1.453H2.242
				c-0.491,0-0.89,0.397-0.89,0.89v5.324c0,0.293,0.097,0.869,0.775,1.154c0.671,1.195,7.876,3.598,12.932,3.598h329.877
				c5.056,0,12.26-2.4,12.933-3.598c0.68-0.284,0.777-0.861,0.777-1.154v-5.324C358.647,191.068,358.246,190.669,357.756,190.669z
				 M36.999,189.216V8.752c0-4.287,3.488-7.773,7.775-7.773h270.77c4.287,0,7.775,3.487,7.775,7.773v180.464
				c0,0.476-0.051,0.964-0.146,1.453H205.236H154.66H37.141C37.047,190.18,36.999,189.693,36.999,189.216z M204.613,191.283
				c-0.146,2.123-1.793,3.803-3.797,3.803H159.08c-2.004,0-3.651-1.68-3.796-3.803H204.613z M15.06,201.021
				c-4.642,0-9.956-1.857-11.773-2.814h353.426c-1.818,0.956-7.134,2.814-11.773,2.814H15.06z M358.033,196.883
				c0,0.381-0.264,0.602-0.756,0.676l-177.292-0.053h-0.306v0.053H2.723c-0.495-0.072-0.757-0.295-0.757-0.676v-5.324
				c0-0.151,0.124-0.275,0.276-0.275h34.404h118.042c0.151,2.458,2.052,4.415,4.392,4.415h41.736c2.341,0,4.24-1.957,4.392-4.415
				h118.463h34.085c0.153,0,0.277,0.124,0.277,0.275V196.883L358.033,196.883z"/>
			
				<linearGradient id="SVGID_3_" gradientUnits="userSpaceOnUse" x1="373.6299" y1="-390.0869" x2="693.6299" y2="-15.5869" gradientTransform="matrix(1 0 0 -1 -280 -167)">
				<stop  offset="0" style="stop-color:#68CD52"/>
				<stop  offset="1" style="stop-color:#1A97D5"/>
			</linearGradient>
			<path fill="url(#SVGID_3_)" d="M344.938,202.135H15.06c-4.916,0-12.036-2.21-13.262-3.699c-0.595-0.306-0.946-0.875-0.946-1.553
				v-5.324c0-0.767,0.624-1.39,1.39-1.39h33.704c-0.042-0.339-0.062-0.653-0.062-0.953V8.752c0-4.901,3.988-8.888,8.89-8.888h270.77
				c4.901,0,8.89,3.987,8.89,8.888v180.464c0,0.3-0.021,0.614-0.062,0.953h33.387c0.769,0,1.393,0.623,1.393,1.39v5.324
				c0,0.678-0.353,1.248-0.948,1.553C356.971,199.926,349.853,202.135,344.938,202.135z M5.758,198.707
				c2.459,0.881,6.09,1.814,9.302,1.814h329.877c3.21,0,6.841-0.935,9.302-1.814H5.758z M2.466,191.783v5.101
				c0,0.046,0,0.132,0.33,0.183l176.384-0.006l0.806-0.054l177.292,0.054c0.256-0.045,0.256-0.133,0.256-0.177v-5.101H205.658
				c-0.369,2.511-2.416,4.415-4.842,4.415H159.08c-2.425,0-4.472-1.904-4.842-4.415H2.466L2.466,191.783z M155.857,191.783
				c0.339,1.607,1.67,2.803,3.224,2.803h41.737c1.553,0,2.884-1.193,3.223-2.803H155.857z M37.565,190.169H322.75
				c0.046-0.323,0.068-0.644,0.068-0.953V8.752c0-4.011-3.265-7.273-7.275-7.273H44.773c-4.011,0-7.275,3.263-7.275,7.273v180.464
				C37.499,189.527,37.521,189.848,37.565,190.169z"/>
		</g>
		<g>
			
				<linearGradient id="SVGID_4_" gradientUnits="userSpaceOnUse" x1="359.7275" y1="-378.2041" x2="679.7266" y2="-3.7052" gradientTransform="matrix(1 0 0 -1 -280 -167)">
				<stop  offset="0" style="stop-color:#68CD52"/>
				<stop  offset="1" style="stop-color:#1A97D5"/>
			</linearGradient>
			<path fill="url(#SVGID_4_)" d="M322.718,178.762V8.598c0-3.884-3.16-7.044-7.044-7.044H44.626c-3.884,0-7.044,3.161-7.044,7.044
				v170.163c0,3.884,3.16,7.044,7.044,7.044h271.047C319.558,185.805,322.718,182.645,322.718,178.762z M38.196,178.762V8.598
				c0-3.546,2.884-6.43,6.43-6.43h271.047c3.545,0,6.429,2.884,6.429,6.43v170.163c0,3.546-2.884,6.431-6.429,6.431H44.626
				C41.081,185.191,38.196,182.307,38.196,178.762z"/>
			
				<linearGradient id="SVGID_5_" gradientUnits="userSpaceOnUse" x1="359.7266" y1="-378.2061" x2="679.7256" y2="-3.7072" gradientTransform="matrix(1 0 0 -1 -280 -167)">
				<stop  offset="0" style="stop-color:#68CD52"/>
				<stop  offset="1" style="stop-color:#1A97D5"/>
			</linearGradient>
			<path fill="url(#SVGID_5_)" d="M315.674,186.305H44.626c-4.16,0-7.544-3.384-7.544-7.544V8.598c0-4.16,3.384-7.544,7.544-7.544
				h271.047c4.16,0,7.544,3.384,7.544,7.544v170.163C323.218,182.921,319.834,186.305,315.674,186.305z M44.626,2.668
				c-3.27,0-5.93,2.66-5.93,5.93v170.163c0,3.271,2.66,5.931,5.93,5.931h271.047c3.271,0,5.929-2.66,5.929-5.931V8.598
				c0-3.27-2.658-5.93-5.929-5.93H44.626z"/>
		</g>
		<g>
			
				<linearGradient id="SVGID_6_" gradientUnits="userSpaceOnUse" x1="359.9102" y1="-378.3657" x2="679.9113" y2="-3.8645" gradientTransform="matrix(1 0 0 -1 -280 -167)">
				<stop  offset="0" style="stop-color:#68CD52"/>
				<stop  offset="1" style="stop-color:#1A97D5"/>
			</linearGradient>
			<path fill="url(#SVGID_6_)" d="M313.169,10.272H47.131c-0.735,0-1.331,0.597-1.331,1.332v164.902
				c0,0.735,0.596,1.332,1.331,1.332h266.038c0.733,0,1.331-0.597,1.331-1.332V11.604C314.5,10.87,313.902,10.272,313.169,10.272z
				 M313.886,176.506c0,0.396-0.321,0.719-0.717,0.719H47.131c-0.396,0-0.717-0.322-0.717-0.719V11.604
				c0-0.396,0.321-0.717,0.717-0.717h266.038c0.396,0,0.717,0.321,0.717,0.717V176.506L313.886,176.506z"/>
			
				<linearGradient id="SVGID_7_" gradientUnits="userSpaceOnUse" x1="359.9102" y1="-378.3657" x2="679.9103" y2="-3.8657" gradientTransform="matrix(1 0 0 -1 -280 -167)">
				<stop  offset="0" style="stop-color:#68CD52"/>
				<stop  offset="1" style="stop-color:#1A97D5"/>
			</linearGradient>
			<path fill="url(#SVGID_7_)" d="M313.169,178.338H47.131c-1.01,0-1.831-0.822-1.831-1.832V11.604c0-1.01,0.821-1.832,1.831-1.832
				h266.038c1.01,0,1.831,0.822,1.831,1.832v164.902C315,177.516,314.179,178.338,313.169,178.338z M47.131,11.387
				c-0.12,0-0.217,0.097-0.217,0.217v164.902c0,0.121,0.098,0.219,0.217,0.219h266.038c0.117,0,0.217-0.101,0.217-0.219V11.604
				c0-0.12-0.098-0.217-0.217-0.217H47.131z"/>
		</g>
	</g>
</g>
<g id="Layer_9">
</g>
<g id="Layer_2">
	<g>
		
			<linearGradient id="SVGID_8_" gradientUnits="userSpaceOnUse" x1="408.3125" y1="-287.1426" x2="466.312" y2="-229.6431" gradientTransform="matrix(1 0 0 -1 -280 -167)">
			<stop  offset="0" style="stop-color:#68CD52"/>
			<stop  offset="1" style="stop-color:#1A97D5"/>
		</linearGradient>
		<polygon fill="url(#SVGID_8_)" points="142.067,111.236 141.891,111.236 140.199,73.794 112.56,73.794 101.421,137.445 
			119.788,137.445 126.933,96.617 127.11,96.617 130.914,137.445 144.633,137.445 161.966,96.617 162.143,96.617 154.997,137.445 
			173.364,137.445 184.503,73.794 156.865,73.794 		"/>
		
			<linearGradient id="SVGID_9_" gradientUnits="userSpaceOnUse" x1="435.3438" y1="-314.4111" x2="493.3438" y2="-256.9111" gradientTransform="matrix(1 0 0 -1 -280 -167)">
			<stop  offset="0" style="stop-color:#68CD52"/>
			<stop  offset="1" style="stop-color:#1A97D5"/>
		</linearGradient>
		<polygon fill="url(#SVGID_9_)" points="231.021,90.109 233.877,73.794 189.921,73.794 187.066,90.109 193.936,90.109 
			185.65,137.445 205.077,137.445 213.361,90.109 		"/>
		
			<linearGradient id="SVGID_10_" gradientUnits="userSpaceOnUse" x1="458.498" y1="-337.7646" x2="516.497" y2="-280.2657" gradientTransform="matrix(1 0 0 -1 -280 -167)">
			<stop  offset="0" style="stop-color:#68CD52"/>
			<stop  offset="1" style="stop-color:#1A97D5"/>
		</linearGradient>
		<path fill="url(#SVGID_10_)" d="M240.757,95.213H218.45l-7.402,42.298h12.909l2.581-14.751h4.586c5.104,0,5.793,4.206,5.382,8.234
			c-0.208,2.191-0.845,6.517-0.845,6.517l12.507,0.128c0,0,1.165-7.178,1.341-9.191c0.453-5.271-2.047-9.182-5.329-10.545
			c4.563-1.6,7.367-6.221,8.135-10.604C253.714,99.3,248.033,95.213,240.757,95.213z M239.021,109.49
			c-0.664,3.792-4.022,4.207-6.43,4.207h-4.468l1.472-8.413h3.766C238.29,105.284,239.486,106.824,239.021,109.49z"/>
		
			<linearGradient id="SVGID_11_" gradientUnits="userSpaceOnUse" x1="447.6475" y1="-326.811" x2="505.6444" y2="-269.314" gradientTransform="matrix(1 0 0 -1 -280 -167)">
			<stop  offset="0" style="stop-color:#68CD52"/>
			<stop  offset="1" style="stop-color:#1A97D5"/>
		</linearGradient>
		<path fill="url(#SVGID_11_)" d="M245.594,86.176c-2.363,0-2.462-2.001-2.216-4.002c0.24-1.97,0.836-4.033,3.2-4.033
			c0.652,0,1.128,0.188,1.49,0.531c0.361,0.343,0.519,0.845,0.496,1.532h5.85c0.146-4.502-3.146-6.564-7.409-6.564
			c-4.854,0-9.159,3.407-9.787,8.534c-0.629,5.127,2.847,8.503,7.7,8.503c4.355,0,8.111-2.47,9.243-6.877h-5.882
			C247.999,85.082,246.932,86.176,245.594,86.176z"/>
	</g>
</g>
<g id="Layer_5">
</g>
<g id="Layer_4">
</g>
</svg>
