<?xml version="1.0" encoding="utf-8"?>
<!-- Generator: Adobe Illustrator 16.0.0, SVG Export Plug-In . SVG Version: 6.00 Build 0)  -->
<!DOCTYPE svg PUBLIC "-//W3C//DTD SVG 1.1//EN" "http://www.w3.org/Graphics/SVG/1.1/DTD/svg11.dtd">
<svg version="1.1" id="Layer_2" xmlns="http://www.w3.org/2000/svg" xmlns:xlink="http://www.w3.org/1999/xlink" x="0px" y="0px"
	 width="697px" height="216px" viewBox="0 0 697 216" enable-background="new 0 0 697 216" xml:space="preserve">
<g>
	<linearGradient id="SVGID_1_" gradientUnits="userSpaceOnUse" x1="205.5" y1="84.5" x2="1.7494" y2="84.5">
		<stop  offset="0" style="stop-color:#68CD52"/>
		<stop  offset="1" style="stop-color:#1A97D5"/>
	</linearGradient>
	<rect x="204" y="84" fill="url(#SVGID_1_)" width="2" height="1"/>
	<linearGradient id="SVGID_2_" gradientUnits="userSpaceOnUse" x1="205.5" y1="84.5" x2="1.7494" y2="84.5">
		<stop  offset="0" style="stop-color:#68CD52"/>
		<stop  offset="1" style="stop-color:#1A97D5"/>
	</linearGradient>
	<path fill="url(#SVGID_2_)" d="M202,85h-4v-1h4V85z M196,85h-4v-1h4V85z M190,85h-4v-1h4V85z M184,85h-4v-1h4V85z M178,85h-4v-1h4
		V85z M172,85h-4v-1h4V85z M166,85h-4v-1h4V85z M160,85h-4v-1h4V85z M154,85h-4v-1h4V85z M148,85h-4v-1h4V85z M142,85h-4v-1h4V85z
		 M136,85h-4v-1h4V85z M130,85h-4v-1h4V85z M124,85h-4v-1h4V85z M118,85h-4v-1h4V85z M112,85h-4v-1h4V85z M106,85h-4v-1h4V85z
		 M100,85h-4v-1h4V85z M94,85h-4v-1h4V85z M88,85h-4v-1h4V85z M82,85h-4v-1h4V85z M76,85h-4v-1h4V85z M70,85h-4v-1h4V85z M64,85h-4
		v-1h4V85z M58,85h-4v-1h4V85z M52,85h-4v-1h4V85z M46,85h-4v-1h4V85z M40,85h-4v-1h4V85z M34,85h-4v-1h4V85z M28,85h-4v-1h4V85z
		 M22,85h-4v-1h4V85z M16,85h-4v-1h4V85z M10,85H6v-1h4V85z M4,85H0v-1h4V85z"/>
</g>
<g>
	<linearGradient id="SVGID_3_" gradientUnits="userSpaceOnUse" x1="349.5" y1="182.8115" x2="349.5" y2="231.4916">
		<stop  offset="0" style="stop-color:#68CD52"/>
		<stop  offset="1" style="stop-color:#1A97D5"/>
	</linearGradient>
	<path fill="url(#SVGID_3_)" d="M350,213h-1v-4h1V213z M350,207h-1v-4h1V207z M350,201h-1v-4h1V201z M350,195h-1v-4h1V195z M350,189
		h-1v-4h1V189z M350,183h-1v-4h1V183z M350,177h-1v-4h1V177z"/>
</g>
<g>
	<path fill="#219BD5" d="M1,82H0v-4h1V82z M1,76H0v-4h1V76z M1,70H0v-4h1V70z M1,64H0v-4h1V64z M1,58H0v-4h1V58z M1,52H0v-4h1V52z
		 M1,46H0v-4h1V46z M1,40H0v-4h1V40z M1,34H0v-4h1V34z M1,28H0v-4h1V28z M1,22H0v-4h1V22z M1,16H0v-4h1V16z M1,10H0V6h1V10z M1,4H0
		V0h1V4z"/>
</g>
<g>
	<linearGradient id="SVGID_4_" gradientUnits="userSpaceOnUse" x1="146" y1="215.5" x2="552" y2="215.5">
		<stop  offset="0" style="stop-color:#1A97D5"/>
		<stop  offset="0.5139" style="stop-color:#68CD52"/>
		<stop  offset="1" style="stop-color:#1A97D5"/>
	</linearGradient>
	<path fill="url(#SVGID_4_)" d="M552,216h-4v-1h4V216z M546,216h-4v-1h4V216z M540,216h-4v-1h4V216z M534,216h-4v-1h4V216z M528,216
		h-4v-1h4V216z M522,216h-4v-1h4V216z M516,216h-4v-1h4V216z M510,216h-4v-1h4V216z M504,216h-4v-1h4V216z M498,216h-4v-1h4V216z
		 M492,216h-4v-1h4V216z M486,216h-4v-1h4V216z M480,216h-4v-1h4V216z M474,216h-4v-1h4V216z M468,216h-4v-1h4V216z M462,216h-4v-1
		h4V216z M456,216h-4v-1h4V216z M450,216h-4v-1h4V216z M444,216h-4v-1h4V216z M438,216h-4v-1h4V216z M432,216h-4v-1h4V216z M426,216
		h-4v-1h4V216z M420,216h-4v-1h4V216z M414,216h-4v-1h4V216z M408,216h-4v-1h4V216z M402,216h-4v-1h4V216z M396,216h-4v-1h4V216z
		 M390,216h-4v-1h4V216z M384,216h-4v-1h4V216z M378,216h-4v-1h4V216z M372,216h-4v-1h4V216z M366,216h-4v-1h4V216z M360,216h-4v-1
		h4V216z M354,216h-4v-1h4V216z M348,216h-4v-1h4V216z M342,216h-4v-1h4V216z M336,216h-4v-1h4V216z M330,216h-4v-1h4V216z M324,216
		h-4v-1h4V216z M318,216h-4v-1h4V216z M312,216h-4v-1h4V216z M306,216h-4v-1h4V216z M300,216h-4v-1h4V216z M294,216h-4v-1h4V216z
		 M288,216h-4v-1h4V216z M282,216h-4v-1h4V216z M276,216h-4v-1h4V216z M270,216h-4v-1h4V216z M264,216h-4v-1h4V216z M258,216h-4v-1
		h4V216z M252,216h-4v-1h4V216z M246,216h-4v-1h4V216z M240,216h-4v-1h4V216z M234,216h-4v-1h4V216z M228,216h-4v-1h4V216z M222,216
		h-4v-1h4V216z M216,216h-4v-1h4V216z M210,216h-4v-1h4V216z M204,216h-4v-1h4V216z M198,216h-4v-1h4V216z M192,216h-4v-1h4V216z
		 M186,216h-4v-1h4V216z M180,216h-4v-1h4V216z M174,216h-4v-1h4V216z M168,216h-4v-1h4V216z M162,216h-4v-1h4V216z M156,216h-4v-1
		h4V216z M150,216h-4v-1h4V216z"/>
</g>
<g>
	<linearGradient id="SVGID_5_" gradientUnits="userSpaceOnUse" x1="495" y1="84.5" x2="697" y2="84.5">
		<stop  offset="0" style="stop-color:#68CD52"/>
		<stop  offset="1" style="stop-color:#1A97D5"/>
	</linearGradient>
	<path fill="url(#SVGID_5_)" d="M697,85h-4v-1h4V85z M691,85h-4v-1h4V85z M685,85h-4v-1h4V85z M679,85h-4v-1h4V85z M673,85h-4v-1h4
		V85z M667,85h-4v-1h4V85z M661,85h-4v-1h4V85z M655,85h-4v-1h4V85z M649,85h-4v-1h4V85z M643,85h-4v-1h4V85z M637,85h-4v-1h4V85z
		 M631,85h-4v-1h4V85z M625,85h-4v-1h4V85z M619,85h-4v-1h4V85z M613,85h-4v-1h4V85z M607,85h-4v-1h4V85z M601,85h-4v-1h4V85z
		 M595,85h-4v-1h4V85z M589,85h-4v-1h4V85z M583,85h-4v-1h4V85z M577,85h-4v-1h4V85z M571,85h-4v-1h4V85z M565,85h-4v-1h4V85z
		 M559,85h-4v-1h4V85z M553,85h-4v-1h4V85z M547,85h-4v-1h4V85z M541,85h-4v-1h4V85z M535,85h-4v-1h4V85z M529,85h-4v-1h4V85z
		 M523,85h-4v-1h4V85z M517,85h-4v-1h4V85z M511,85h-4v-1h4V85z M505,85h-4v-1h4V85z M499,85h-4v-1h4V85z"/>
</g>
<g>
	<path fill="#219BD5" d="M697,82h-1v-4h1V82z M697,76h-1v-4h1V76z M697,70h-1v-4h1V70z M697,64h-1v-4h1V64z M697,58h-1v-4h1V58z
		 M697,52h-1v-4h1V52z M697,46h-1v-4h1V46z M697,40h-1v-4h1V40z M697,34h-1v-4h1V34z M697,28h-1v-4h1V28z M697,22h-1v-4h1V22z
		 M697,16h-1v-4h1V16z M697,10h-1V6h1V10z M697,4h-1V0h1V4z"/>
</g>
</svg>
