<?xml version="1.0" encoding="utf-8"?>
<!-- Generator: Adobe Illustrator 16.0.0, SVG Export Plug-In . SVG Version: 6.00 Build 0)  -->
<!DOCTYPE svg PUBLIC "-//W3C//DTD SVG 1.1//EN" "http://www.w3.org/Graphics/SVG/1.1/DTD/svg11.dtd">
<svg version="1.1"
	 id="Layer_1" xmlns:rdf="http://www.w3.org/1999/02/22-rdf-syntax-ns#" xmlns:svg="http://www.w3.org/2000/svg" xmlns:sodipodi="http://sodipodi.sourceforge.net/DTD/sodipodi-0.dtd" xmlns:dc="http://purl.org/dc/elements/1.1/" xmlns:inkscape="http://www.inkscape.org/namespaces/inkscape" xmlns:cc="http://creativecommons.org/ns#"
	 xmlns="http://www.w3.org/2000/svg" xmlns:xlink="http://www.w3.org/1999/xlink" x="0px" y="0px" width="32.094px"
	 height="18.445px" viewBox="1.453 0 32.094 18.445" enable-background="new 1.453 0 32.094 18.445" xml:space="preserve">
<g transform="translate(0,-962.36216)">
	<path fill="#1A97D5" d="M1.837,978.864c-0.21,0-0.385,0.176-0.385,0.385v1.173c0,0.21,0.175,0.386,0.385,0.386h31.325
		c0.211,0,0.385-0.176,0.385-0.386v-1.173c0-0.209-0.174-0.385-0.385-0.385H1.837z M2.223,979.635H32.76v0.385H2.223V979.635z"/>
	<path fill="#1A97D5" d="M4.987,962.362c-0.21,0-0.385,0.175-0.385,0.385v15.312c0,0.21,0.175,0.385,0.385,0.385h25.042
		c0.211,0,0.386-0.175,0.386-0.385v-2.293l-0.771-0.77v2.678H5.373v-14.542h24.254v5.04c0.315,0.367,0.596,0.77,0.771,1.225v-6.65
		c0-0.21-0.175-0.385-0.385-0.385H4.987z"/>
	<path fill="#1A97D5" d="M21.945,967.262c0.646-0.123,1.067-0.77,0.945-1.4c-0.123-0.63-0.771-1.068-1.4-0.945
		c-0.631,0.123-1.068,0.77-0.945,1.4C20.668,966.965,21.297,967.385,21.945,967.262z M21.787,966.492
		c-0.227,0.052-0.438-0.105-0.49-0.333c-0.052-0.228,0.105-0.438,0.333-0.49c0.228-0.052,0.438,0.105,0.49,0.333
		C22.172,966.229,22.016,966.439,21.787,966.492z"/>
	<path fill="#1A97D5" d="M17.308,971.899c0.647,0,1.19-0.542,1.19-1.19s-0.543-1.19-1.19-1.19s-1.19,0.542-1.19,1.19
		S16.66,971.899,17.308,971.899z M17.308,971.112c-0.228,0-0.42-0.175-0.42-0.42c0-0.245,0.175-0.42,0.42-0.42
		c0.228,0,0.42,0.175,0.42,0.42C17.728,970.937,17.553,971.112,17.308,971.112z"/>
	<path fill="#1A97D5" d="M11.812,967.49c0.647,0,1.19-0.542,1.19-1.19s-0.542-1.19-1.19-1.19s-1.19,0.543-1.19,1.19
		S11.165,967.49,11.812,967.49z M11.812,966.72c-0.228,0-0.42-0.175-0.42-0.42c0-0.228,0.175-0.42,0.42-0.42s0.42,0.175,0.42,0.42
		C12.232,966.527,12.058,966.72,11.812,966.72z"/>
	<path fill="#1A97D5" d="M7.63,975.26c0.647,0,1.19-0.542,1.19-1.19c0-0.647-0.542-1.189-1.19-1.189s-1.19,0.542-1.19,1.189
		C6.44,974.718,6.982,975.26,7.63,975.26z M7.63,974.489c-0.228,0-0.42-0.175-0.42-0.42c0-0.227,0.175-0.42,0.42-0.42
		s0.42,0.176,0.42,0.42C8.05,974.314,7.875,974.489,7.63,974.489z"/>
	<path fill="#1A97D5" d="M21.018,966.212c-0.088,0.018-0.158,0.07-0.21,0.14l-3.045,3.763c-0.14,0.157-0.105,0.402,0.052,0.542
		c0.158,0.14,0.402,0.105,0.542-0.053l0,0l3.045-3.762c0.141-0.158,0.123-0.403-0.053-0.542
		C21.263,966.212,21.141,966.177,21.018,966.212L21.018,966.212z"/>
	<path fill="#1A97D5" d="M12.46,966.51c-0.21,0-0.385,0.175-0.385,0.385c0,0.123,0.052,0.228,0.14,0.297l4.147,3.395
		c0.158,0.14,0.403,0.123,0.542-0.052c0.14-0.158,0.123-0.403-0.052-0.542c0,0,0,0-0.018-0.018l-4.147-3.395
		C12.635,966.544,12.547,966.51,12.46,966.51L12.46,966.51z"/>
	<path fill="#1A97D5" d="M11.235,966.649c-0.14,0.018-0.262,0.088-0.333,0.228l-3.08,6.353c-0.087,0.192-0.017,0.42,0.175,0.525
		c0.192,0.088,0.42,0.018,0.525-0.176l0,0l3.08-6.352c0.105-0.192,0.018-0.42-0.175-0.525
		C11.375,966.649,11.305,966.632,11.235,966.649L11.235,966.649z"/>
	<path fill="#1A97D5" d="M26.408,966.72c-2.398,0-4.341,1.942-4.341,4.34s1.942,4.34,4.341,4.34c2.396,0,4.34-1.942,4.34-4.34
		C30.748,968.68,28.787,966.72,26.408,966.72z M26.408,967.507c1.977,0,3.569,1.592,3.569,3.552s-1.593,3.57-3.569,3.57
		c-1.979,0-3.553-1.593-3.553-3.57S24.43,967.507,26.408,967.507z"/>
	<path fill="#1A97D5" d="M29.383,973.807c-0.211,0-0.385,0.174-0.385,0.385c0,0.104,0.035,0.21,0.122,0.279l2.521,2.521
		c0.156,0.157,0.402,0.157,0.542,0.018c0.157-0.157,0.157-0.403,0.018-0.542c0,0,0,0-0.018-0.018l-2.521-2.521
		C29.592,973.859,29.487,973.807,29.383,973.807z"/>
	<path fill="#1A97D5" d="M27.457,971.689c0,0.21-0.087,0.386-0.244,0.525c-0.158,0.14-0.385,0.228-0.666,0.263v0.542H26.25v-0.524
		c-0.175,0-0.35-0.018-0.508-0.035c-0.157-0.035-0.297-0.07-0.402-0.123v-0.367c0.123,0.053,0.28,0.105,0.455,0.141
		c0.176,0.034,0.332,0.052,0.455,0.052v-1.032c-0.314-0.105-0.543-0.228-0.665-0.35c-0.122-0.14-0.192-0.315-0.192-0.525
		s0.07-0.368,0.228-0.508c0.157-0.123,0.367-0.21,0.63-0.245v-0.42h0.297v0.42c0.281,0,0.561,0.07,0.823,0.175l-0.122,0.315
		c-0.229-0.087-0.473-0.14-0.701-0.158v1.015c0.246,0.07,0.42,0.158,0.543,0.228s0.21,0.158,0.263,0.263
		C27.439,971.445,27.457,971.55,27.457,971.689L27.457,971.689z M27.055,971.724c0-0.105-0.035-0.21-0.104-0.28
		c-0.07-0.07-0.21-0.14-0.403-0.21v0.91C26.897,972.109,27.055,971.97,27.055,971.724z M25.777,970.272
		c0,0.123,0.035,0.21,0.105,0.28c0.07,0.07,0.192,0.14,0.367,0.21v-0.91c-0.158,0.018-0.263,0.07-0.35,0.14
		C25.83,970.079,25.777,970.167,25.777,970.272L25.777,970.272z"/>
</g>
</svg>
